<?xml version="1.0" encoding="UTF-8" standalone="no"?>
<!-- Created with Inkscape (http://www.inkscape.org/) -->

<svg
   version="1.1"
   id="svg55"
   width="740"
   height="740"
   viewBox="0 0 740 740"
   sodipodi:docname="logo.svg"
   inkscape:version="1.2.1 (9c6d41e, 2022-07-14)"
   xmlns:inkscape="http://www.inkscape.org/namespaces/inkscape"
   xmlns:sodipodi="http://sodipodi.sourceforge.net/DTD/sodipodi-0.dtd"
   xmlns:xlink="http://www.w3.org/1999/xlink"
   xmlns="http://www.w3.org/2000/svg"
   xmlns:svg="http://www.w3.org/2000/svg">
  <defs
     id="defs59">
    <linearGradient
       inkscape:collect="always"
       id="linearGradient1276">
      <stop
         style="stop-color:#7f00ff;stop-opacity:0.99000001;"
         offset="0"
         id="stop1272" />
      <stop
         style="stop-color:#33ccff;stop-opacity:1;"
         offset="1"
         id="stop1274" />
    </linearGradient>
    <clipPath
       clipPathUnits="userSpaceOnUse"
       id="clipPath576">
      <path
         id="path578"
         style="fill:#ff0000;fill-opacity:1;fill-rule:nonzero;stroke:none"
         d="M 0,78.601562 V 740 H 740 V 78.601562 Z M 155.86523,553.12109 c 4.91684,-0.17481 10.90419,0.99504 17.47071,3.96875 3.95989,1.79329 -4.23991,-1.95991 5.91211,3.17774 13.72981,6.94826 28.02679,13.06336 42.32226,18.71875 2.83748,1.12252 5.70621,2.16478 8.56055,3.24414 -4.37785,-8.62392 1.93229,-17.50535 14.51953,-17.49024 3.41636,0.004 7.29388,0.66448 11.54297,2.16211 15.83412,5.58097 32.20486,9.53568 48.49609,13.52344 30.47774,6.80479 60.93726,13.70649 91.47071,20.25977 10.06869,2.16022 20.19755,4.01845 30.30273,5.99609 28.29706,5.5379 22.70313,34.1228 -5.59375,28.58398 -10.27818,-2.01182 -20.58173,-3.9015 -30.82226,-6.10156 -21.04751,-4.51843 -42.04551,-9.2662 -63.05274,-13.9707 9.6512,2.86697 19.32967,5.64391 29.03516,8.32226 20.5446,5.66956 30.89143,8.16799 51.28906,13.31836 38.60416,9.33156 77.64544,16.70591 116.625,24.26563 6.10275,1.17993 15.47456,3.20696 22.01758,3.79101 1.87269,0.16717 6.74661,0.80186 7.57031,-1.0664 0.15892,-0.36045 -0.73669,-0.48376 -0.79687,-0.87305 -0.0963,-0.62223 0.25008,-1.23444 0.375,-1.85156 4.21981,-9.07007 7.07437,-18.72947 11.44921,-27.73242 1.19559,-2.46039 2.55568,-4.83741 3.83399,-7.25586 7.8485,-13.86564 18.29613,-25.90551 29.24219,-37.37695 5.6827,-5.52712 11.28211,-11.3741 18.08398,-15.56641 1.42882,-0.88066 2.93614,-1.62607 4.4043,-2.43945 8.37427,-3.90409 17.50119,-4.3281 26.53515,-3.11329 2.38606,0.32086 4.73211,0.89612 7.09766,1.34375 28.33112,5.36109 22.59297,34.47603 -5.63086,28.57618 -1.31193,-0.27425 -6.33072,-1.39752 -8.04102,-1.51758 -1.08906,-0.0765 -2.18168,0.079 -3.27343,0.084 -2.39616,0.01 -0.66644,-0.305 -3.08594,0.38282 -5.96912,2.68799 -10.30701,8.04151 -15.0332,12.37304 -9.14537,9.55452 -17.96378,19.51158 -24.625,31.01172 -0.93925,1.71996 -1.95567,3.40055 -2.81836,5.16016 -5.13869,10.48125 -8.00972,21.96821 -13.8418,32.13476 -5.90549,7.76547 -6.59896,10.70899 -16.15625,14.7461 -12.44766,5.25801 -30.28128,-0.0799 -42.85156,-2.2168 -39.51145,-7.66303 -79.08383,-15.14351 -118.21094,-24.61914 -20.74292,-5.23968 -31.24201,-7.77543 -52.14648,-13.54883 -38.17694,-10.54371 -75.98512,-22.43614 -113.0879,-36.31836 -21.43232,-8.13768 -24.14834,-8.86245 -43.8164,-17.36523 -5.08253,-2.19724 -10.12343,-4.49169 -15.14258,-6.83008 -5.76899,-2.68773 -11.92773,-5.56922 -17.39062,-8.98438 -1.67629,-1.04793 -3.24318,-2.26057 -4.86524,-3.39062 -17.7439,-12.36174 -12.62352,-24.99117 2.12695,-25.51563 z" />
    </clipPath>
    <clipPath
       clipPathUnits="userSpaceOnUse"
       id="clipPath586">
      <path
         id="path588"
         style="fill:#ff0000;fill-opacity:1;fill-rule:nonzero;stroke:none"
         d="M 0,81.027344 V 740 H 740 V 81.027344 Z M 155.86523,553.12109 c 4.91684,-0.17481 10.90419,0.99504 17.47071,3.96875 3.95989,1.79329 -4.23991,-1.95991 5.91211,3.17774 13.72981,6.94826 28.02679,13.06336 42.32226,18.71875 2.83748,1.12252 5.70621,2.16478 8.56055,3.24414 -4.37785,-8.62392 1.93229,-17.50535 14.51953,-17.49024 3.41636,0.004 7.29388,0.66448 11.54297,2.16211 15.83412,5.58097 32.20486,9.53568 48.49609,13.52344 30.47774,6.80479 60.93726,13.70649 91.47071,20.25977 10.06869,2.16022 20.19755,4.01845 30.30273,5.99609 28.29706,5.5379 22.70313,34.1228 -5.59375,28.58398 -10.27818,-2.01182 -20.58173,-3.9015 -30.82226,-6.10156 -21.04751,-4.51843 -42.04551,-9.2662 -63.05274,-13.9707 9.6512,2.86697 19.32967,5.64391 29.03516,8.32226 20.5446,5.66956 30.89143,8.16799 51.28906,13.31836 38.60416,9.33156 77.64544,16.70591 116.625,24.26563 6.10275,1.17993 15.47456,3.20696 22.01758,3.79101 1.87269,0.16717 6.74661,0.80186 7.57031,-1.0664 0.15892,-0.36045 -0.73669,-0.48376 -0.79687,-0.87305 -0.0963,-0.62223 0.25008,-1.23444 0.375,-1.85156 4.21981,-9.07007 7.07437,-18.72947 11.44921,-27.73242 1.19559,-2.46039 2.55568,-4.83741 3.83399,-7.25586 7.8485,-13.86564 18.29613,-25.90551 29.24219,-37.37695 5.6827,-5.52712 11.28211,-11.3741 18.08398,-15.56641 1.42882,-0.88066 2.93614,-1.62607 4.4043,-2.43945 8.37427,-3.90409 17.50119,-4.3281 26.53515,-3.11329 2.38606,0.32086 4.73211,0.89612 7.09766,1.34375 28.33112,5.36109 22.59297,34.47603 -5.63086,28.57618 -1.31193,-0.27425 -6.33072,-1.39752 -8.04102,-1.51758 -1.08906,-0.0765 -2.18168,0.079 -3.27343,0.084 -2.39616,0.01 -0.66644,-0.305 -3.08594,0.38282 -5.96912,2.68799 -10.30701,8.04151 -15.0332,12.37304 -9.14537,9.55452 -17.96378,19.51158 -24.625,31.01172 -0.93925,1.71996 -1.95567,3.40055 -2.81836,5.16016 -5.13869,10.48125 -8.00972,21.96821 -13.8418,32.13476 -5.90549,7.76547 -6.59896,10.70899 -16.15625,14.7461 -12.44766,5.25801 -30.28128,-0.0799 -42.85156,-2.2168 -39.51145,-7.66303 -79.08383,-15.14351 -118.21094,-24.61914 -20.74292,-5.23968 -31.24201,-7.77543 -52.14648,-13.54883 -38.17694,-10.54371 -75.98512,-22.43614 -113.0879,-36.31836 -21.43232,-8.13768 -24.14834,-8.86245 -43.8164,-17.36523 -5.08253,-2.19724 -10.12343,-4.49169 -15.14258,-6.83008 -5.76899,-2.68773 -11.92773,-5.56922 -17.39062,-8.98438 -1.67629,-1.04793 -3.24318,-2.26057 -4.86524,-3.39062 -17.7439,-12.36174 -12.62352,-24.99117 2.12695,-25.51563 z" />
    </clipPath>
    <clipPath
       clipPathUnits="userSpaceOnUse"
       id="clipPath596">
      <path
         id="path598"
         style="fill:#ff0000;fill-opacity:1;fill-rule:nonzero;stroke:none"
         d="M 0,80.964844 V 740 H 740 V 80.964844 Z M 155.86523,553.12109 c 4.91684,-0.17481 10.90419,0.99504 17.47071,3.96875 3.95989,1.79329 -4.23991,-1.95991 5.91211,3.17774 13.72981,6.94826 28.02679,13.06336 42.32226,18.71875 2.83748,1.12252 5.70621,2.16478 8.56055,3.24414 -4.37785,-8.62392 1.93229,-17.50535 14.51953,-17.49024 3.41636,0.004 7.29388,0.66448 11.54297,2.16211 15.83412,5.58097 32.20486,9.53568 48.49609,13.52344 30.47774,6.80479 60.93726,13.70649 91.47071,20.25977 10.06869,2.16022 20.19755,4.01845 30.30273,5.99609 28.29706,5.5379 22.70313,34.1228 -5.59375,28.58398 -10.27818,-2.01182 -20.58173,-3.9015 -30.82226,-6.10156 -21.04751,-4.51843 -42.04551,-9.2662 -63.05274,-13.9707 9.6512,2.86697 19.32967,5.64391 29.03516,8.32226 20.5446,5.66956 30.89143,8.16799 51.28906,13.31836 38.60416,9.33156 77.64544,16.70591 116.625,24.26563 6.10275,1.17993 15.47456,3.20696 22.01758,3.79101 1.87269,0.16717 6.74661,0.80186 7.57031,-1.0664 0.15892,-0.36045 -0.73669,-0.48376 -0.79687,-0.87305 -0.0963,-0.62223 0.25008,-1.23444 0.375,-1.85156 4.21981,-9.07007 7.07437,-18.72947 11.44921,-27.73242 1.19559,-2.46039 2.55568,-4.83741 3.83399,-7.25586 7.8485,-13.86564 18.29613,-25.90551 29.24219,-37.37695 5.6827,-5.52712 11.28211,-11.3741 18.08398,-15.56641 1.42882,-0.88066 2.93614,-1.62607 4.4043,-2.43945 8.37427,-3.90409 17.50119,-4.3281 26.53515,-3.11329 2.38606,0.32086 4.73211,0.89612 7.09766,1.34375 28.33112,5.36109 22.59297,34.47603 -5.63086,28.57618 -1.31193,-0.27425 -6.33072,-1.39752 -8.04102,-1.51758 -1.08906,-0.0765 -2.18168,0.079 -3.27343,0.084 -2.39616,0.01 -0.66644,-0.305 -3.08594,0.38282 -5.96912,2.68799 -10.30701,8.04151 -15.0332,12.37304 -9.14537,9.55452 -17.96378,19.51158 -24.625,31.01172 -0.93925,1.71996 -1.95567,3.40055 -2.81836,5.16016 -5.13869,10.48125 -8.00972,21.96821 -13.8418,32.13476 -5.90549,7.76547 -6.59896,10.70899 -16.15625,14.7461 -12.44766,5.25801 -30.28128,-0.0799 -42.85156,-2.2168 -39.51145,-7.66303 -79.08383,-15.14351 -118.21094,-24.61914 -20.74292,-5.23968 -31.24201,-7.77543 -52.14648,-13.54883 -38.17694,-10.54371 -75.98512,-22.43614 -113.0879,-36.31836 -21.43232,-8.13768 -24.14834,-8.86245 -43.8164,-17.36523 -5.08253,-2.19724 -10.12343,-4.49169 -15.14258,-6.83008 -5.76899,-2.68773 -11.92773,-5.56922 -17.39062,-8.98438 -1.67629,-1.04793 -3.24318,-2.26057 -4.86524,-3.39062 -17.7439,-12.36174 -12.62352,-24.99117 2.12695,-25.51563 z" />
    </clipPath>
    <clipPath
       clipPathUnits="userSpaceOnUse"
       id="clipPath606">
      <path
         id="path608"
         style="fill:#ff0000;fill-opacity:1;fill-rule:nonzero;stroke:none"
         d="M 0,80.964844 V 740 H 740 V 80.964844 Z M 155.86523,553.12109 c 4.91684,-0.17481 10.90419,0.99504 17.47071,3.96875 3.95989,1.79329 -4.23991,-1.95991 5.91211,3.17774 13.72981,6.94826 28.02679,13.06336 42.32226,18.71875 2.83748,1.12252 5.70621,2.16478 8.56055,3.24414 -4.37785,-8.62392 1.93229,-17.50535 14.51953,-17.49024 3.41636,0.004 7.29388,0.66448 11.54297,2.16211 15.83412,5.58097 32.20486,9.53568 48.49609,13.52344 30.47774,6.80479 60.93726,13.70649 91.47071,20.25977 10.06869,2.16022 20.19755,4.01845 30.30273,5.99609 28.29706,5.5379 22.70313,34.1228 -5.59375,28.58398 -10.27818,-2.01182 -20.58173,-3.9015 -30.82226,-6.10156 -21.04751,-4.51843 -42.04551,-9.2662 -63.05274,-13.9707 9.6512,2.86697 19.32967,5.64391 29.03516,8.32226 20.5446,5.66956 30.89143,8.16799 51.28906,13.31836 38.60416,9.33156 77.64544,16.70591 116.625,24.26563 6.10275,1.17993 15.47456,3.20696 22.01758,3.79101 1.87269,0.16717 6.74661,0.80186 7.57031,-1.0664 0.15892,-0.36045 -0.73669,-0.48376 -0.79687,-0.87305 -0.0963,-0.62223 0.25008,-1.23444 0.375,-1.85156 4.21981,-9.07007 7.07437,-18.72947 11.44921,-27.73242 1.19559,-2.46039 2.55568,-4.83741 3.83399,-7.25586 7.8485,-13.86564 18.29613,-25.90551 29.24219,-37.37695 5.6827,-5.52712 11.28211,-11.3741 18.08398,-15.56641 1.42882,-0.88066 2.93614,-1.62607 4.4043,-2.43945 8.37427,-3.90409 17.50119,-4.3281 26.53515,-3.11329 2.38606,0.32086 4.73211,0.89612 7.09766,1.34375 28.33112,5.36109 22.59297,34.47603 -5.63086,28.57618 -1.31193,-0.27425 -6.33072,-1.39752 -8.04102,-1.51758 -1.08906,-0.0765 -2.18168,0.079 -3.27343,0.084 -2.39616,0.01 -0.66644,-0.305 -3.08594,0.38282 -5.96912,2.68799 -10.30701,8.04151 -15.0332,12.37304 -9.14537,9.55452 -17.96378,19.51158 -24.625,31.01172 -0.93925,1.71996 -1.95567,3.40055 -2.81836,5.16016 -5.13869,10.48125 -8.00972,21.96821 -13.8418,32.13476 -5.90549,7.76547 -6.59896,10.70899 -16.15625,14.7461 -12.44766,5.25801 -30.28128,-0.0799 -42.85156,-2.2168 -39.51145,-7.66303 -79.08383,-15.14351 -118.21094,-24.61914 -20.74292,-5.23968 -31.24201,-7.77543 -52.14648,-13.54883 -38.17694,-10.54371 -75.98512,-22.43614 -113.0879,-36.31836 -21.43232,-8.13768 -24.14834,-8.86245 -43.8164,-17.36523 -5.08253,-2.19724 -10.12343,-4.49169 -15.14258,-6.83008 -5.76899,-2.68773 -11.92773,-5.56922 -17.39062,-8.98438 -1.67629,-1.04793 -3.24318,-2.26057 -4.86524,-3.39062 -17.7439,-12.36174 -12.62352,-24.99117 2.12695,-25.51563 z" />
    </clipPath>
    <clipPath
       clipPathUnits="userSpaceOnUse"
       id="clipPath616">
      <path
         id="path618"
         style="fill:#ff0000;fill-opacity:1;fill-rule:nonzero;stroke:none"
         d="M 0,80.964844 V 740 H 740 V 80.964844 Z M 155.86523,553.12109 c 4.91684,-0.17481 10.90419,0.99504 17.47071,3.96875 3.95989,1.79329 -4.23991,-1.95991 5.91211,3.17774 13.72981,6.94826 28.02679,13.06336 42.32226,18.71875 2.83748,1.12252 5.70621,2.16478 8.56055,3.24414 -4.37785,-8.62392 1.93229,-17.50535 14.51953,-17.49024 3.41636,0.004 7.29388,0.66448 11.54297,2.16211 15.83412,5.58097 32.20486,9.53568 48.49609,13.52344 30.47774,6.80479 60.93726,13.70649 91.47071,20.25977 10.06869,2.16022 20.19755,4.01845 30.30273,5.99609 28.29706,5.5379 22.70313,34.1228 -5.59375,28.58398 -10.27818,-2.01182 -20.58173,-3.9015 -30.82226,-6.10156 -21.04751,-4.51843 -42.04551,-9.2662 -63.05274,-13.9707 9.6512,2.86697 19.32967,5.64391 29.03516,8.32226 20.5446,5.66956 30.89143,8.16799 51.28906,13.31836 38.60416,9.33156 77.64544,16.70591 116.625,24.26563 6.10275,1.17993 15.47456,3.20696 22.01758,3.79101 1.87269,0.16717 6.74661,0.80186 7.57031,-1.0664 0.15892,-0.36045 -0.73669,-0.48376 -0.79687,-0.87305 -0.0963,-0.62223 0.25008,-1.23444 0.375,-1.85156 4.21981,-9.07007 7.07437,-18.72947 11.44921,-27.73242 1.19559,-2.46039 2.55568,-4.83741 3.83399,-7.25586 7.8485,-13.86564 18.29613,-25.90551 29.24219,-37.37695 5.6827,-5.52712 11.28211,-11.3741 18.08398,-15.56641 1.42882,-0.88066 2.93614,-1.62607 4.4043,-2.43945 8.37427,-3.90409 17.50119,-4.3281 26.53515,-3.11329 2.38606,0.32086 4.73211,0.89612 7.09766,1.34375 28.33112,5.36109 22.59297,34.47603 -5.63086,28.57618 -1.31193,-0.27425 -6.33072,-1.39752 -8.04102,-1.51758 -1.08906,-0.0765 -2.18168,0.079 -3.27343,0.084 -2.39616,0.01 -0.66644,-0.305 -3.08594,0.38282 -5.96912,2.68799 -10.30701,8.04151 -15.0332,12.37304 -9.14537,9.55452 -17.96378,19.51158 -24.625,31.01172 -0.93925,1.71996 -1.95567,3.40055 -2.81836,5.16016 -5.13869,10.48125 -8.00972,21.96821 -13.8418,32.13476 -5.90549,7.76547 -6.59896,10.70899 -16.15625,14.7461 -12.44766,5.25801 -30.28128,-0.0799 -42.85156,-2.2168 -39.51145,-7.66303 -79.08383,-15.14351 -118.21094,-24.61914 -20.74292,-5.23968 -31.24201,-7.77543 -52.14648,-13.54883 -38.17694,-10.54371 -75.98512,-22.43614 -113.0879,-36.31836 -21.43232,-8.13768 -24.14834,-8.86245 -43.8164,-17.36523 -5.08253,-2.19724 -10.12343,-4.49169 -15.14258,-6.83008 -5.76899,-2.68773 -11.92773,-5.56922 -17.39062,-8.98438 -1.67629,-1.04793 -3.24318,-2.26057 -4.86524,-3.39062 -17.7439,-12.36174 -12.62352,-24.99117 2.12695,-25.51563 z" />
    </clipPath>
    <clipPath
       clipPathUnits="userSpaceOnUse"
       id="clipPath626">
      <path
         id="path628"
         style="fill:#ff0000;fill-opacity:1;fill-rule:nonzero;stroke:none"
         d="M 0,427.16016 V 740 H 740 V 427.16016 Z m 155.86523,125.96093 c 4.91684,-0.17481 10.90419,0.99504 17.47071,3.96875 3.95989,1.79329 -4.23991,-1.95991 5.91211,3.17774 13.72981,6.94826 28.02679,13.06336 42.32226,18.71875 2.83748,1.12252 5.70621,2.16478 8.56055,3.24414 -4.37785,-8.62392 1.93229,-17.50535 14.51953,-17.49024 3.41636,0.004 7.29388,0.66448 11.54297,2.16211 15.83412,5.58097 32.20486,9.53568 48.49609,13.52344 30.47774,6.80479 60.93726,13.70649 91.47071,20.25977 10.06869,2.16022 20.19755,4.01845 30.30273,5.99609 28.29706,5.5379 22.70313,34.1228 -5.59375,28.58398 -10.27818,-2.01182 -20.58173,-3.9015 -30.82226,-6.10156 -21.04751,-4.51843 -42.04551,-9.2662 -63.05274,-13.9707 9.6512,2.86697 19.32967,5.64391 29.03516,8.32226 20.5446,5.66956 30.89143,8.16799 51.28906,13.31836 38.60416,9.33156 77.64544,16.70591 116.625,24.26563 6.10275,1.17993 15.47456,3.20696 22.01758,3.79101 1.87269,0.16717 6.74661,0.80186 7.57031,-1.0664 0.15892,-0.36045 -0.73669,-0.48376 -0.79687,-0.87305 -0.0963,-0.62223 0.25008,-1.23444 0.375,-1.85156 4.21981,-9.07007 7.07437,-18.72947 11.44921,-27.73242 1.19559,-2.46039 2.55568,-4.83741 3.83399,-7.25586 7.8485,-13.86564 18.29613,-25.90551 29.24219,-37.37695 5.6827,-5.52712 11.28211,-11.3741 18.08398,-15.56641 1.42882,-0.88066 2.93614,-1.62607 4.4043,-2.43945 8.37427,-3.90409 17.50119,-4.3281 26.53515,-3.11329 2.38606,0.32086 4.73211,0.89612 7.09766,1.34375 28.33112,5.36109 22.59297,34.47603 -5.63086,28.57618 -1.31193,-0.27425 -6.33072,-1.39752 -8.04102,-1.51758 -1.08906,-0.0765 -2.18168,0.079 -3.27343,0.084 -2.39616,0.01 -0.66644,-0.305 -3.08594,0.38282 -5.96912,2.68799 -10.30701,8.04151 -15.0332,12.37304 -9.14537,9.55452 -17.96378,19.51158 -24.625,31.01172 -0.93925,1.71996 -1.95567,3.40055 -2.81836,5.16016 -5.13869,10.48125 -8.00972,21.96821 -13.8418,32.13476 -5.90549,7.76547 -6.59896,10.70899 -16.15625,14.7461 -12.44766,5.25801 -30.28128,-0.0799 -42.85156,-2.2168 -39.51145,-7.66303 -79.08383,-15.14351 -118.21094,-24.61914 -20.74292,-5.23968 -31.24201,-7.77543 -52.14648,-13.54883 -38.17694,-10.54371 -75.98512,-22.43614 -113.0879,-36.31836 -21.43232,-8.13768 -24.14834,-8.86245 -43.8164,-17.36523 -5.08253,-2.19724 -10.12343,-4.49169 -15.14258,-6.83008 -5.76899,-2.68773 -11.92773,-5.56922 -17.39062,-8.98438 -1.67629,-1.04793 -3.24318,-2.26057 -4.86524,-3.39062 -17.7439,-12.36174 -12.62352,-24.99117 2.12695,-25.51563 z" />
    </clipPath>
    <linearGradient
       inkscape:collect="always"
       xlink:href="#linearGradient1276"
       id="linearGradient6920"
       gradientUnits="userSpaceOnUse"
       x1="193.6774"
       y1="246.4472"
       x2="513.6875"
       y2="246.4472"
       gradientTransform="matrix(2.0254295,0,0,2.0254295,-346.88533,-137.10649)" />
    <linearGradient
       inkscape:collect="always"
       xlink:href="#linearGradient1276"
       id="linearGradient6922"
       gradientUnits="userSpaceOnUse"
       x1="193.6774"
       y1="246.4472"
       x2="513.6875"
       y2="246.4472" />
  </defs>
  <sodipodi:namedview
     id="namedview57"
     pagecolor="#ffffff"
     bordercolor="#000000"
     borderopacity="0.25"
     inkscape:showpageshadow="2"
     inkscape:pageopacity="0.0"
     inkscape:pagecheckerboard="0"
     inkscape:deskcolor="#d1d1d1"
     showgrid="false"
     inkscape:zoom="0.77686188"
     inkscape:cx="338.54152"
     inkscape:cy="287.69593"
     inkscape:window-width="1920"
     inkscape:window-height="1016"
     inkscape:window-x="0"
     inkscape:window-y="27"
     inkscape:window-maximized="1"
     inkscape:current-layer="g223" />
  <g
     inkscape:groupmode="layer"
     inkscape:label="Image"
     id="g61">
    <g
       id="g223">
      <text
         xml:space="preserve"
         style="font-style:normal;font-variant:normal;font-weight:normal;font-stretch:normal;font-size:295.33px;font-family:'Allerta Stencil';-inkscape-font-specification:'Allerta Stencil';mix-blend-mode:normal;fill:url(#linearGradient6920);fill-opacity:1;fill-rule:nonzero;stroke-width:24.6106"
         x="261.54459"
         y="439.54871"
         id="text298"><tspan
           sodipodi:role="line"
           id="tspan296"
           x="261.54459"
           y="439.54871"
           style="fill:url(#linearGradient6920);fill-opacity:1;fill-rule:nonzero;stroke-width:24.6106">A</tspan></text>
      <path
         id="path235"
         clip-path="url(#clipPath586)"
         style="display:inline;mix-blend-mode:normal;fill:url(#linearGradient6922);fill-opacity:1;fill-rule:nonzero"
         inkscape:label="path235"
         transform="matrix(2.204395,0,0,2.204395,-443.73659,-162.63381)"
         d="m 371.21998,81.02805 c -1.25318,-0.01481 -4.96569,1.328424 -8.25,2.986328 l -5.97071,3.015625 -0.0156,21.734377 c -0.008,11.95451 -0.34598,22.23132 -0.75,22.83594 -0.40408,0.60462 -23.68459,12.69 -51.73438,26.85742 -28.04979,14.16747 -51.3511,26.08639 -51.78125,26.48437 -1.14343,1.0579 3.74427,23.13931 8.20508,37.06836 3.69947,11.55182 3.77748,12.07934 1.95508,13.05469 -1.09469,0.58586 -9.20106,0.98139 -19.13867,0.93359 -9.482,-0.0455 -17.80274,-0.0643 -18.49024,-0.041 -2.2167,0.0752 -1.36013,3.6078 4.29688,17.71289 14.60548,36.41742 35.12132,67.30684 63.33984,95.36719 20.15515,20.04218 40.68463,35.56493 64.68945,48.91406 5.98316,3.32724 11.23885,6.04883 11.67969,6.04883 1.98615,0 12.55784,-6.07048 13.11914,-7.53321 0.34421,-0.897 0.625,-11.63744 0.625,-23.86718 v -22.23438 l 11.91406,-9.21484 c 25.99699,-20.10835 46.46775,-43.80218 65.29688,-75.57422 l 2.71289,-4.57617 h 22.07227 22.07421 l 2.07422,-4.75 c 1.13997,-2.6125 4.23145,-11.27507 6.8711,-19.25 7.86444,-23.75963 12.96479,-49.78412 13.30664,-67.89649 l 0.17773,-9.39844 -78,-39.32617 C 408.59955,98.750431 372.47316,81.04286 371.21998,81.02805 Z m -29.35547,15.238281 c -0.84573,-0.845779 -17.69877,7.146089 -66.25,31.417969 -35.81334,17.90401 -65.43413,33.05924 -65.82422,33.67773 -1.89645,3.00685 5.66351,53.71056 8.7539,58.71094 0.68704,1.11158 25.13061,1.26151 25.8125,0.1582 0.26166,-0.42337 -0.56501,-5.07861 -1.83789,-10.34375 -3.11072,-12.86731 -5.92719,-30.38065 -5.19336,-32.29296 0.32719,-0.85267 23.95264,-13.23111 52.50196,-27.50782 29.03466,-14.51943 52.18778,-26.68301 52.54101,-27.60351 1.13417,-2.95559 0.71025,-25.002659 -0.5039,-26.216799 z m 42.63867,20.734379 c 1.89522,0 117.1065,57.55988 117.95312,58.92968 0.77837,1.25945 -2.82151,23.70336 -5.53515,34.51172 -4.6067,18.34789 -6.79254,24.29116 -9.16797,24.92774 -1.23955,0.33217 -11.12477,0.60918 -21.9668,0.61718 l -19.71289,0.0137 -5.12305,10.25 c -10.22914,20.46253 -25.91479,41.65414 -43.58984,58.89062 -11.22355,10.94505 -24.96366,21.85938 -27.51758,21.85938 -1.08026,0 -4.02585,-1.57501 -6.54687,-3.5 -2.5211,-1.925 -4.9705,-3.5 -5.44141,-3.5 -0.47091,0 -0.85547,10.32393 -0.85547,22.9414 0,13.13993 -0.39844,23.18684 -0.93359,23.51758 -1.07938,0.6671 -14.36337,-8.13879 -24.56641,-16.28516 -10.87019,-8.67903 -29.88897,-27.64111 -38.78906,-38.67382 -13.93752,-17.27716 -31.58053,-45.78915 -30.33789,-49.02735 0.47312,-1.23293 4.06133,-1.47265 22.0957,-1.47265 11.84219,0 21.53125,-0.20073 21.53125,-0.44532 0,-0.2446 -2.44308,-5.08216 -5.42969,-10.75 -2.98654,-5.6679 -7.23227,-14.8508 -9.43359,-20.40625 -3.90725,-9.86073 -9.13672,-26.5214 -9.13672,-29.10742 0,-0.71209 19.94823,-11.26487 44.32813,-23.45117 l 44.32617,-22.15625 5.41016,2.57031 c 2.97524,1.41402 5.75222,2.35897 6.17187,2.09961 0.41964,-0.25935 0.76367,-9.8947 0.76367,-21.41211 0,-17.96844 0.21392,-20.9414 1.50391,-20.9414 z m 13.99219,23 c -2.11815,0 -2.22428,26.15043 -0.11329,27.90234 0.76017,0.63089 14.14781,7.48505 29.75,15.23047 15.60225,7.74542 28.68657,14.5929 29.07618,15.2168 0.81899,1.31145 0.39604,3.36464 -2.79102,13.57617 -1.27482,4.08462 -2.08847,7.79713 -1.80859,8.25 0.27983,0.45287 6.053,0.82422 12.82812,0.82422 9.43656,0 12.59484,-0.33316 13.5,-1.42383 1.50357,-1.81168 6.90212,-23.3237 7.67383,-30.57617 l 0.58594,-5.5 -43.60156,-21.75 c -23.98067,-11.96243 -44.27628,-21.75 -45.09961,-21.75 z m -59.57422,54.56445 c -0.0592,0.006 -0.11865,0.009 -0.17774,0.0156 -0.2114,0.0246 -0.0953,0.0673 0.12891,0 0.0164,-0.005 0.0325,-0.0106 0.0488,-0.0156 z m 37.16015,45.89453 c 0.0317,0.0548 0.0638,0.10941 0.0957,0.16406 0.004,-0.002 0.007,-0.004 0.0117,-0.006 0.0155,0.034 0.0275,0.0695 0.043,0.10352 0.0308,0.0526 0.0608,0.10572 0.0918,0.1582 0.0632,-0.0672 -0.11885,-0.21759 -0.17383,-0.32031 -0.0189,-0.0354 -0.0885,-0.13441 -0.0684,-0.0996 z m -74.31836,35.54102 c -10.53661,0 -14.76367,0.33188 -14.76367,1.16015 0,0.63828 2.31477,4.57579 5.14453,8.75 10.44199,15.40304 25.12115,31.9373 39.72657,44.74805 4.60379,4.03811 8.7663,7.3418 9.25,7.3418 0.4837,0 0.8789,-7.22646 0.8789,-16.0586 v -16.05859 l -8.27148,-9.19141 c -4.54962,-5.05528 -10.28266,-11.77891 -12.73828,-14.9414 l -4.46485,-5.75 z m 169.54493,0 -5.13086,8.39843 c -15.05049,24.62924 -38.40848,50.67092 -60.92188,67.92383 -3.43385,2.63143 -6.69635,5.63151 -7.25,6.66602 -1.08555,2.02835 -1.40793,24.80281 -0.38867,27.45898 0.55196,1.43833 0.99275,1.39013 4.10352,-0.44531 6.79631,-4.00987 22.37041,-16.08707 33.99414,-26.36328 17.37251,-15.35841 34.88838,-35.5878 47.74609,-55.13867 6.6507,-10.11282 15.53906,-25.73005 15.53906,-27.30274 0,-0.87316 -3.75578,-1.19726 -13.8457,-1.19726 z" />
    </g>
  </g>
</svg>
