<?xml version="1.0" encoding="UTF-8" standalone="no"?>
<!-- Created with Inkscape (http://www.inkscape.org/) -->

<svg
   version="1.1"
   id="svg55"
   width="706"
   height="650"
   viewBox="0 0 706 650"
   sodipodi:docname="logo.svg"
   inkscape:version="1.2.1 (9c6d41e, 2022-07-14)"
   xml:space="preserve"
   inkscape:export-filename="logo_dark_2.svg"
   inkscape:export-xdpi="96"
   inkscape:export-ydpi="96"
   xmlns:inkscape="http://www.inkscape.org/namespaces/inkscape"
   xmlns:sodipodi="http://sodipodi.sourceforge.net/DTD/sodipodi-0.dtd"
   xmlns:xlink="http://www.w3.org/1999/xlink"
   xmlns="http://www.w3.org/2000/svg"
   xmlns:svg="http://www.w3.org/2000/svg"><defs
     id="defs59"><linearGradient
       id="linearGradient1"
       inkscape:collect="always"><stop
         style="stop-color:#f44327;stop-opacity:1;"
         offset="0"
         id="stop1" /><stop
         style="stop-color:#300000;stop-opacity:1;"
         offset="1"
         id="stop2" /></linearGradient><linearGradient
       inkscape:collect="always"
       xlink:href="#linearGradient1"
       id="linearGradient2"
       x1="147.49762"
       y1="328.34918"
       x2="687.49707"
       y2="328.34918"
       gradientUnits="userSpaceOnUse"
       gradientTransform="matrix(1.286313,0,0,1.286313,-165.97135,-81.376116)" /></defs><sodipodi:namedview
     id="namedview57"
     pagecolor="#ffffff"
     bordercolor="#000000"
     borderopacity="0.25"
     inkscape:showpageshadow="2"
     inkscape:pageopacity="0.0"
     inkscape:pagecheckerboard="0"
     inkscape:deskcolor="#d1d1d1"
     showgrid="false"
     inkscape:zoom="0.77686188"
     inkscape:cx="338.54152"
     inkscape:cy="287.69593"
     inkscape:window-width="1920"
     inkscape:window-height="1016"
     inkscape:window-x="0"
     inkscape:window-y="27"
     inkscape:window-maximized="1"
     inkscape:current-layer="g223" /><g
     inkscape:groupmode="layer"
     inkscape:label="Image"
     id="g61"
     transform="translate(-18.060291,-15.983751)"><g
       id="g223"><path
         style="fill:url(#linearGradient2);stroke-width:0.699086"
         d="m 23.756741,660.30974 c 0,-0.52107 8.630936,-15.42731 11.546604,-19.94191 0.869142,-1.34577 3.232709,-5.27815 5.252316,-8.73868 2.019638,-3.46045 4.372272,-7.39283 5.228084,-8.73857 0.855782,-1.34571 3.37415,-5.59267 5.596351,-9.43768 2.222171,-3.84493 4.737465,-8.0919 5.589513,-9.43761 0.852048,-1.34579 3.218118,-5.27817 5.25779,-8.73862 2.039762,-3.4605 4.402564,-7.39285 5.250668,-8.73862 2.113181,-3.35307 32.035263,-53.66887 33.466863,-56.27653 1.22383,-2.2291 10.41811,-17.45724 11.60741,-19.2249 0.38802,-0.57671 2.62835,-4.35178 4.97841,-8.38901 2.35005,-4.03725 4.985,-8.44151 5.85536,-9.78725 0.87043,-1.34574 3.22969,-5.27806 5.24287,-8.73862 2.01323,-3.46048 4.20877,-7.08787 4.87916,-8.06092 0.67025,-0.97303 1.90117,-3.01786 2.73536,-4.54404 2.52055,-4.61146 10.77319,-18.48816 19.94361,-33.5348 3.28076,-5.38295 7.39828,-12.30392 9.15025,-15.37994 1.75185,-3.07596 4.46473,-7.63756 6.02871,-10.13673 1.56399,-2.49922 3.13091,-5.17323 3.48216,-5.94223 0.35101,-0.76904 1.56585,-2.81384 2.6992,-4.54412 1.13333,-1.73018 2.87769,-4.56155 3.87635,-6.29177 0.99859,-1.73025 2.5704,-4.40424 3.49292,-5.94217 0.92255,-1.53803 2.48525,-4.21207 3.47265,-5.94229 0.98743,-1.73023 2.71728,-4.56158 3.84391,-6.2918 1.1267,-1.73024 2.53821,-4.08963 3.13666,-5.24314 0.59841,-1.15347 2.10449,-3.73184 3.34679,-5.72972 1.24227,-1.99783 3.49288,-5.77294 5.00142,-8.38904 1.5084,-2.61615 3.27329,-5.5431 3.92187,-6.50432 0.64853,-0.96126 6.77358,-11.18536 13.61124,-22.72036 6.83763,-11.53491 13.12937,-22.07363 13.98167,-23.4194 0.85229,-1.34575 4.81824,-7.94804 8.8132,-14.67167 3.99499,-6.72368 7.5782,-12.73579 7.96268,-13.36033 0.38431,-0.6245 1.57706,-2.6735 2.65021,-4.55319 1.07308,-1.87978 3.4325,-5.85577 5.24314,-8.83553 5.95115,-9.79388 9.30354,-15.40146 16.40375,-27.43939 3.85538,-6.53645 7.54005,-12.67091 8.18809,-13.63219 0.64812,-0.96129 2.35559,-3.79252 3.79436,-6.29177 3.40109,-5.90789 5.16476,-8.8796 7.05335,-11.88452 0.84579,-1.34571 4.77809,-7.95207 8.73848,-14.6808 3.96042,-6.72872 7.89772,-13.33511 8.7496,-14.68085 2.16987,-3.42802 5.58929,-9.23617 6.17353,-10.48628 0.26995,-0.5768 1.4137,-2.4643 2.5426,-4.19457 1.12888,-1.73025 3.49742,-5.66261 5.26349,-8.73863 1.76601,-3.07594 4.78349,-8.10936 6.70541,-11.18532 1.92189,-3.07602 4.26993,-7.00837 5.21783,-8.73868 0.94793,-1.73022 2.97889,-5.14358 4.51344,-7.58531 1.53443,-2.44171 2.78996,-4.52715 2.78996,-4.63411 0,-0.16639 2.06056,-3.60437 5.45539,-9.10269 4.16503,-6.74578 16.91353,-28.537636 16.90678,-28.8998 -0.009,-0.46589 -4.55817,-3.607755 -5.22408,-3.607755 -0.19748,0 -4.52731,-2.306613 -9.62222,-5.125767 -5.09501,-2.819215 -10.95543,-5.972296 -13.02328,-7.006963 -2.06779,-1.034682 -8.2536,-4.390627 -13.7463,-7.457783 -5.49259,-3.067155 -10.17278,-5.576646 -10.40034,-5.576646 -0.22766,0 -4.42309,-2.249134 -9.32356,-4.998153 -4.90041,-2.748959 -9.85365,-5.427663 -11.00716,-5.952652 -1.15348,-0.524973 -2.5691,-1.244593 -3.14584,-1.599109 -2.08922,-1.284227 -13.81967,-7.619977 -22.02129,-11.893952 -4.61399,-2.404385 -8.84968,-4.809055 -9.4127,-5.343746 -0.87452,-0.830619 8.69943,-0.972464 65.71425,-0.974024 86.99525,-0.003 289.39928,-0.712646 290.96139,-1.02105 1.53757,-0.303231 2.14784,1.970691 3.65093,13.606369 0.62074,4.806266 1.59398,11.25537 2.16258,14.331298 0.56861,3.076018 1.68476,9.996995 2.48046,15.379971 0.79569,5.38299 2.20839,14.663335 3.13921,20.623064 0.93092,5.959775 2.29389,15.082768 3.0289,20.273498 0.73488,5.19077 1.52762,10.2242 1.76144,11.18543 0.23419,0.96128 1.22514,7.09571 2.20286,13.63222 0.97769,6.53647 2.54444,16.76059 3.4817,22.72031 0.93713,5.95973 2.3053,15.08286 3.04028,20.27356 0.73499,5.19072 1.52759,10.22415 1.7615,11.18539 0.23419,0.96125 1.22514,7.09571 2.20282,13.63221 0.97773,6.53649 2.54286,16.76061 3.47805,22.72032 0.93516,5.95976 2.17625,14.29637 2.75788,18.5258 0.58174,4.22952 1.37192,9.26292 1.75605,11.1854 0.73775,3.69207 3.63755,22.4923 5.28366,34.25528 0.53802,3.84499 1.45286,9.6649 2.03295,12.93312 0.58004,3.26826 1.71041,10.34655 2.51194,15.72948 0.80148,5.383 2.22055,14.66333 3.15356,20.62308 0.93306,5.95973 2.15222,14.13903 2.70934,18.17625 0.55714,4.0373 1.50413,10.01442 2.10441,13.2827 1.06674,5.80819 2.60434,15.9465 5.30105,34.95435 0.73645,5.19073 1.6561,10.85336 2.04371,12.58354 0.38763,1.73027 1.35648,7.70743 2.15301,13.28273 0.7965,5.57517 2.22895,15.17016 3.18313,21.32211 1.83422,11.82489 3.92865,25.40221 6.84807,44.39207 1.81015,11.77458 3.91902,25.38259 7.06906,45.61545 0.97278,6.24813 2.53858,16.39363 3.47962,22.54554 1.69874,11.10573 3.73486,24.29733 6.95972,45.09117 2.22652,14.35715 4.85755,31.46254 6.85504,44.56677 l 1.62504,10.6611 h -62.02641 -62.02631 l -0.7495,-3.67023 c -0.41231,-2.01859 -1.3635,-7.28791 -2.11384,-11.70964 -3.04552,-17.94565 -6.48343,-31.68723 -13.5548,-54.17927 -3.32698,-10.58234 -7.23775,-21.00063 -13.64559,-36.35255 -6.17652,-14.79769 -19.51103,-41.65755 -24.33795,-49.0244 -0.61375,-0.9367 -0.97137,-1.84759 -0.79484,-2.02421 0.17666,-0.17665 2.65731,0.43675 5.51266,1.36297 2.85536,0.9262 7.86552,2.48293 11.13377,3.45925 3.26828,0.97632 8.55387,2.57498 11.74581,3.55248 3.19197,0.97752 6.26707,1.77728 6.83352,1.77728 0.56654,0 2.81661,0.6279 5.00015,1.3954 2.1836,0.76749 4.22924,1.13628 4.54601,0.81953 0.63866,-0.63866 -10.37081,-11.67095 -17.98873,-18.02608 -2.69148,-2.24544 -5.20817,-4.43122 -5.59271,-4.85755 -2.39488,-2.65501 -20.83608,-16.49112 -31.10939,-23.3408 l -6.64135,-4.42801 4.19457,0.45552 c 15.00358,1.6297 38.10025,2.35718 38.10025,1.20013 0,-0.35306 -1.17522,-1.37553 -2.61167,-2.27201 -18.17446,-11.34265 -44.74848,-24.21809 -63.27726,-30.65862 -2.59539,-0.90212 -4.71884,-1.84547 -4.71884,-2.09629 0,-0.25099 4.16828,-0.84857 9.26289,-1.32833 21.91106,-2.0634 40.08517,-4.42773 40.99006,-5.33268 0.68387,-0.68389 -1.92716,-2.27221 -5.79022,-3.52239 -1.96137,-0.63466 -4.50999,-1.56956 -5.66344,-2.07747 -10.30321,-4.5369 -40.26941,-12.68687 -57.67471,-15.68598 -14.88108,-2.56415 -14.46668,-2.39273 -8.03946,-3.32573 23.69147,-3.43915 58.12813,-10.19617 80.74454,-15.84349 12.18237,-3.04193 13.17733,-3.36209 12.86921,-4.14148 -0.57957,-1.46622 -38.89936,-10.42609 -52.9221,-12.37411 -3.15551,-0.43831 -6.83835,-1.06842 -8.18409,-1.40017 -2.12728,-0.52433 -13.63759,-1.90245 -34.95434,-4.18502 -3.26826,-0.34982 -10.42968,-0.85052 -15.91425,-1.11233 -5.48463,-0.26187 -9.78673,-0.66414 -9.56012,-0.8939 0.22672,-0.22953 3.77019,-0.93363 7.87475,-1.56405 22.22438,-3.41368 31.33907,-4.86811 32.28037,-5.1512 0.57677,-0.17323 5.13836,-0.9398 10.1368,-1.703 4.99847,-0.76318 14.12158,-2.20179 20.27353,-3.19693 6.152,-0.99505 14.78294,-2.36129 19.18005,-3.03603 12.87629,-1.97607 11.54373,-2.65619 -11.83963,-6.04262 -17.02081,-2.46499 -34.04039,-3.34597 -57.28578,-2.96528 l -19.88468,0.32558 2.05796,-1.69274 c 3.04738,-2.50665 12.0868,-9.49083 13.82759,-10.68364 0.83207,-0.57017 3.4005,-2.46455 5.70747,-4.20966 2.30699,-1.74508 4.98097,-3.70434 5.94223,-4.35383 0.96125,-0.64945 3.94984,-2.7596 6.64135,-4.68907 2.69145,-1.92951 7.88215,-5.55397 11.53491,-8.0543 3.65272,-2.50035 9.31539,-6.45199 12.58361,-8.78129 3.26822,-2.3294 6.49278,-4.41657 7.16562,-4.63822 0.67284,-0.22176 1.22346,-0.83818 1.22346,-1.37003 0,-0.7222 -1.10659,-0.96259 -4.36933,-0.94909 -5.66009,0.0249 -17.47739,1.16174 -21.49695,2.07089 -1.73028,0.39129 -6.13446,1.3167 -9.78725,2.05628 -9.53956,1.93162 -21.24597,5.22115 -34.95435,9.82228 -10.00324,3.3576 -16.7781,5.47894 -16.7781,5.25362 0,-0.11067 3.06724,-2.2408 6.81606,-4.73321 15.39437,-10.23483 33.35734,-20.30523 58.54863,-32.82334 9.99696,-4.96771 18.69139,-9.30412 19.32099,-9.63649 0.62965,-0.33213 7.86512,-3.6271 16.07903,-7.32167 8.21387,-3.69461 15.56349,-7.00056 16.33243,-7.34665 0.76897,-0.34608 3.50849,-1.58957 6.08784,-2.76346 2.57934,-1.17384 4.85081,-2.13423 5.04772,-2.13423 0.19748,0 2.07735,-0.78649 4.17885,-1.74773 2.1015,-0.96124 3.98903,-1.74766 4.19454,-1.74766 0.20527,0 2.0345,-0.7496 4.06453,-1.66574 2.02997,-0.91615 4.47736,-1.89262 5.4387,-2.17007 0.96122,-0.27743 2.37684,-0.89578 3.14584,-1.37418 0.76894,-0.47839 2.65649,-1.27275 4.19454,-1.76511 1.53794,-0.49239 3.58283,-1.3184 4.54405,-1.83555 0.96126,-0.5172 4.73634,-2.07127 8.38904,-3.45346 3.65276,-1.3822 8.68618,-3.28586 11.1854,-4.2304 2.49925,-0.9446 5.48781,-2.18108 6.64135,-2.74783 1.15348,-0.56672 3.82744,-1.53455 5.9422,-2.15079 2.1148,-0.61621 4.1596,-1.36129 4.54405,-1.65562 0.38437,-0.29451 2.42936,-1.09045 4.54407,-1.76886 2.11478,-0.67853 4.15961,-1.4578 4.54414,-1.73178 0.38435,-0.27398 2.18734,-0.90074 4.00641,-1.39279 1.8191,-0.49208 3.69191,-1.35805 4.16197,-1.92428 0.92473,-1.11433 -0.42372,-1.08433 -25.99512,0.57882 -10.02104,0.65169 -43.25166,4.44493 -45.2798,5.16858 -0.48822,0.17418 -3.94872,0.80499 -7.68992,1.4018 -11.41414,1.82052 -27.87192,5.64187 -46.30073,10.75047 -2.88371,0.79943 -10.27653,3.20771 -16.42852,5.3517 -14.0011,4.87956 -14.51787,5.023 -12.11147,3.36192 1.02867,-0.70997 6.65298,-4.75147 12.49848,-8.98089 11.44056,-8.2778 17.18899,-12.37403 23.54299,-16.77632 4.15832,-2.88098 9.76005,-6.90745 11.06841,-7.95582 0.40854,-0.32766 1.4066,-0.95051 2.2175,-1.38451 0.81093,-0.43398 1.89216,-1.18453 2.4028,-1.66791 0.51059,-0.48337 3.23821,-2.45161 6.06136,-4.37389 6.81753,-4.64199 6.94973,-4.7339 16.09083,-11.18499 4.35856,-3.07596 8.91645,-6.28696 10.12855,-7.13547 1.21208,-0.84849 3.93401,-2.80748 6.04876,-4.3533 2.11477,-1.54578 6.67634,-4.70957 10.13679,-7.03058 3.46049,-2.32107 6.60636,-4.45177 6.9909,-4.73483 0.38431,-0.28301 1.48556,-0.9226 2.44684,-1.421 8.29437,-4.301 14.96138,-9.59038 10.4051,-8.25511 -2.67798,0.78479 -20.28081,5.38489 -23.33828,6.09894 -4.08507,0.95392 -26.2695,7.75044 -29.36167,8.9953 -0.769,0.30945 -4.38673,1.58054 -8.03945,2.82452 -11.56223,3.9375 -34.33762,12.96613 -39.50584,15.66096 -1.14946,0.59933 -2.30751,1.09163 -2.57342,1.09396 -2.26929,0.0186 -46.70167,22.5481 -59.28846,30.06018 -0.57671,0.34408 -6.71123,3.98875 -13.6322,8.0989 -6.92095,4.11026 -16.04406,9.74198 -20.27353,12.515 -9.57564,6.27818 -10.02418,6.53748 -9.02348,5.21667 0.42003,-0.55444 1.96316,-2.89557 3.42918,-5.20254 1.46604,-2.30702 4.39576,-6.86855 6.51063,-10.13677 15.08157,-23.30712 15.56405,-24.10132 14.79676,-24.35703 -1.10388,-0.36786 -16.73221,8.48962 -25.80709,14.6266 -13.84106,9.36005 -30.11316,23.89571 -42.97938,38.39296 -2.21809,2.49922 -3.84638,3.96844 -3.61851,3.2648 1.85275,-5.72015 1.97395,-24.24622 0.1583,-24.23062 -0.43545,0.003 -1.54193,2.28446 -2.45894,5.06841 -2.20179,6.68476 -8.0567,18.39014 -13.05952,26.10936 -3.70052,5.70955 -13.13024,17.75013 -17.18752,21.9461 -0.92949,0.96128 -3.09049,3.47795 -4.80222,5.59269 -1.71174,2.11474 -3.27386,4.00233 -3.47144,4.1945 -2.0834,2.0277 -9.29179,12.49464 -20.55917,29.85281 -2.10084,3.23645 -2.48845,1.61966 -1.45872,-6.08386 1.61547,-12.08553 1.64695,-12.58376 0.79435,-12.57907 -0.44403,0.003 -1.31829,0.86748 -1.94282,1.92239 -14.31099,24.17301 -19.09151,34.91142 -21.5433,48.39227 -2.34863,12.91398 -2.34903,12.48498 0.012,12.73298 l 2.05074,0.21522 -4.11844,5.49002 c -2.26515,3.01951 -4.78716,6.32269 -5.60449,7.34044 -3.39714,4.22993 -7.5872,9.68971 -9.10674,11.86619 -1.93682,2.77425 -2.53482,2.3859 -4.2847,-2.78304 -1.9954,-5.89436 -2.03956,-5.85944 -6.9011,5.468 -1.18283,2.75593 -2.15057,5.18461 -2.15057,5.39718 0,0.21243 -0.74322,2.04732 -1.6515,4.07735 -0.90836,2.03002 -2.7172,6.27893 -4.01974,9.44216 -2.10436,5.1102 -2.63552,5.84155 -4.7663,6.56232 -5.11887,1.73154 -10.35159,5.42672 -12.23454,8.63971 -6.06884,10.35574 -9.93199,33.62947 -8.18407,49.30505 1.21464,10.89286 2.81261,20.33723 4.25822,25.16705 0.74795,2.4993 1.70266,5.88116 2.12146,7.51527 0.41875,1.63408 1.15363,2.97115 1.633,2.97115 0.47948,0 1.88948,-2.064 3.1334,-4.58664 1.73656,-3.5215 2.54251,-4.5042 3.47072,-4.23182 0.66497,0.19501 2.46737,0.56776 4.00531,0.82804 1.53801,0.26031 3.42557,0.9905 4.19454,1.62285 4.2672,3.50848 10.18456,6.75695 16.85382,9.25225 5.18714,1.94079 11.68304,3.43969 12.29501,2.83718 0.26717,-0.2628 -1.09447,-2.83821 -3.02656,-5.72186 l -3.51293,-5.2432 10.71658,-0.47303 c 18.60388,-0.82131 33.47444,-4.18728 34.44127,-7.79585 0.12071,-0.45056 0.56924,-3.02137 0.9966,-5.71285 1.50359,-9.46841 7.11602,-17.7503 18.27258,-26.96336 6.70514,-5.53718 13.81701,-9.54847 21.76269,-12.27503 5.31246,-1.82286 6.72031,-2.00776 15.28893,-2.00776 7.38494,0 10.087,0.26591 12.42294,1.22339 4.89443,2.00574 5.05109,1.88721 5.07864,-3.84496 0.0333,-6.67012 1.53344,-14.64193 3.64352,-19.34606 l 1.70067,-3.79135 4.97221,5.88859 c 5.54429,6.56617 10.2227,13.44429 13.19742,19.40282 1.08813,2.17959 2.15794,4.1203 2.3773,4.31256 1.71044,1.49898 7.9103,20.43124 9.72974,29.71121 2.81388,14.35195 3.42476,34.72397 1.44055,48.04159 -3.68299,24.71981 -8.18558,41.02496 -17.33187,62.76373 -3.97478,9.4471 -13.63253,29.09468 -14.94819,30.41031 -0.82592,0.82578 0.0657,-1.7028 1.72502,-4.89359 7.8063,-15.00927 15.68199,-40.86336 19.80474,-65.01515 1.81229,-10.6165 1.91116,-12.37658 1.94345,-34.60482 0.0333,-22.59554 -0.037,-23.82519 -1.94157,-34.95435 -2.44692,-14.28598 -6.11986,-29.45624 -9.01309,-37.22643 -1.13762,-3.05518 -1.96534,-2.23247 -1.40673,1.39821 0.28084,1.82635 0.48747,9.14053 0.45868,16.25378 -0.0556,13.82215 -0.9806,20.13923 -4.96346,33.90568 -3.42555,11.84032 -11.42732,30.02753 -17.6114,40.02889 -12.54615,20.29062 -23.4626,34.51885 -39.64233,51.66938 -10.01832,10.61941 -25.96,25.60268 -35.36384,33.23789 -15.66327,12.71734 -28.95579,22.92086 -29.86006,22.92086 -0.4528,0 -0.0868,-0.33629 6.89946,-6.33491 5.60698,-4.81451 9.00534,-7.83025 15.70693,-13.93856 5.03003,-4.58467 21.08801,-20.61022 25.57825,-25.52653 5.51834,-6.04197 16.02313,-19.88253 18.56343,-24.45829 0.42693,-0.76897 2.07895,-3.66927 3.67115,-6.4451 4.14243,-7.22188 3.82594,-8.455 -0.98398,-3.8343 -8.19233,7.8699 -29.95918,23.73647 -42.50802,30.98539 -8.98136,5.18815 -23.58324,12.75543 -31.56133,16.35632 -2.30702,1.04123 -5.45292,2.46516 -6.99093,3.16422 -1.53791,0.69902 -5.78493,2.40128 -9.43761,3.78276 -3.65282,1.38153 -7.58514,2.93264 -8.73865,3.44689 -1.15348,0.5142 -3.98476,1.48054 -6.29177,2.14738 -2.30698,0.66683 -4.50912,1.44846 -4.89363,1.73696 -0.38425,0.2883 -2.27203,0.9319 -4.19448,1.4299 -1.92251,0.49795 -4.43923,1.29639 -5.59268,1.77418 -1.15354,0.47776 -4.29943,1.42228 -6.99088,2.09889 -2.69153,0.67671 -5.20822,1.41747 -5.59273,1.64622 -1.41199,0.84032 -22.25398,5.91015 -36.35258,8.84282 -18.72943,3.89604 -42.6359,7.52335 -64.665546,9.81174 -10.827793,1.12476 -63.616972,2.26272 -63.616972,1.3714 z M 279.62272,378.23892 c 0,-1.10821 6.98651,-15.03015 9.31137,-18.55471 7.92542,-12.01532 18.74825,-25.22027 26.59992,-32.45466 l 1.83941,-1.69475 v 4.61534 c 0,23.58096 -10.18283,41.15461 -27.01279,46.61896 -5.66505,1.83936 -10.73791,2.53371 -10.73791,1.46982 z"
         id="path2" /></g></g></svg>
