<?xml version="1.0" encoding="UTF-8" standalone="no"?>
<!-- Created with Inkscape (http://www.inkscape.org/) -->

<svg
   version="1.1"
   id="svg1"
   width="352"
   height="482"
   viewBox="0 0 352 482"
   sodipodi:docname="logo_liceo.svg"
   inkscape:version="1.3 (0e150ed, 2023-07-21)"
   inkscape:export-filename="logo_liceo.svg"
   inkscape:export-xdpi="96"
   inkscape:export-ydpi="96"
   xmlns:inkscape="http://www.inkscape.org/namespaces/inkscape"
   xmlns:sodipodi="http://sodipodi.sourceforge.net/DTD/sodipodi-0.dtd"
   xmlns="http://www.w3.org/2000/svg"
   xmlns:svg="http://www.w3.org/2000/svg">
  <defs
     id="defs1" />
  <sodipodi:namedview
     id="namedview1"
     pagecolor="#ffffff"
     bordercolor="#000000"
     borderopacity="0.25"
     inkscape:showpageshadow="2"
     inkscape:pageopacity="0.0"
     inkscape:pagecheckerboard="0"
     inkscape:deskcolor="#d1d1d1"
     showgrid="false"
     inkscape:zoom="1.3056"
     inkscape:cx="137.10172"
     inkscape:cy="278.79902"
     inkscape:window-width="1920"
     inkscape:window-height="1016"
     inkscape:window-x="0"
     inkscape:window-y="27"
     inkscape:window-maximized="1"
     inkscape:current-layer="g1"
     inkscape:export-bgcolor="#ffffffff" />
  <g
     inkscape:groupmode="layer"
     inkscape:label="Image"
     id="g1">
    <g
       id="g8"
       transform="translate(-81.861206,-70.361423)">
      <path
         style="fill:#a49d9c;stroke:none;stroke-opacity:1"
         d="M 150.36829,545.79084 C 148.17564,543.34902 141.91309,530.85039 134.68973,514.5 126.84499,496.74307 127.00972,497 123.46978,497 119.24983,497 117.72584,495.09427 112.5729,483.37364 101.88034,459.05284 92.831784,418.45704 89.085759,378 85.579385,340.13119 85.228875,265.41029 88.412612,234.5 93.59257,184.20876 103.87109,129.56981 116.15988,87 c 3.16611,-10.967782 4.17637,-13 6.46256,-13 2.34383,0 1.62862,7.513511 -2.67554,28.10737 -9.24252,44.22211 -10.06132,50.87573 -10.20089,82.89263 -0.14899,34.17859 2.02956,187.62113 2.74729,193.5 0.33573,2.75 1.29836,11.525 2.13916,19.5 3.08318,29.24378 4.15548,33.41778 16.82703,65.5 12.10699,30.65287 11.967,30.10387 7.9343,31.11601 -2.40503,0.60363 -2.55768,0.95763 -1.97747,4.58607 1.51186,9.45462 16.64664,33.82426 25.88583,41.6807 1.77059,1.5056 2.69092,3.16219 2.5,4.5 -0.26742,1.87388 -1.05349,2.15065 -6.83947,2.40806 -5.75174,0.25589 -6.78451,0.0156 -8.59439,-2 z m 48.46138,-34.52263 c -2.56868,-0.2042 -5.09919,-0.91059 -5.62337,-1.56975 -0.52417,-0.65915 -1.89328,-7.88218 -3.04246,-16.05116 -1.14918,-8.16899 -2.53322,-15.38745 -3.07564,-16.04103 -1.25033,-1.50655 -8.49771,-24.25981 -10.60058,-33.28067 -5.17522,-22.20059 -7.10825,-65.06762 -4.02876,-89.34195 6.49208,-51.17437 21.72447,-92.96994 51.38145,-140.98365 8.01751,-12.98008 19.91941,-29.50184 28.79842,-39.97683 1.17631,-1.38775 4.03437,-4.77317 6.35126,-7.52317 4.73002,-5.61425 21.74508,-23.15129 27.65171,-28.5 23.57751,-21.35046 52.18857,-40.391269 77.13564,-51.334162 17.60121,-7.720672 35.68315,-12.51204 38.7515,-10.268407 2.5543,1.867751 0.80798,4.260467 -7.90562,10.83186 -33.85558,25.532309 -72.31468,60.391569 -100.15742,90.782509 -12.17041,13.28427 -16.08856,17.6507 -21.08523,23.49762 -2.81568,3.29482 -7.68004,8.91558 -10.80969,12.49058 -8.81354,10.06774 -8.84763,9.92627 1.75883,7.29976 5.98145,-1.48121 12.29991,-2.28557 18.17029,-2.31314 8.40171,-0.0394 9.26113,-0.23984 12.92814,-3.01444 3.19986,-2.42114 4.90275,-2.97218 9.1849,-2.97218 2.89122,0 6.3762,-0.42561 7.7444,-0.9458 4.47066,-1.69974 5.04647,0.41259 3.649,13.38604 -0.96406,8.94983 -0.9709,12.53942 -0.0314,16.4558 0.66091,2.75496 0.91033,5.48039 0.55428,6.05649 -1.57143,2.54263 0.77872,0.51383 7.61732,-6.57575 10.61529,-11.00489 33.38667,-31.15277 47.32143,-41.86952 C 392.21013,183.55526 426.27877,159 427.66898,159 c 1.83505,0 1.67564,3.4691 -0.23216,5.05244 -3.8048,3.15769 -34.60948,43.25429 -47.93682,62.39645 -13.57139,19.49269 -30.45361,40.51115 -45.42236,56.55111 -5.90259,6.325 -12.15976,13.13441 -13.90481,15.13202 L 317,301.76403 l 0.0779,59.36799 c 0.0429,32.65239 0.42564,72.86798 0.85063,89.36798 0.45903,17.8213 0.40177,30.73162 -0.14105,31.80221 -0.72118,1.4224 -1.8933,1.73852 -5.56162,1.5 -4.56297,-0.29669 -4.67276,-0.3844 -6.0112,-4.80221 -1.04457,-3.44784 -1.42766,-15.02157 -1.63845,-49.5 -0.22757,-37.2211 -0.6497,-48.80302 -2.44198,-67 -1.19177,-12.1 -2.45183,-26.18253 -2.80013,-31.29452 -0.4592,-6.73961 -0.98106,-9.21356 -1.89847,-9 -0.69585,0.16199 -6.61817,5.46952 -13.1607,11.79452 -6.54253,6.325 -14.01995,13.45045 -16.61648,15.83434 C 263.16501,353.95982 255,367.87749 255,371.41136 c 0,0.80066 1.39685,3.70281 3.10411,6.44922 2.97601,4.78739 3.22582,7.58699 0.58665,6.57425 -0.68486,-0.26281 -2.35168,-2.26816 -3.70405,-4.45633 -1.35236,-2.18818 -2.69012,-3.96837 -2.97278,-3.956 -0.28266,0.0124 -2.48872,4.52957 -4.90235,10.03821 l -4.38841,10.01571 2.26493,2.41091 c 1.39432,1.48419 2.02019,3.04868 1.62823,4.07012 -0.5917,1.54193 -0.81885,1.53988 -3.21328,-0.029 -1.41712,-0.92853 -2.71401,-1.53978 -2.88197,-1.35833 -0.16797,0.18144 -1.55866,3.87763 -3.09043,8.21375 -2.72644,7.718 -2.74449,7.91299 -0.85784,9.26899 4.68199,3.3651 5.64894,4.52541 4.62478,5.54957 -0.7046,0.7046 -2.04814,0.51976 -4.26666,-0.58698 C 235.14992,422.72694 233.55619,422 233.3893,422 c -0.57035,0 -6.37345,19.66661 -8.52383,28.88712 -1.69821,7.28168 -2.48314,9.13605 -3.75616,8.87374 -2.44451,-0.5037 -1.63389,-5.81859 3.41648,-22.40045 5.69855,-18.71003 5.59412,-17.42934 1.53458,-18.81995 -1.8918,-0.64803 -3.61672,-1.70951 -3.83316,-2.35883 -0.60635,-1.81906 2.74395,-2.63099 5.91593,-1.4337 1.56652,0.59129 3.04841,0.75116 3.29309,0.35525 0.24468,-0.39591 1.79932,-4.43108 3.45475,-8.96706 l 3.00986,-8.24723 -4.45042,-3.13694 C 231.00269,393.02662 229,391.05318 229,390.36652 c 0,-2.5484 2.22887,-2.47992 6.07683,0.18673 2.17767,1.50912 4.24436,2.4589 4.59264,2.11061 C 240.65107,391.68226 249,372.99098 249,371.775 c 0,-0.59372 -2.72929,-5.33512 -6.06509,-10.53644 -3.3358,-5.20132 -5.81747,-10.10221 -5.51483,-10.89088 1.02799,-2.6789 4.21552,0.35498 9.06652,8.62947 2.58691,4.41257 4.84687,8.02285 5.02213,8.02285 0.7607,0 10.27781,-18.78409 10.89315,-21.5 3.46767,-15.30516 17.20003,-45.69644 28.01484,-62 l 7.29674,-11 0.69883,-20.33665 0.69883,-20.33666 -21.30556,0.37836 c -20.37708,0.36186 -21.67083,0.50405 -29.68719,3.26265 -7.94826,2.73516 -8.60991,3.19439 -12.79687,8.88197 -15.486,21.03625 -33.02733,55.54413 -43.19045,84.96571 -11.38518,32.95932 -14.53983,60.98149 -9.6925,86.09653 1.68403,8.72528 11.44169,44.14968 20.63906,74.92845 3.26081,10.91219 5.67575,20.24969 5.36655,20.75 -0.30921,0.5003 -1.54814,0.82853 -2.75318,0.72939 -1.20504,-0.0991 -4.29263,-0.34733 -6.86131,-0.55154 z m 14.7951,-376.73732 c -2.13138,-0.75973 -5.35469,-2.81527 -7.16292,-4.56786 l -3.28767,-3.18654 1.52325,-5.13825 c 4.56697,-15.40532 8.38739,-21.909961 18.76368,-31.946974 9.64159,-9.326331 17.24022,-13.012734 26.83849,-13.020447 18.92751,-0.01521 25.24071,6.84232 21.25864,23.091542 -4.0078,16.354149 -15.84427,28.971739 -32.25788,34.386619 -6.73325,2.22131 -19.96316,2.4181 -25.67559,0.38191 z m 26.01154,-4.85281 c 10.19541,-3.71981 18.37917,-10.42738 23.27274,-19.07479 3.41581,-6.03605 6.60486,-18.419587 5.68613,-22.080067 -0.35687,-1.421894 -2.04307,-3.433137 -3.74712,-4.469429 -4.0737,-2.477363 -13.36525,-4.060077 -18.36324,-3.127976 -12.1923,2.273807 -25.53361,15.090976 -34.33274,32.983902 -3.53745,7.19337 -4.01135,12.02976 -1.40208,14.30887 5.22233,4.56151 18.53995,5.23439 28.88631,1.45949 z"
         id="path14" />
      <path
         style="fill:#615d5a;stroke:#000000;stroke-opacity:1"
         d="m 151.30463,546.20943 c -1.09874,-0.6985 -4.82442,-8.20007 -19.354,-38.9687 -4.47001,-9.46593 -5.61404,-11.16495 -7.18271,-10.66707 -3.09251,0.98152 -6.25281,-2.02533 -9.70811,-9.23674 C 102.96546,462.09534 93.5242,419.70724 88.81354,369.5 c -1.824303,-19.44383 -1.822666,-117.35673 0.0022,-134 1.983511,-18.08974 7.7755,-58.20342 10.684814,-74 4.594016,-24.94391 13.944376,-64.412862 18.715446,-79 2.27703,-6.961827 4.94619,-9.355865 5.57115,-4.996919 0.15796,1.101695 -2.01143,12.801695 -4.82086,25.999999 -2.80942,13.19831 -5.98523,29.84692 -7.05735,36.99692 -2.76975,18.47167 -4.06543,50.72108 -2.75443,68.55773 0.58383,7.94325 1.19515,44.36727 1.35849,80.94227 0.3099,69.39184 0.60602,79.45825 3.08874,105 1.79238,18.43975 2.92637,26.2685 5.06972,35 1.53521,6.25407 9.75269,28.37077 16.34824,44 3.36603,7.97633 5.95161,15.67523 5.96944,17.77475 0.006,0.70111 -1.16288,1.72099 -2.5974,2.26639 -2.35189,0.89419 -2.54162,1.34661 -1.93059,4.60368 1.72352,9.18715 13.40732,28.99814 23.26464,39.44743 3.54276,3.7555 6.1522,7.29609 5.79876,7.86797 -0.73597,1.19081 -12.41683,1.39553 -14.21996,0.24921 z m 48.52004,-35.58765 c -3.12144,-0.61698 -5.9578,-1.40814 -6.30302,-1.75813 -0.34523,-0.35 -1.52957,-7.05962 -2.63187,-14.91028 -1.1023,-7.85065 -2.62563,-15.47567 -3.38518,-16.94447 -2.16902,-4.19442 -10.13401,-30.66313 -11.88906,-39.5089 -4.40361,-22.19498 -5.18514,-63.05821 -1.69957,-88.86395 3.49687,-25.88937 12.42584,-57.5481 23.6046,-83.69293 8.18432,-19.14146 27.09901,-52.65465 38.82282,-68.78661 17.62841,-24.25666 46.41485,-55.07048 66.30705,-70.97693 28.25631,-22.59466 62.10663,-40.732977 88.02848,-47.169083 C 400.00801,75.69419 403,75.785374 403,78.385994 c 0,0.79682 -7.5375,7.280569 -16.75,14.408332 -42.44509,32.840004 -82.02191,71.285864 -123.09453,119.576954 -5.08544,5.9792 -9.0312,11.08632 -8.76836,11.34916 0.26284,0.26284 4.67076,-0.5212 9.79539,-1.74232 6.04416,-1.44022 12.37562,-2.20708 18.0224,-2.18285 8.12955,0.0349 9.02131,-0.17192 13.49202,-3.12896 3.65571,-2.41797 5.97072,-3.19363 9.7951,-3.28192 2.75439,-0.0636 6.24548,-0.45354 7.75798,-0.86657 2.73049,-0.74565 2.74964,-0.71645 2.69865,4.1156 -0.0282,2.67662 -0.42887,8.01658 -0.89029,11.86658 -0.66094,5.5149 0.26147,19.02825 1.44938,21.2334 0.0691,0.12837 5.9457,-5.51977 13.059,-12.55144 20.9239,-20.68377 37.92514,-34.58894 77.67934,-63.53327 16.88588,-12.2943 21.77177,-15.19248 21.74525,-12.89869 -0.005,0.4125 -1.47338,2.325 -3.26358,4.25 -6.50375,6.99348 -25.82871,32.03618 -42.76074,55.41251 -26.07933,36.00506 -35.92403,48.12292 -59.34012,73.04188 l -7.47466,7.95438 0.54915,77.54562 c 0.30202,42.65008 0.60527,83.39561 0.67388,90.54561 l 0.12474,13 -4.69728,0.30264 -4.69728,0.30264 -1.30272,-4.30264 C 305.83217,475.5971 305.5713,467.23301 305.77963,446 c 0.15379,-15.675 -0.20081,-37.275 -0.78802,-48 -1.2211,-22.30284 -5.8107,-77.15242 -6.51472,-77.85644 -0.25832,-0.25832 -5.3088,4.285 -11.22328,10.09627 -5.91449,5.81128 -13.81249,13.3921 -17.55111,16.84628 -4.8378,4.46972 -8.08115,8.6352 -11.25,14.44854 -2.44888,4.49252 -4.4525,8.7478 -4.4525,9.45619 0,0.70838 1.35,3.48199 3,6.16358 1.65,2.6816 3,5.31887 3,5.8606 0,2.29365 -2.098,0.6739 -4.55287,-3.51502 -1.45044,-2.475 -2.9701,-4.5 -3.37702,-4.5 -0.40691,0 -2.88081,4.76939 -5.49755,10.59865 l -4.75771,10.59866 2.59258,2.70606 c 1.42591,1.48834 2.59257,3.01894 2.59257,3.40135 0,1.25904 -2.30916,0.72547 -4.17739,-0.96526 -1.00918,-0.91329 -2.06351,-1.43189 -2.34296,-1.15245 -0.27944,0.27945 -1.84822,4.18016 -3.48617,8.66824 -3.24262,8.88499 -3.14222,9.37948 2.59427,12.77747 3.25549,1.92838 0.59157,2.82322 -3.12647,1.05021 -3.45147,-1.64589 -3.52895,-1.63516 -4.38149,0.60722 -1.77802,4.67653 -5.45133,17.49323 -7.48857,26.12866 -1.18574,5.0261 -2.69402,9.11546 -3.45572,9.36936 -2.24684,0.74894 -0.60298,-6.34108 7.94835,-34.28157 1.41981,-4.63905 1.16673,-5.28653 -2.59846,-6.64804 -1.93303,-0.699 -3.3471,-1.74063 -3.14237,-2.31473 0.4036,-1.13179 1.7411,-1.15486 5.72588,-0.0988 2.44444,0.64785 2.72301,0.28711 5.75,-7.44607 1.7496,-4.46979 3.1811,-8.89189 3.1811,-9.82688 0,-0.93499 -1.8,-2.81245 -4,-4.17212 -2.2,-1.35967 -4,-3.04091 -4,-3.73607 0,-1.93062 1.79778,-1.51995 5.41111,1.23607 1.80272,1.375 3.57586,2.5 3.9403,2.5 C 240.06108,394 250,373.36827 250,371.89511 c 0,-0.48383 -2.7,-5.08966 -6,-10.23516 -3.3,-5.1455 -6,-9.91147 -6,-10.59104 0,-2.77581 2.68154,0.0227 7.64646,7.97991 2.88859,4.62953 5.61233,8.52455 6.05276,8.65561 1.24179,0.3695 10.82705,-20.2159 13.8314,-29.70443 6.82069,-21.54157 14.16732,-36.98284 26.60117,-55.91082 l 6.90826,-10.51639 -0.27002,-20.0364 L 298.5,231.5 l -20,0.0326 c -19.21086,0.0313 -20.36822,0.14706 -29.33226,2.93286 -8.97167,2.78817 -9.49737,3.11533 -13.60559,8.46738 -11.04514,14.38918 -25.88075,41.2293 -36.05661,65.23248 -17.21414,40.60533 -23.62577,77.81706 -18.14931,105.33466 2.46375,12.37962 14.26826,55.16278 23.2746,84.3543 3.22009,10.43699 3.68092,14.35064 1.65055,14.01748 -0.42976,-0.0705 -3.33528,-0.63301 -6.45671,-1.25 z m 17.43164,-375.67812 c -4.86501,-0.95979 -5.75402,-1.41404 -10.21814,-5.22108 l -3.25679,-2.77741 2.64003,-8.46749 c 3.77909,-12.12086 8.59994,-19.938589 17.47338,-28.335671 10.83312,-10.25157 19.07409,-13.770038 30.08925,-12.846566 12.40378,1.039888 18.6912,6.093168 18.31293,14.718329 -0.27597,6.292453 -4.80479,18.481148 -9.00784,24.243358 -10.3526,14.19297 -29.47104,21.9539 -46.03282,18.68653 z m 18.40729,-3.34222 c 13.09928,-3.48773 23.29308,-11.61123 28.79058,-22.94339 9.33668,-19.245949 5.28416,-28.056571 -12.93726,-28.127044 -6.85874,-0.02653 -8.81149,0.375805 -13.51692,2.784931 -9.48521,4.856321 -18.6958,15.152529 -25.26817,28.246453 -4.19137,8.35034 -5.2407,12.61827 -3.77548,15.35604 2.8756,5.37312 15.68165,7.61861 26.70725,4.68301 z"
         id="path13" />
      <path
         style="fill:#da052e;stroke:#000000;stroke-opacity:1"
         d="m 157.32201,546.20415 -6.17798,-0.29585 -3.46585,-6.70415 C 145.77197,535.51687 142.11468,527.775 139.55088,522 128.1645,496.35202 127.96038,496 124.4748,496 c -3.71239,0 -5.26956,-1.55059 -8.96984,-8.93193 C 103.83305,463.78487 92.523951,411.69388 89.546397,367.5 c -0.333505,-4.95 -1.038928,-15.3 -1.567606,-23 -1.759402,-25.62503 -1.213063,-79.53056 1.033781,-102 1.966142,-19.66228 2.352214,-22.96823 5.488712,-47 2.96158,-22.69154 13.962466,-77.11513 19.505986,-96.5 1.02235,-3.575 2.85422,-9.986577 4.07084,-14.247948 1.21661,-4.261371 2.82174,-8.253971 3.56695,-8.872445 2.70252,-2.242889 1.55914,5.857115 -5.16924,36.620393 -3.22133,14.72842 -6.1199,33.38573 -7.45061,47.9575 -1.213,13.28279 -1.17445,48.54637 0.0733,67.0425 0.44524,6.6 1.00458,41.7 1.24299,78 0.23841,36.3 0.65239,67.125 0.91996,68.5 0.26756,1.375 0.80267,7.45 1.18912,13.5 0.97353,15.24082 3.24515,32.41434 5.62167,42.5 1.10159,4.675 6.21108,19.075 11.35443,32 11.743,29.50963 11.95257,30.14163 10.33531,31.16827 -0.69409,0.44061 -1.82448,0.808 -2.51198,0.81642 -4.44156,0.0544 1.67444,16.58397 11.55245,31.22256 5.44164,8.06416 5.40039,8.01288 12.15169,15.10528 2.54827,2.67701 4.04588,5.00187 3.5,5.43333 -0.52478,0.41478 -3.73423,0.62101 -7.13213,0.45829 z m 42.69761,-35.94761 c -2.46421,-0.21673 -5.00065,-0.82583 -5.63653,-1.35357 -0.63588,-0.52773 -1.47118,-3.98429 -1.85621,-7.68124 -1.17921,-11.32239 -3.4846,-23.22372 -4.94544,-25.53032 -1.27952,-2.02029 -6.29188,-17.54959 -9.90621,-30.69141 -5.71361,-20.77482 -7.35321,-72.08997 -3.16321,-99 5.50218,-35.33749 17.22331,-70.5592 34.51445,-103.71509 C 247.12472,169.23123 305.85383,111.81813 369.38567,85.519047 384.22703,79.37545 403,75.148407 403,77.950228 c 0,1.126481 -3.80924,4.295134 -22.5,18.716249 -7.7,5.941043 -15.35,11.979073 -17,13.417853 -37.51944,32.71647 -64.27742,59.58177 -95.57687,95.96021 -11.9587,13.89924 -15.78145,18.96661 -14.28814,18.94011 0.47576,-0.008 4.46501,-0.96802 8.86501,-2.13238 5.13197,-1.35807 11.84794,-2.22226 18.73334,-2.41055 10.27134,-0.28088 10.92566,-0.43163 15.20151,-3.50232 3.62315,-2.60195 5.06936,-3.08856 7.64705,-2.57302 1.74838,0.34968 4.9231,0.11319 7.05493,-0.52552 2.13184,-0.63872 4.11112,-0.92624 4.39842,-0.63895 0.28729,0.28729 -0.006,5.64689 -0.65195,11.91022 -0.91918,8.91394 -0.90461,12.96999 0.0671,18.67059 l 1.24137,7.28272 16.26969,-15.8781 C 349.60126,218.46003 371.57032,200.35975 399,180.3663 c 23.20878,-16.91686 28.27042,-20.42921 28.74972,-19.94992 0.23079,0.23079 -6.03098,8.4903 -13.91505,18.35447 -14.2947,17.88484 -17.97971,22.79901 -37.6656,50.22915 -18.07458,25.18495 -26.89412,35.98485 -47.57327,58.25553 l -12.90419,13.89733 0.55869,90.42357 c 0.42003,67.98116 0.27216,90.44398 -0.5958,90.5058 -0.63498,0.0452 -2.36954,0.28261 -3.85458,0.52753 -1.96654,0.32432 -2.98984,-0.0961 -3.76662,-1.54753 -1.43187,-2.67547 -2.83403,-19.98424 -2.27329,-28.06223 1.25969,-18.14688 0.27907,-54.64635 -2.27024,-84.5 -1.45596,-17.05 -2.94927,-34.825 -3.31848,-39.5 -0.42678,-5.40392 -1.09446,-8.5 -1.83308,-8.5 -0.63898,0 -9.08002,7.39125 -18.75785,16.42499 -16.77393,15.65757 -17.8125,16.84936 -22.22818,25.50751 l -4.6321,9.08252 3.25655,5.29257 c 1.7911,2.91091 3.03345,5.51566 2.76078,5.78833 -0.27267,0.27267 -1.78763,-1.54906 -3.36658,-4.04829 -1.57896,-2.49923 -3.13478,-4.54486 -3.45738,-4.54584 -0.85709,-0.003 -9.93868,20.21309 -9.92503,22.09322 0.006,0.87726 0.91434,2.412 2.01771,3.41054 2.66704,2.41364 1.80859,3.07438 -1.32594,1.02056 l -2.49333,-1.63369 -3.09343,8.02153 C 233.21764,416.96421 233.20681,418.53847 237,420.5 c 1.65,0.85325 3,2.02651 3,2.60724 0,0.58073 -1.58106,0.0787 -3.51347,-1.11557 l -3.51347,-2.17144 -1.41237,3.38026 c -1.65088,3.95113 -5.6806,18.09425 -8.20567,28.79951 -1.08392,4.59538 -1.91129,6.6145 -2.13635,5.21357 -0.44672,-2.78066 1.78952,-11.92559 6.37786,-26.08182 1.89015,-5.83161 3.23458,-11.12948 2.98762,-11.77305 -0.24695,-0.64356 -1.82426,-1.47216 -3.50511,-1.84134 -1.68086,-0.36918 -3.35132,-1.1489 -3.71213,-1.73271 -0.59193,-0.95776 0.88637,-0.85483 7.94559,0.55328 0.7216,0.14394 7.66191,-16.67187 7.68022,-18.60854 0.004,-0.42383 -1.99893,-2.18471 -4.45096,-3.91306 -2.45203,-1.72835 -4.21155,-3.54161 -3.91004,-4.02946 0.30151,-0.48786 1.97022,0.1799 3.70824,1.48391 1.73802,1.30401 3.73708,2.71209 4.44236,3.12906 0.91662,0.54193 2.69899,-2.24522 6.25,-9.77335 C 247.76454,378.83417 250,373.13993 250,371.97261 c 0,-1.81298 -2.28558,-5.79135 -10.75616,-18.72261 -0.81062,-1.2375 -1.01804,-2.25 -0.46093,-2.25 0.5571,0 3.6268,4.08501 6.82153,9.0778 6.67013,10.42418 5.68972,10.62192 12.781,-2.5778 2.36381,-4.4 4.83554,-10.17706 5.49274,-12.83792 2.19408,-8.88346 11.2864,-32.05088 16.35076,-41.66208 2.75317,-5.225 8.12969,-14.20257 11.94783,-19.95016 l 6.94206,-10.45017 0.59439,-20.69725 0.59439,-20.69726 -8.89685,-0.7411 c -23.89854,-1.99074 -49.59912,2.88914 -55.21404,10.48373 -18.99882,25.69729 -39.57996,67.73743 -49.03805,100.16777 -6.27817,21.5269 -7.66754,30.83182 -7.59784,50.88444 0.0733,21.08704 -0.0936,20.28544 15.84436,76.11823 6.37715,22.34003 11.59481,41.12753 11.59481,41.75 0,0.62247 -0.5625,1.05315 -1.25,0.95706 -0.6875,-0.0961 -3.26617,-0.35203 -5.73038,-0.56875 z M 272.37468,340.7805 c 1.38581,-1.77073 2.32118,-3.41797 2.07861,-3.66054 -0.58802,-0.58802 -4.39609,2.90464 -5.5811,5.11885 -1.60888,3.00623 0.79023,2.00732 3.50249,-1.45831 z m -0.90403,-7.72375 c 0.83711,-1.61879 1.12483,-3.18872 0.63937,-3.48875 -0.48545,-0.30003 -1.10775,0.23693 -1.38288,1.19325 -0.27513,0.95631 -0.82443,2.52625 -1.22068,3.48875 -1.19107,2.89321 0.32833,1.97017 1.96419,-1.19325 z M 311.51066,261 313.5,258.5 l -2.25,1.90499 c -1.2375,1.04774 -2.25,2.36024 -2.25,2.91666 0,0.55643 0.1173,0.82418 0.26066,0.59502 0.14336,-0.22917 1.15586,-1.54167 2.25,-2.91667 z M 413,175.78756 c 0,-0.66683 1.2375,-2.22565 2.75,-3.46403 1.90594,-1.56052 2.2703,-2.26264 1.18709,-2.28757 -1.88438,-0.0434 -7.24822,5.31958 -6.28442,6.28337 C 411.7322,177.39887 413,177.11166 413,175.78756 Z M 399.72917,79.395833 c -0.33229,-0.332291 -1.1948,-0.367818 -1.91667,-0.07895 -0.79773,0.319226 -0.56078,0.556183 0.60417,0.604167 1.05416,0.04342 1.64479,-0.192928 1.3125,-0.52522 z m -184.9715,54.277317 c -3.60556,-1.13027 -5.6608,-2.6082 -8.6707,-6.2351 -1.23244,-1.48508 -1.07278,-2.74011 1.24936,-9.82037 4.65615,-14.19675 12.38099,-24.796876 24.07727,-33.039144 7.6342,-5.379757 11.19223,-6.579966 19.48562,-6.572959 12.05621,0.01019 19.3969,3.725497 20.65962,10.456364 0.825,4.397655 -2.04257,15.789479 -5.70358,22.658239 -5.76606,10.81824 -18.31712,20.13479 -30.65448,22.75456 -6.65837,1.41387 -15.57015,1.32599 -20.44311,-0.20159 z m 24.82364,-2.70113 C 254.00077,126.011 264.63562,114.49318 268.64065,99.5 c 2.09151,-7.829759 1.76011,-11.826517 -1.22843,-14.815055 -5.78168,-5.781678 -19.08306,-6.938211 -28.63029,-2.489358 -9.66475,4.503617 -20.5217,16.295395 -27.13997,29.476823 -4.00314,7.97295 -4.76063,12.60332 -2.6339,16.10045 1.6673,2.74164 3.47563,3.55522 12.49194,5.62013 3.32703,0.76196 12.33597,-0.44428 18.08131,-2.42097 z"
         id="path12" />
      <path
         style="fill:#a61934;stroke:none;stroke-opacity:1"
         d="m 157.32201,546.20415 -6.17798,-0.29585 -3.46585,-6.70415 C 145.77197,535.51687 142.11468,527.775 139.55088,522 128.1645,496.35202 127.96038,496 124.4748,496 c -3.71239,0 -5.26956,-1.55059 -8.96984,-8.93193 C 103.83305,463.78487 92.523951,411.69388 89.546397,367.5 c -0.333505,-4.95 -1.038928,-15.3 -1.567606,-23 -1.759402,-25.62503 -1.213063,-79.53056 1.033781,-102 1.966142,-19.66228 2.352214,-22.96823 5.488712,-47 2.96158,-22.69154 13.962466,-77.11513 19.505986,-96.5 1.02235,-3.575 2.85422,-9.986577 4.07084,-14.247948 1.21661,-4.261371 2.82174,-8.253971 3.56695,-8.872445 2.70252,-2.242889 1.55914,5.857115 -5.16924,36.620393 -3.22133,14.72842 -6.1199,33.38573 -7.45061,47.9575 -1.213,13.28279 -1.17445,48.54637 0.0733,67.0425 0.44524,6.6 1.00458,41.7 1.24299,78 0.23841,36.3 0.65239,67.125 0.91996,68.5 0.26756,1.375 0.80267,7.45 1.18912,13.5 0.97353,15.24082 3.24515,32.41434 5.62167,42.5 1.10159,4.675 6.21108,19.075 11.35443,32 11.743,29.50963 11.95257,30.14163 10.33531,31.16827 -0.69409,0.44061 -1.82448,0.808 -2.51198,0.81642 -4.44156,0.0544 1.67444,16.58397 11.55245,31.22256 5.44164,8.06416 5.40039,8.01288 12.15169,15.10528 2.54827,2.67701 4.04588,5.00187 3.5,5.43333 -0.52478,0.41478 -3.73423,0.62101 -7.13213,0.45829 z m 42.69761,-35.94761 c -2.46421,-0.21673 -5.00065,-0.82583 -5.63653,-1.35357 -0.63588,-0.52773 -1.47118,-3.98429 -1.85621,-7.68124 -1.17921,-11.32239 -3.4846,-23.22372 -4.94544,-25.53032 -1.27952,-2.02029 -6.29188,-17.54959 -9.90621,-30.69141 -5.71361,-20.77482 -7.35321,-72.08997 -3.16321,-99 5.50218,-35.33749 17.22331,-70.5592 34.51445,-103.71509 C 247.12472,169.23123 305.85383,111.81813 369.38567,85.519047 384.22703,79.37545 403,75.148407 403,77.950228 c 0,1.126481 -3.80924,4.295134 -22.5,18.716249 -7.7,5.941043 -15.35,11.979073 -17,13.417853 -37.51944,32.71647 -64.27742,59.58177 -95.57687,95.96021 -11.9587,13.89924 -15.78145,18.96661 -14.28814,18.94011 0.47576,-0.008 4.46501,-0.96802 8.86501,-2.13238 5.13197,-1.35807 11.84794,-2.22226 18.73334,-2.41055 10.27134,-0.28088 10.92566,-0.43163 15.20151,-3.50232 3.62315,-2.60195 5.06936,-3.08856 7.64705,-2.57302 1.74838,0.34968 4.9231,0.11319 7.05493,-0.52552 2.13184,-0.63872 4.11112,-0.92624 4.39842,-0.63895 0.28729,0.28729 -0.006,5.64689 -0.65195,11.91022 -0.91918,8.91394 -0.90461,12.96999 0.0671,18.67059 l 1.24137,7.28272 16.26969,-15.8781 C 349.60126,218.46003 371.57032,200.35975 399,180.3663 c 23.20878,-16.91686 28.27042,-20.42921 28.74972,-19.94992 0.23079,0.23079 -6.03098,8.4903 -13.91505,18.35447 -14.2947,17.88484 -17.97971,22.79901 -37.6656,50.22915 -18.07458,25.18495 -26.89412,35.98485 -47.57327,58.25553 l -12.90419,13.89733 0.55869,90.42357 c 0.42003,67.98116 0.27216,90.44398 -0.5958,90.5058 -0.63498,0.0452 -2.36954,0.28261 -3.85458,0.52753 -1.96654,0.32432 -2.98984,-0.0961 -3.76662,-1.54753 -1.43187,-2.67547 -2.83403,-19.98424 -2.27329,-28.06223 1.25969,-18.14688 0.27907,-54.64635 -2.27024,-84.5 -1.45596,-17.05 -2.94927,-34.825 -3.31848,-39.5 -0.42678,-5.40392 -1.09446,-8.5 -1.83308,-8.5 -0.63898,0 -9.08002,7.39125 -18.75785,16.42499 -16.77393,15.65757 -17.8125,16.84936 -22.22818,25.50751 l -4.6321,9.08252 3.25655,5.29257 c 1.7911,2.91091 3.03345,5.51566 2.76078,5.78833 -0.27267,0.27267 -1.78763,-1.54906 -3.36658,-4.04829 -1.57896,-2.49923 -3.13478,-4.54486 -3.45738,-4.54584 -0.85709,-0.003 -9.93868,20.21309 -9.92503,22.09322 0.006,0.87726 0.91434,2.412 2.01771,3.41054 2.66704,2.41364 1.80859,3.07438 -1.32594,1.02056 l -2.49333,-1.63369 -3.09343,8.02153 C 233.21764,416.96421 233.20681,418.53847 237,420.5 c 1.65,0.85325 3,2.02651 3,2.60724 0,0.58073 -1.58106,0.0787 -3.51347,-1.11557 l -3.51347,-2.17144 -1.41237,3.38026 c -1.65088,3.95113 -5.6806,18.09425 -8.20567,28.79951 -1.08392,4.59538 -1.91129,6.6145 -2.13635,5.21357 -0.44672,-2.78066 1.78952,-11.92559 6.37786,-26.08182 1.89015,-5.83161 3.23458,-11.12948 2.98762,-11.77305 -0.24695,-0.64356 -1.82426,-1.47216 -3.50511,-1.84134 -1.68086,-0.36918 -3.35132,-1.1489 -3.71213,-1.73271 -0.59193,-0.95776 0.88637,-0.85483 7.94559,0.55328 0.7216,0.14394 7.66191,-16.67187 7.68022,-18.60854 0.004,-0.42383 -1.99893,-2.18471 -4.45096,-3.91306 -2.45203,-1.72835 -4.21155,-3.54161 -3.91004,-4.02946 0.30151,-0.48786 1.97022,0.1799 3.70824,1.48391 1.73802,1.30401 3.73708,2.71209 4.44236,3.12906 0.91662,0.54193 2.69899,-2.24522 6.25,-9.77335 C 247.76454,378.83417 250,373.13993 250,371.97261 c 0,-1.81298 -2.28558,-5.79135 -10.75616,-18.72261 -0.81062,-1.2375 -1.01804,-2.25 -0.46093,-2.25 0.5571,0 3.6268,4.08501 6.82153,9.0778 6.67013,10.42418 5.68972,10.62192 12.781,-2.5778 2.36381,-4.4 4.83554,-10.17706 5.49274,-12.83792 2.19408,-8.88346 11.2864,-32.05088 16.35076,-41.66208 2.75317,-5.225 8.12969,-14.20257 11.94783,-19.95016 l 6.94206,-10.45017 0.59439,-20.69725 0.59439,-20.69726 -8.89685,-0.7411 c -23.89854,-1.99074 -49.59912,2.88914 -55.21404,10.48373 -18.99882,25.69729 -39.57996,67.73743 -49.03805,100.16777 -6.27817,21.5269 -7.66754,30.83182 -7.59784,50.88444 0.0733,21.08704 -0.0936,20.28544 15.84436,76.11823 6.37715,22.34003 11.59481,41.12753 11.59481,41.75 0,0.62247 -0.5625,1.05315 -1.25,0.95706 -0.6875,-0.0961 -3.26617,-0.35203 -5.73038,-0.56875 z m 1.43538,-7.71593 c -0.51203,-4.66446 -5.33412,-17.50631 -6.58216,-17.52914 -1.58525,-0.029 1.56138,19.02083 3.32152,20.10865 1.90729,1.17877 3.53209,-0.10663 3.26064,-2.57951 z m -6.88447,-25.30341 c -1.18277,-1.18278 -1.55797,0.56263 -0.82826,3.85308 l 0.75615,3.40972 0.32132,-3.34614 c 0.17672,-1.84037 0.0646,-3.60287 -0.24921,-3.91666 z M 312.39028,394.75 c -0.27699,-45.2375 -0.47812,-82.8125 -0.44695,-83.5 0.0984,-2.1702 -1.75736,-1.36931 -5.50057,2.37391 l -3.62391,3.62391 0.66433,12.12609 c 0.36538,6.66935 0.82389,13.25109 1.01892,14.62609 0.19503,1.375 0.8477,7.675 1.45038,14 0.60267,6.325 1.59589,16.225 2.20714,22 0.61126,5.775 1.19358,28.95 1.29406,51.5 0.13369,30.00468 0.50906,41.6034 1.39968,43.25 0.66936,1.2375 1.4023,2.25 1.62877,2.25 0.22647,0 0.18514,-37.0125 -0.0918,-82.25 z m -122.87387,66 c -0.3401,-1.2375 -1.4691,-5.175 -2.50889,-8.75 -1.03979,-3.575 -3.30852,-11.675 -5.04162,-18 -2.73915,-9.99664 -4.96905,-15.58874 -4.96453,-12.45 0.009,6.14721 7.18486,35.55909 9.56041,39.18463 1.92264,2.93432 3.75947,2.94387 2.95463,0.0154 z m -12.82708,-94.5 c -0.25153,-0.9625 -0.45733,-0.175 -0.45733,1.75 0,1.925 0.2058,2.7125 0.45733,1.75 0.25152,-0.9625 0.25152,-2.5375 0,-3.5 z M 183.0194,344 c 4.52949,-16.95484 12.2978,-37.96018 18.49129,-50 1.27318,-2.475 4.32811,-8.55 6.78873,-13.5 4.84983,-9.75633 17.4488,-31.68939 18.66892,-32.5 0.41393,-0.275 1.4988,-1.95643 2.41083,-3.7365 2.91465,-5.68876 7.58639,-10.17714 11.76367,-11.30196 2.18707,-0.58892 4.1895,-1.82642 4.47239,-2.76395 1.77727,-5.88994 5.66911,-10.77883 30.7278,-38.59999 3.91476,-4.34632 8.25157,-9.31318 9.63736,-11.03747 1.38578,-1.72429 5.21961,-5.87797 8.51961,-9.23039 3.3,-3.35242 10.98863,-11.21056 17.08584,-17.46253 12.02383,-12.32902 23.14646,-22.94284 33.91883,-32.36721 3.77201,-3.3 7.5748,-6.675 8.45064,-7.5 0.87585,-0.825 5.8567,-5.0064 11.06857,-9.292 5.21186,-4.2856 10.37612,-8.590541 11.47612,-9.566529 1.1,-0.975989 4.025,-3.159283 6.5,-4.851765 2.475,-1.692482 5.625,-4.286669 7,-5.76486 l 2.5,-2.687621 -3,0.68551 c -20.98374,4.794853 -49.4185,19.435765 -75,38.617115 -16.20248,12.14884 -24.00551,18.86716 -35.65617,30.69954 -12.55895,12.75486 -31.01765,34.33827 -34.77403,40.66061 -1.30711,2.2 -2.93532,4.46508 -3.61824,5.03351 -6.2756,5.22349 -29.78292,46.80632 -40.82142,72.21027 -11.39043,26.21389 -22.66679,70.3686 -22.53913,88.25622 l 0.0464,6.5 1.80561,-6 c 0.99309,-3.3 2.82746,-9.825 4.07639,-14.5 z m 89.35528,-3.2195 c 1.38581,-1.77073 2.32118,-3.41797 2.07861,-3.66054 -0.58802,-0.58802 -4.39609,2.90464 -5.5811,5.11885 -1.60888,3.00623 0.79023,2.00732 3.50249,-1.45831 z m -0.90403,-7.72375 c 0.83711,-1.61879 1.12483,-3.18872 0.63937,-3.48875 -0.48545,-0.30003 -1.10775,0.23693 -1.38288,1.19325 -0.27513,0.95631 -0.82443,2.52625 -1.22068,3.48875 -1.19107,2.89321 0.32833,1.97017 1.96419,-1.19325 z M 311.51066,261 313.5,258.5 l -2.25,1.90499 c -1.2375,1.04774 -2.25,2.36024 -2.25,2.91666 0,0.55643 0.1173,0.82418 0.26066,0.59502 0.14336,-0.22917 1.15586,-1.54167 2.25,-2.91667 z m -4.40058,-1.25 c 4.6338,-5.40023 5.15802,-7.49001 3.95049,-15.74833 -0.66091,-4.51997 -0.84503,-11.14735 -0.44347,-15.96241 0.54499,-6.53491 0.39744,-8.4166 -0.71522,-9.12107 -2.42717,-1.5367 -7.98343,-0.99631 -10.8669,1.0569 -4.7848,3.40708 -8.28601,4.28434 -16.53498,4.14297 -4.4,-0.0754 -8.675,0.3103 -9.5,0.85711 -1.90217,1.26076 -1.21318,1.33337 14.10281,1.48617 9.20784,0.0919 12.15179,0.47546 14.26241,1.85839 l 2.65959,1.74263 -0.64847,15.96882 c -0.6897,16.98427 -0.29926,18.41888 3.73374,13.71882 z M 413,175.78756 c 0,-0.66683 1.2375,-2.22565 2.75,-3.46403 1.90594,-1.56052 2.2703,-2.26264 1.18709,-2.28757 -1.88438,-0.0434 -7.24822,5.31958 -6.28442,6.28337 C 411.7322,177.39887 413,177.11166 413,175.78756 Z M 399.72917,79.395833 c -0.33229,-0.332291 -1.1948,-0.367818 -1.91667,-0.07895 -0.79773,0.319226 -0.56078,0.556183 0.60417,0.604167 1.05416,0.04342 1.64479,-0.192928 1.3125,-0.52522 z m -184.9715,54.277317 c -3.60556,-1.13027 -5.6608,-2.6082 -8.6707,-6.2351 -1.23244,-1.48508 -1.07278,-2.74011 1.24936,-9.82037 4.65615,-14.19675 12.38099,-24.796876 24.07727,-33.039144 7.6342,-5.379757 11.19223,-6.579966 19.48562,-6.572959 12.05621,0.01019 19.3969,3.725497 20.65962,10.456364 0.825,4.397655 -2.04257,15.789479 -5.70358,22.658239 -5.76606,10.81824 -18.31712,20.13479 -30.65448,22.75456 -6.65837,1.41387 -15.57015,1.32599 -20.44311,-0.20159 z m 24.82364,-2.70113 C 254.00077,126.011 264.63562,114.49318 268.64065,99.5 c 2.09151,-7.829759 1.76011,-11.826517 -1.22843,-14.815055 -5.78168,-5.781678 -19.08306,-6.938211 -28.63029,-2.489358 -9.66475,4.503617 -20.5217,16.295395 -27.13997,29.476823 -4.00314,7.97295 -4.76063,12.60332 -2.6339,16.10045 1.6673,2.74164 3.47563,3.55522 12.49194,5.62013 3.32703,0.76196 12.33597,-0.44428 18.08131,-2.42097 z"
         id="path11" />
      <path
         style="fill:#3b8125;stroke:none;stroke-opacity:1"
         d="m 157.32201,546.20415 -6.17798,-0.29585 -3.46585,-6.70415 C 145.77197,535.51687 142.11468,527.775 139.55088,522 128.1645,496.35202 127.96038,496 124.4748,496 c -3.71239,0 -5.26956,-1.55059 -8.96984,-8.93193 C 103.83305,463.78487 92.523951,411.69388 89.546397,367.5 c -0.333505,-4.95 -1.038928,-15.3 -1.567606,-23 -1.759402,-25.62503 -1.213063,-79.53056 1.033781,-102 1.966142,-19.66228 2.352214,-22.96823 5.488712,-47 2.96158,-22.69154 13.962466,-77.11513 19.505986,-96.5 1.02235,-3.575 2.85422,-9.986577 4.07084,-14.247948 1.21661,-4.261371 2.82174,-8.253971 3.56695,-8.872445 2.70252,-2.242889 1.55914,5.857115 -5.16924,36.620393 -3.22133,14.72842 -6.1199,33.38573 -7.45061,47.9575 -1.213,13.28279 -1.17445,48.54637 0.0733,67.0425 0.44524,6.6 1.00458,41.7 1.24299,78 0.23841,36.3 0.65239,67.125 0.91996,68.5 0.26756,1.375 0.80267,7.45 1.18912,13.5 0.97353,15.24082 3.24515,32.41434 5.62167,42.5 1.10159,4.675 6.21108,19.075 11.35443,32 11.743,29.50963 11.95257,30.14163 10.33531,31.16827 -0.69409,0.44061 -1.82448,0.808 -2.51198,0.81642 -4.44156,0.0544 1.67444,16.58397 11.55245,31.22256 5.44164,8.06416 5.40039,8.01288 12.15169,15.10528 2.54827,2.67701 4.04588,5.00187 3.5,5.43333 -0.52478,0.41478 -3.73423,0.62101 -7.13213,0.45829 z m 42.69761,-35.94761 c -2.46421,-0.21673 -5.00065,-0.82583 -5.63653,-1.35357 -0.63588,-0.52773 -1.47118,-3.98429 -1.85621,-7.68124 -1.17921,-11.32239 -3.4846,-23.22372 -4.94544,-25.53032 -1.27952,-2.02029 -6.29188,-17.54959 -9.90621,-30.69141 -5.71361,-20.77482 -7.35321,-72.08997 -3.16321,-99 5.50218,-35.33749 17.22331,-70.5592 34.51445,-103.71509 C 247.12472,169.23123 305.85383,111.81813 369.38567,85.519047 384.22703,79.37545 403,75.148407 403,77.950228 c 0,1.126481 -3.80924,4.295134 -22.5,18.716249 -7.7,5.941043 -15.35,11.979073 -17,13.417853 -37.51944,32.71647 -64.27742,59.58177 -95.57687,95.96021 -11.9587,13.89924 -15.78145,18.96661 -14.28814,18.94011 0.47576,-0.008 4.46501,-0.96802 8.86501,-2.13238 5.13197,-1.35807 11.84794,-2.22226 18.73334,-2.41055 10.27134,-0.28088 10.92566,-0.43163 15.20151,-3.50232 3.62315,-2.60195 5.06936,-3.08856 7.64705,-2.57302 1.74838,0.34968 4.9231,0.11319 7.05493,-0.52552 2.13184,-0.63872 4.11112,-0.92624 4.39842,-0.63895 0.28729,0.28729 -0.006,5.64689 -0.65195,11.91022 -0.91918,8.91394 -0.90461,12.96999 0.0671,18.67059 l 1.24137,7.28272 16.26969,-15.8781 C 349.60126,218.46003 371.57032,200.35975 399,180.3663 c 23.20878,-16.91686 28.27042,-20.42921 28.74972,-19.94992 0.23079,0.23079 -6.03098,8.4903 -13.91505,18.35447 -14.2947,17.88484 -17.97971,22.79901 -37.6656,50.22915 -18.07458,25.18495 -26.89412,35.98485 -47.57327,58.25553 l -12.90419,13.89733 0.55869,90.42357 c 0.42003,67.98116 0.27216,90.44398 -0.5958,90.5058 -0.63498,0.0452 -2.36954,0.28261 -3.85458,0.52753 -1.96654,0.32432 -2.98984,-0.0961 -3.76662,-1.54753 -1.43187,-2.67547 -2.83403,-19.98424 -2.27329,-28.06223 1.25969,-18.14688 0.27907,-54.64635 -2.27024,-84.5 -1.45596,-17.05 -2.94927,-34.825 -3.31848,-39.5 -0.42678,-5.40392 -1.09446,-8.5 -1.83308,-8.5 -0.63898,0 -9.08002,7.39125 -18.75785,16.42499 -16.77393,15.65757 -17.8125,16.84936 -22.22818,25.50751 l -4.6321,9.08252 3.25655,5.29257 c 1.7911,2.91091 3.03345,5.51566 2.76078,5.78833 -0.27267,0.27267 -1.78763,-1.54906 -3.36658,-4.04829 -1.57896,-2.49923 -3.13478,-4.54486 -3.45738,-4.54584 -0.85709,-0.003 -9.93868,20.21309 -9.92503,22.09322 0.006,0.87726 0.91434,2.412 2.01771,3.41054 2.66704,2.41364 1.80859,3.07438 -1.32594,1.02056 l -2.49333,-1.63369 -3.09343,8.02153 C 233.21764,416.96421 233.20681,418.53847 237,420.5 c 1.65,0.85325 3,2.02651 3,2.60724 0,0.58073 -1.58106,0.0787 -3.51347,-1.11557 l -3.51347,-2.17144 -1.41237,3.38026 c -1.65088,3.95113 -5.6806,18.09425 -8.20567,28.79951 -1.08392,4.59538 -1.91129,6.6145 -2.13635,5.21357 -0.44672,-2.78066 1.78952,-11.92559 6.37786,-26.08182 1.89015,-5.83161 3.23458,-11.12948 2.98762,-11.77305 -0.24695,-0.64356 -1.82426,-1.47216 -3.50511,-1.84134 -1.68086,-0.36918 -3.35132,-1.1489 -3.71213,-1.73271 -0.59193,-0.95776 0.88637,-0.85483 7.94559,0.55328 0.7216,0.14394 7.66191,-16.67187 7.68022,-18.60854 0.004,-0.42383 -1.99893,-2.18471 -4.45096,-3.91306 -2.45203,-1.72835 -4.21155,-3.54161 -3.91004,-4.02946 0.30151,-0.48786 1.97022,0.1799 3.70824,1.48391 1.73802,1.30401 3.73708,2.71209 4.44236,3.12906 0.91662,0.54193 2.69899,-2.24522 6.25,-9.77335 C 247.76454,378.83417 250,373.13993 250,371.97261 c 0,-1.81298 -2.28558,-5.79135 -10.75616,-18.72261 -0.81062,-1.2375 -1.01804,-2.25 -0.46093,-2.25 0.5571,0 3.6268,4.08501 6.82153,9.0778 6.67013,10.42418 5.68972,10.62192 12.781,-2.5778 2.36381,-4.4 4.83554,-10.17706 5.49274,-12.83792 2.19408,-8.88346 11.2864,-32.05088 16.35076,-41.66208 2.75317,-5.225 8.12969,-14.20257 11.94783,-19.95016 l 6.94206,-10.45017 0.59439,-20.69725 0.59439,-20.69726 -8.89685,-0.7411 c -23.89854,-1.99074 -49.59912,2.88914 -55.21404,10.48373 -18.99882,25.69729 -39.57996,67.73743 -49.03805,100.16777 -6.27817,21.5269 -7.66754,30.83182 -7.59784,50.88444 0.0733,21.08704 -0.0936,20.28544 15.84436,76.11823 6.37715,22.34003 11.59481,41.12753 11.59481,41.75 0,0.62247 -0.5625,1.05315 -1.25,0.95706 -0.6875,-0.0961 -3.26617,-0.35203 -5.73038,-0.56875 z M 204,505.67109 c 0,-0.73091 -2.06938,-8.49341 -4.59863,-17.25 -20.403,-70.63803 -21.69253,-76.35848 -21.73576,-96.42109 -0.0172,-7.975 0.54677,-18.1 1.25323,-22.5 2.34351,-14.59596 10.61913,-43.72755 15.62426,-55 0.73262,-1.65 2.53416,-5.91543 4.00343,-9.47873 2.34137,-5.67839 18.25202,-37.53763 20.95347,-41.95693 14.2348,-23.28668 16.70164,-26.50159 21.74476,-28.33886 5.18968,-1.89067 11.72745,-3.98264 13.75524,-4.40143 11.03749,-2.27955 39.95952,-3.05034 44.83944,-1.19499 l 2.47226,0.93994 -0.61414,18.4655 c -0.33778,10.15603 -0.22744,18.4655 0.2452,18.4655 0.47265,0 3.24446,-2.75317 6.1596,-6.11816 l 5.30025,-6.11815 -0.4513,-6.63185 c -0.57958,-8.51674 -0.27926,-26.68906 0.49185,-29.76138 C 314.02211,216.06374 313.8681,216 307.71605,216 c -5.5302,0 -6.86339,0.39811 -10.64413,3.1785 -4.21185,3.09742 -4.61857,3.18434 -15.947,3.40785 -11.5489,0.22787 -18.80468,1.70207 -28.52846,5.7963 -9.8662,4.1542 -6.14142,-0.9433 31.03715,-42.47562 15.41731,-17.22272 42.64863,-44.79561 56.83468,-57.54755 6.03256,-5.42272 11.69515,-10.53448 12.58354,-11.35948 5.5457,-5.15003 19.44357,-16.41711 40.39691,-32.75 7.3103,-5.698291 7.08871,-5.96662 -3.14893,-3.813067 C 380.58294,82.48094 370.24837,86.374796 357,92.98363 c -19.17613,9.56585 -28.04206,15.11517 -49.5,30.98282 -11.33006,8.37832 -39.80515,35.5653 -46.64352,44.53355 -1.25814,1.65 -2.53634,3.225 -2.84043,3.5 -0.90655,0.8198 -10.37488,12.44253 -12.27563,15.0688 -10.50793,14.51873 -13.92791,19.43806 -17.6801,25.4312 -2.41042,3.85 -5.38186,8.575 -6.6032,10.5 -5.9048,9.30674 -18.70138,34.68348 -24.4568,48.5 -8.29763,19.91936 -17.41382,51.92832 -20.7121,72.72481 C 174.86089,353.2245 174.5,361.55446 174.5,385.5 c 0,30.20947 1.04009,44.45817 4.10717,56.26588 3.48444,13.41452 6.58191,22.23412 7.80869,22.23412 1.43464,0 3.25088,7.78809 6.64641,28.5 1.17217,7.15 2.33924,13.3375 2.59349,13.75 C 196.5015,507.62214 204,507.1019 204,505.67109 Z M 314.66277,437.83601 C 314.29825,414.64582 314,375.49582 314,350.83601 314,313.7818 313.76483,306 312.64506,306 c -0.74522,0 -3.67022,2.44806 -6.5,5.44014 -3.70008,3.91229 -5.14149,6.22928 -5.13236,8.25 0.0118,2.61885 0.56289,9.33164 4.41729,53.80986 2.45725,28.35565 3.1026,53.80131 2.02895,80 -0.36175,8.8273 0.56767,19.55232 2.14483,24.75 0.32793,1.08075 1.52355,1.75 3.12639,1.75 h 2.59538 z M 272.37468,340.7805 c 1.38581,-1.77073 2.32118,-3.41797 2.07861,-3.66054 -0.58802,-0.58802 -4.39609,2.90464 -5.5811,5.11885 -1.60888,3.00623 0.79023,2.00732 3.50249,-1.45831 z m -0.90403,-7.72375 c 0.83711,-1.61879 1.12483,-3.18872 0.63937,-3.48875 -0.48545,-0.30003 -1.10775,0.23693 -1.38288,1.19325 -0.27513,0.95631 -0.82443,2.52625 -1.22068,3.48875 -1.19107,2.89321 0.32833,1.97017 1.96419,-1.19325 z M 311.51066,261 313.5,258.5 l -2.25,1.90499 c -1.2375,1.04774 -2.25,2.36024 -2.25,2.91666 0,0.55643 0.1173,0.82418 0.26066,0.59502 0.14336,-0.22917 1.15586,-1.54167 2.25,-2.91667 z M 413,175.78756 c 0,-0.66683 1.2375,-2.22565 2.75,-3.46403 1.90594,-1.56052 2.2703,-2.26264 1.18709,-2.28757 -1.88438,-0.0434 -7.24822,5.31958 -6.28442,6.28337 C 411.7322,177.39887 413,177.11166 413,175.78756 Z M 214.75767,133.67315 c -3.60556,-1.13027 -5.6608,-2.6082 -8.6707,-6.2351 -1.23244,-1.48508 -1.07278,-2.74011 1.24936,-9.82037 4.65615,-14.19675 12.38099,-24.796876 24.07727,-33.039144 7.6342,-5.379757 11.19223,-6.579966 19.48562,-6.572959 12.05621,0.01019 19.3969,3.725497 20.65962,10.456364 0.825,4.397655 -2.04257,15.789479 -5.70358,22.658239 -5.76606,10.81824 -18.31712,20.13479 -30.65448,22.75456 -6.65837,1.41387 -15.57015,1.32599 -20.44311,-0.20159 z m 24.82364,-2.70113 C 254.00077,126.011 264.63562,114.49318 268.64065,99.5 c 2.09151,-7.829759 1.76011,-11.826517 -1.22843,-14.815055 -5.78168,-5.781678 -19.08306,-6.938211 -28.63029,-2.489358 -9.66475,4.503617 -20.5217,16.295395 -27.13997,29.476823 -4.00314,7.97295 -4.76063,12.60332 -2.6339,16.10045 1.6673,2.74164 3.47563,3.55522 12.49194,5.62013 3.32703,0.76196 12.33597,-0.44428 18.08131,-2.42097 z"
         id="path10" />
      <path
         style="fill:#5a121d;stroke:#000000;stroke-opacity:1"
         d="m 157.32201,546.20415 -6.17798,-0.29585 -3.46585,-6.70415 C 145.77197,535.51687 142.11468,527.775 139.55088,522 128.1645,496.35202 127.96038,496 124.4748,496 c -3.71239,0 -5.26956,-1.55059 -8.96984,-8.93193 C 103.83305,463.78487 92.523951,411.69388 89.546397,367.5 c -0.333505,-4.95 -1.038928,-15.3 -1.567606,-23 -1.759402,-25.62503 -1.213063,-79.53056 1.033781,-102 1.966142,-19.66228 2.352214,-22.96823 5.488712,-47 2.96158,-22.69154 13.962466,-77.11513 19.505986,-96.5 1.02235,-3.575 2.85422,-9.986577 4.07084,-14.247948 1.21661,-4.261371 2.82174,-8.253971 3.56695,-8.872445 2.70252,-2.242889 1.55914,5.857115 -5.16924,36.620393 -3.22133,14.72842 -6.1199,33.38573 -7.45061,47.9575 -1.213,13.28279 -1.17445,48.54637 0.0733,67.0425 0.44524,6.6 1.00458,41.7 1.24299,78 0.23841,36.3 0.65239,67.125 0.91996,68.5 0.26756,1.375 0.80267,7.45 1.18912,13.5 0.97353,15.24082 3.24515,32.41434 5.62167,42.5 1.10159,4.675 6.21108,19.075 11.35443,32 11.743,29.50963 11.95257,30.14163 10.33531,31.16827 -0.69409,0.44061 -1.82448,0.808 -2.51198,0.81642 -4.44156,0.0544 1.67444,16.58397 11.55245,31.22256 5.44164,8.06416 5.40039,8.01288 12.15169,15.10528 2.54827,2.67701 4.04588,5.00187 3.5,5.43333 -0.52478,0.41478 -3.73423,0.62101 -7.13213,0.45829 z m 42.69761,-35.94761 c -2.46421,-0.21673 -5.00065,-0.82583 -5.63653,-1.35357 -0.63588,-0.52773 -1.47118,-3.98429 -1.85621,-7.68124 -1.17921,-11.32239 -3.4846,-23.22372 -4.94544,-25.53032 -1.27952,-2.02029 -6.29188,-17.54959 -9.90621,-30.69141 -5.71361,-20.77482 -7.35321,-72.08997 -3.16321,-99 5.50218,-35.33749 17.22331,-70.5592 34.51445,-103.71509 C 247.12472,169.23123 305.85383,111.81813 369.38567,85.519047 384.22703,79.37545 403,75.148407 403,77.950228 c 0,1.126481 -3.80924,4.295134 -22.5,18.716249 -7.7,5.941043 -15.35,11.979073 -17,13.417853 -37.51944,32.71647 -64.27742,59.58177 -95.57687,95.96021 -11.9587,13.89924 -15.78145,18.96661 -14.28814,18.94011 0.47576,-0.008 4.46501,-0.96802 8.86501,-2.13238 5.13197,-1.35807 11.84794,-2.22226 18.73334,-2.41055 10.27134,-0.28088 10.92566,-0.43163 15.20151,-3.50232 3.62315,-2.60195 5.06936,-3.08856 7.64705,-2.57302 1.74838,0.34968 4.9231,0.11319 7.05493,-0.52552 2.13184,-0.63872 4.11112,-0.92624 4.39842,-0.63895 0.28729,0.28729 -0.006,5.64689 -0.65195,11.91022 -0.91918,8.91394 -0.90461,12.96999 0.0671,18.67059 l 1.24137,7.28272 16.3447,-15.95131 c 15.48049,-15.1079 38.36366,-34.13794 61.75872,-51.35961 19.27485,-14.18868 33.01679,-23.77591 33.45348,-23.33921 0.23754,0.23754 -5.81957,8.22877 -13.46024,17.75829 -13.60102,16.96331 -17.83111,22.60636 -41.62321,55.52645 -6.43948,8.91003 -12.26098,16.79614 -12.93667,17.52469 -0.67569,0.72856 -2.78387,3.33853 -4.68486,5.79995 -4.96653,6.43073 -21.47194,25.05703 -30.99282,34.97531 l -8.15942,8.5 0.4571,90.75 c 0.34295,68.08859 0.16923,90.77053 -0.69571,90.83223 -0.63405,0.0452 -2.36785,0.28261 -3.85289,0.52753 -1.96654,0.32432 -2.98984,-0.0961 -3.76662,-1.54753 -1.43187,-2.67547 -2.83403,-19.98424 -2.27329,-28.06223 1.2555,-18.08654 0.28121,-54.62826 -2.23964,-84 -1.43972,-16.775 -2.88838,-34.45272 -3.21924,-39.28382 -0.33085,-4.8311 -1.00872,-9.03546 -1.50636,-9.34302 -0.49765,-0.30756 -3.2434,1.62016 -6.10167,4.28382 -31.45978,29.31781 -30.50884,28.3009 -35.36027,37.81346 l -4.61275,9.04458 3.25655,5.29257 c 1.7911,2.91091 3.03345,5.51566 2.76078,5.78833 -0.27267,0.27267 -1.78763,-1.54906 -3.36658,-4.04829 -1.57896,-2.49923 -3.13478,-4.54486 -3.45738,-4.54584 -0.85709,-0.003 -9.93868,20.21309 -9.92503,22.09322 0.006,0.87726 0.91434,2.412 2.01771,3.41054 2.66704,2.41364 1.80859,3.07438 -1.32594,1.02056 l -2.49333,-1.63369 -3.09343,8.02153 C 233.21764,416.96421 233.20681,418.53847 237,420.5 c 1.65,0.85325 3,2.02651 3,2.60724 0,0.58073 -1.58106,0.0787 -3.51347,-1.11557 l -3.51347,-2.17144 -1.41237,3.38026 c -1.65088,3.95113 -5.6806,18.09425 -8.20567,28.79951 -1.08392,4.59538 -1.91129,6.6145 -2.13635,5.21357 -0.44672,-2.78066 1.78952,-11.92559 6.37786,-26.08182 1.89015,-5.83161 3.23458,-11.12948 2.98762,-11.77305 -0.24695,-0.64356 -1.82426,-1.47216 -3.50511,-1.84134 -1.68086,-0.36918 -3.35132,-1.1489 -3.71213,-1.73271 -0.59193,-0.95776 0.88637,-0.85483 7.94559,0.55328 0.7216,0.14394 7.66191,-16.67187 7.68022,-18.60854 0.004,-0.42383 -1.99893,-2.18471 -4.45096,-3.91306 -2.45203,-1.72835 -4.21155,-3.54161 -3.91004,-4.02946 0.30151,-0.48786 1.97022,0.1799 3.70824,1.48391 1.73802,1.30401 3.73708,2.71209 4.44236,3.12906 0.91662,0.54193 2.69899,-2.24522 6.25,-9.77335 C 247.76454,378.83417 250,373.13993 250,371.97261 c 0,-1.81298 -2.28558,-5.79135 -10.75616,-18.72261 -0.81062,-1.2375 -1.01804,-2.25 -0.46093,-2.25 0.5571,0 3.62277,4.07871 6.81258,9.0638 5.61578,8.77645 5.84887,8.99766 7.35208,6.97759 3.52721,-4.74002 10.07498,-19.2728 13.53519,-30.04139 6.80674,-21.18338 14.08453,-36.46308 25.69671,-53.95016 l 6.93936,-10.45017 0.59439,-20.69725 0.59439,-20.69726 -8.89685,-0.7411 c -23.89854,-1.99074 -49.59912,2.88914 -55.21404,10.48373 -18.99882,25.69729 -39.57996,67.73743 -49.03805,100.16777 -6.27817,21.5269 -7.66754,30.83182 -7.59784,50.88444 0.0733,21.08704 -0.0936,20.28544 15.84436,76.11823 6.37715,22.34003 11.59481,41.12753 11.59481,41.75 0,0.62247 -0.5625,1.05315 -1.25,0.95706 -0.6875,-0.0961 -3.26617,-0.35203 -5.73038,-0.56875 z M 204,505.67109 c 0,-0.73091 -2.06938,-8.49341 -4.59863,-17.25 -20.403,-70.63803 -21.69253,-76.35848 -21.73576,-96.42109 -0.0172,-7.975 0.54677,-18.1 1.25323,-22.5 2.34351,-14.59596 10.61913,-43.72755 15.62426,-55 0.73262,-1.65 2.53416,-5.91543 4.00343,-9.47873 2.34137,-5.67839 18.25202,-37.53763 20.95347,-41.95693 14.2348,-23.28668 16.70164,-26.50159 21.74476,-28.33886 5.18968,-1.89067 11.72745,-3.98264 13.75524,-4.40143 11.03749,-2.27955 39.95952,-3.05034 44.83944,-1.19499 l 2.47226,0.93994 -0.61414,18.4655 c -0.33778,10.15603 -0.22744,18.4655 0.2452,18.4655 0.47265,0 3.24446,-2.75317 6.1596,-6.11816 l 5.30025,-6.11815 -0.4513,-6.63185 c -0.57958,-8.51674 -0.27926,-26.68906 0.49185,-29.76138 C 314.02211,216.06374 313.8681,216 307.71605,216 c -5.5302,0 -6.86339,0.39811 -10.64413,3.1785 -4.21185,3.09742 -4.61857,3.18434 -15.947,3.40785 -11.5489,0.22787 -18.80468,1.70207 -28.52846,5.7963 -9.8662,4.1542 -6.14142,-0.9433 31.03715,-42.47562 15.41731,-17.22272 42.64863,-44.79561 56.83468,-57.54755 6.03256,-5.42272 11.69515,-10.53448 12.58354,-11.35948 5.5457,-5.15003 19.44357,-16.41711 40.39691,-32.75 7.3103,-5.698291 7.08871,-5.96662 -3.14893,-3.813067 C 380.58294,82.48094 370.24837,86.374796 357,92.98363 c -19.17613,9.56585 -28.04206,15.11517 -49.5,30.98282 -11.33006,8.37832 -39.80515,35.5653 -46.64352,44.53355 -1.25814,1.65 -2.53634,3.225 -2.84043,3.5 -0.90655,0.8198 -10.37488,12.44253 -12.27563,15.0688 -10.50793,14.51873 -13.92791,19.43806 -17.6801,25.4312 -2.41042,3.85 -5.38186,8.575 -6.6032,10.5 -5.9048,9.30674 -18.70138,34.68348 -24.4568,48.5 -8.29763,19.91936 -17.41382,51.92832 -20.7121,72.72481 C 174.86089,353.2245 174.5,361.55446 174.5,385.5 c 0,30.20947 1.04009,44.45817 4.10717,56.26588 3.48444,13.41452 6.58191,22.23412 7.80869,22.23412 1.43464,0 3.25088,7.78809 6.64641,28.5 1.17217,7.15 2.33924,13.3375 2.59349,13.75 C 196.5015,507.62214 204,507.1019 204,505.67109 Z M 314.66277,437.83601 C 314.29825,414.64582 314,375.49582 314,350.83601 314,313.7818 313.76483,306 312.64506,306 c -0.74522,0 -3.67022,2.44806 -6.5,5.44014 -3.70008,3.91229 -5.14149,6.22928 -5.13236,8.25 0.0118,2.61885 0.56289,9.33164 4.41729,53.80986 2.45725,28.35565 3.1026,53.80131 2.02895,80 -0.36175,8.8273 0.56767,19.55232 2.14483,24.75 0.32793,1.08075 1.52355,1.75 3.12639,1.75 h 2.59538 z M 278.38416,335.58797 c 12.70426,-11.7234 45.58701,-45.08627 56.26642,-57.08797 16.56909,-18.62063 23.47663,-27.36789 43.43239,-55 5.16369,-7.15 16.21949,-22.1125 24.56844,-33.25 8.34895,-11.1375 14.81308,-20.25 14.36474,-20.25 -0.90439,0 -9.70179,5.79036 -14.08003,9.26732 -1.54628,1.22798 -4.97697,3.80739 -7.62377,5.73204 -6.34014,4.6103 -26.13541,19.87929 -29.31235,22.60995 -1.375,1.18185 -6.775,5.671 -12,9.97589 -10.98442,9.05009 -34.92152,32.33571 -37.26491,36.25068 -0.87706,1.46526 -3.90043,5.13912 -6.7186,8.16412 -10.99482,11.80176 -28.95685,40.53319 -35.00953,56 -4.48674,11.46527 -6.85545,19 -5.97307,19 0.50311,0 1.57609,-1.27889 2.38439,-2.84197 2.55159,-4.93424 11.23069,-17.58112 13.38626,-19.50599 1.13819,-1.01638 2.56287,-1.543 3.16595,-1.17028 0.69353,0.42863 0.17712,1.40089 -1.40515,2.6455 C 283.02628,318.91109 266.84805,344 268.592,344 c 0.37197,0 4.77844,-3.78541 9.79216,-8.41203 z M 214.75767,133.67315 c -3.60556,-1.13027 -5.6608,-2.6082 -8.6707,-6.2351 -1.23244,-1.48508 -1.07278,-2.74011 1.24936,-9.82037 4.65615,-14.19675 12.38099,-24.796876 24.07727,-33.039144 7.6342,-5.379757 11.19223,-6.579966 19.48562,-6.572959 12.05621,0.01019 19.3969,3.725497 20.65962,10.456364 0.825,4.397655 -2.04257,15.789479 -5.70358,22.658239 -5.76606,10.81824 -18.31712,20.13479 -30.65448,22.75456 -6.65837,1.41387 -15.57015,1.32599 -20.44311,-0.20159 z m 24.82364,-2.70113 C 254.00077,126.011 264.63562,114.49318 268.64065,99.5 c 2.09151,-7.829759 1.76011,-11.826517 -1.22843,-14.815055 -5.78168,-5.781678 -19.08306,-6.938211 -28.63029,-2.489358 -9.66475,4.503617 -20.5217,16.295395 -27.13997,29.476823 -4.00314,7.97295 -4.76063,12.60332 -2.6339,16.10045 1.6673,2.74164 3.47563,3.55522 12.49194,5.62013 3.32703,0.76196 12.33597,-0.44428 18.08131,-2.42097 z"
         id="path9" />
      <path
         style="fill:#1d1e1b;stroke:#000000;stroke-opacity:1"
         d="m 157.32201,546.20415 -6.17798,-0.29585 -3.46585,-6.70415 C 145.77197,535.51687 142.11468,527.775 139.55088,522 128.1645,496.35202 127.96038,496 124.4748,496 c -3.71239,0 -5.26956,-1.55059 -8.96984,-8.93193 C 103.83305,463.78487 92.523951,411.69388 89.546397,367.5 c -0.333505,-4.95 -1.038928,-15.3 -1.567606,-23 -1.759402,-25.62503 -1.213063,-79.53056 1.033781,-102 1.966142,-19.66228 2.352214,-22.96823 5.488712,-47 2.96158,-22.69154 13.962466,-77.11513 19.505986,-96.5 1.02235,-3.575 2.85422,-9.986577 4.07084,-14.247948 1.21661,-4.261371 2.82174,-8.253971 3.56695,-8.872445 2.70252,-2.242889 1.55914,5.857115 -5.16924,36.620393 -3.22133,14.72842 -6.1199,33.38573 -7.45061,47.9575 -1.213,13.28279 -1.17445,48.54637 0.0733,67.0425 0.44524,6.6 1.00458,41.7 1.24299,78 0.23841,36.3 0.65239,67.125 0.91996,68.5 0.26756,1.375 0.80267,7.45 1.18912,13.5 0.97353,15.24082 3.24515,32.41434 5.62167,42.5 1.10159,4.675 6.21108,19.075 11.35443,32 11.743,29.50963 11.95257,30.14163 10.33531,31.16827 -0.69409,0.44061 -1.82448,0.808 -2.51198,0.81642 -4.44156,0.0544 1.67444,16.58397 11.55245,31.22256 5.44164,8.06416 5.40039,8.01288 12.15169,15.10528 2.54827,2.67701 4.04588,5.00187 3.5,5.43333 -0.52478,0.41478 -3.73423,0.62101 -7.13213,0.45829 z M 202.5,510 c -2.56523,-0.65274 -2.66036,-0.78052 -0.65638,-0.88169 1.47467,-0.0744 2.54573,-0.8912 2.88874,-2.20284 0.41445,-1.58486 0.74789,-1.76464 1.39106,-0.75 1.05208,1.65971 1.1384,4.87583 0.12658,4.71622 -0.4125,-0.0651 -2.1,-0.46184 -3.75,-0.88169 z m -9.02392,-3.07536 c -0.36228,-1.14145 -0.3926,-2.34145 -0.0674,-2.66667 0.32522,-0.32522 0.59131,0.13634 0.59131,1.02567 0,0.88934 0.7875,2.07566 1.75,2.63626 1.59631,0.92977 1.60223,1.02195 0.0674,1.04969 -0.92544,0.0167 -1.97903,-0.9035 -2.34131,-2.04495 z M 309.10931,482.2031 c -2.45442,-0.81814 -0.88639,-1.92433 2.57584,-1.81716 3.11975,0.0966 3.79488,-0.26951 4.40032,-2.38594 0.67546,-2.36119 0.7207,-2.32562 0.81485,0.64059 0.0905,2.85003 -0.21403,3.17722 -3.29101,3.53644 -1.86488,0.21772 -3.88988,0.22945 -4.5,0.0261 z m -2.03036,-5.78643 c 0.048,-1.16495 0.28494,-1.4019 0.60416,-0.60417 0.28887,0.72187 0.25335,1.58438 -0.0789,1.91667 -0.33229,0.33229 -0.56864,-0.25834 -0.52522,-1.3125 z M 187.6331,476 c -2.13784,-5.34677 -3.57163,-10.3948 -3.0894,-10.87703 0.79169,-0.79169 2.42258,2.00961 2.44099,4.19277 0.008,0.99866 0.49449,2.71111 1.08016,3.80544 0.58567,1.09433 0.86306,2.52725 0.61643,3.18426 -0.30659,0.8167 -0.63814,0.72009 -1.04818,-0.30544 z m 33.47102,-19.16923 c -0.12933,-3.31552 2.10844,-12.15927 6.53242,-25.81636 1.86815,-5.76708 3.19457,-11.01214 2.94761,-11.65571 -0.24695,-0.64356 -1.82426,-1.47216 -3.50511,-1.84134 -1.68086,-0.36918 -3.35132,-1.1489 -3.71213,-1.73271 -0.59193,-0.95776 0.88637,-0.85483 7.94559,0.55328 0.7216,0.14394 7.66191,-16.67187 7.68022,-18.60854 0.004,-0.42383 -1.99893,-2.18471 -4.45096,-3.91306 -2.45203,-1.72835 -4.21155,-3.54161 -3.91004,-4.02946 0.30151,-0.48786 1.97022,0.1799 3.70824,1.48391 1.73802,1.30401 3.73708,2.71209 4.44236,3.12906 0.91662,0.54193 2.69899,-2.24522 6.25,-9.77335 C 247.76454,378.83417 250,373.13993 250,371.97261 c 0,-1.81298 -2.28558,-5.79135 -10.75616,-18.72261 -0.81062,-1.2375 -1.01804,-2.25 -0.46093,-2.25 0.5571,0 3.62277,4.07871 6.81258,9.0638 5.61578,8.77645 5.84887,8.99766 7.35208,6.97759 3.52721,-4.74002 10.07498,-19.2728 13.53519,-30.04139 6.79514,-21.1473 14.0861,-36.46489 25.63729,-53.8615 C 296.02062,277.26407 299,271.69633 299,270.28151 c 0,-1.89378 0.39224,-2.34497 1.62675,-1.87125 0.89471,0.34334 2.33109,0.054 3.19196,-0.64301 1.88941,-1.52974 1.28672,-0.40218 -3.06425,5.73275 -15.04253,21.21022 -23.10099,36.31938 -30.26757,56.75 -2.38106,6.78798 -1.80589,9.20135 0.93139,3.90803 2.55159,-4.93424 11.23069,-17.58112 13.38626,-19.50599 3.91947,-3.50001 3.87247,-0.72219 -0.0602,3.55924 -4.02813,4.38532 -16.97457,24.8918 -16.20248,25.66388 0.52937,0.52937 7.56588,-5.87137 22.20817,-20.20156 6.1875,-6.05562 11.25,-10.51103 11.25,-9.90092 0,0.61011 -0.45,1.3874 -1,1.72732 -0.55,0.33992 -1,1.49148 -1,2.55902 0,1.06754 -0.51902,1.94098 -1.15338,1.94098 -0.63435,0 -3.4477,2.1375 -6.25187,4.75 -31.28171,29.14351 -30.4146,28.21594 -35.26192,37.72044 l -4.61275,9.04458 3.25655,5.29257 c 1.7911,2.91091 3.03345,5.51566 2.76078,5.78833 -0.27267,0.27267 -1.78763,-1.54906 -3.36658,-4.04829 -1.57896,-2.49923 -3.13478,-4.54486 -3.45738,-4.54584 -0.85709,-0.003 -9.93868,20.21309 -9.92503,22.09322 0.006,0.87726 0.91434,2.412 2.01771,3.41054 2.66704,2.41364 1.80859,3.07438 -1.32594,1.02056 l -2.49333,-1.63369 -3.09343,8.02153 C 233.21764,416.96421 233.20681,418.53847 237,420.5 c 1.65,0.85325 3,2.02651 3,2.60724 0,0.58073 -1.58106,0.0787 -3.51347,-1.11557 l -3.51347,-2.17144 -1.48133,3.54531 c -0.81473,1.94993 -2.88866,8.85288 -4.60875,15.33989 -5.293,19.96171 -5.66208,21.11932 -5.77886,18.12534 z M 315.232,348 c 0,-1.925 0.2058,-2.7125 0.45733,-1.75 0.25152,0.9625 0.25152,2.5375 0,3.5 -0.25153,0.9625 -0.45733,0.175 -0.45733,-1.75 z m -2.50759,-43.84235 c -1.53203,-0.60551 -1.21008,-1.24744 2.34708,-4.67971 4.69222,-4.5275 25.94181,-27.97272 33.51496,-36.97794 6.0243,-7.16347 16.66338,-21.23036 29.49652,-39 5.16369,-7.15 16.21949,-22.1125 24.56844,-33.25 8.34895,-11.1375 14.81308,-20.25 14.36474,-20.25 -0.90439,0 -9.70179,5.79036 -14.08003,9.26732 -1.54628,1.22798 -4.97697,3.80739 -7.62377,5.73204 -6.34014,4.6103 -26.13541,19.87929 -29.31235,22.60995 -1.375,1.18185 -6.775,5.671 -12,9.97589 -12.33042,10.15907 -35.39836,32.88243 -37.67768,37.11488 -0.97742,1.81496 -2.1248,3.29992 -2.54972,3.29992 -0.42493,0 -0.76582,-0.1125 -0.75754,-0.25 0.0557,-0.92562 2.90608,-8.0719 2.94105,-7.37372 0.0241,0.48196 7.44214,-6.34391 16.48446,-15.16858 15.56523,-15.19061 38.42282,-34.20448 61.85459,-51.45318 19.27485,-14.18868 33.01679,-23.77591 33.45348,-23.33921 0.23754,0.23754 -5.81957,8.22877 -13.46024,17.75829 -13.60102,16.96331 -17.83111,22.60636 -41.62321,55.52645 -6.43948,8.91003 -12.26098,16.78503 -12.93667,17.5 -0.67569,0.71497 -2.46465,2.95563 -3.97548,4.97924 -4.07655,5.46015 -16.66873,19.81935 -28.66072,32.68259 -10.24028,10.98426 -12.32729,13.79936 -11.40817,15.38812 0.51904,0.89721 -0.53961,0.86417 -2.95974,-0.0924 z m 1.65963,-56.59924 c -0.30425,-0.79287 -0.37694,-2.25537 -0.16154,-3.25 0.24456,-1.12921 0.58685,-0.58778 0.91138,1.44159 0.5446,3.40551 0.19062,4.25921 -0.74984,1.80841 z M 300.15789,238 c 0,-1.375 0.22698,-1.9375 0.50439,-1.25 0.27741,0.6875 0.27741,1.8125 0,2.5 -0.27741,0.6875 -0.50439,0.125 -0.50439,-1.25 z M 299.5,215 c 0.33992,-0.55 1.60398,-0.96837 2.80902,-0.92971 2.11236,0.0678 2.11922,0.10112 0.19098,0.92971 -2.75248,1.18278 -3.731,1.18278 -3,0 z m 13.98992,-0.0163 c -0.34546,-0.55897 -1.11655,-0.71444 -1.71353,-0.34549 -0.64782,0.40038 -0.79775,0.20538 -0.37188,-0.48369 C 312.4438,212.47289 316,212.74025 316,214.5 c 0,1.70658 -1.5676,2.00865 -2.51008,0.48369 z m -98.73225,-81.31054 c -3.60556,-1.13027 -5.6608,-2.6082 -8.6707,-6.2351 -1.23244,-1.48508 -1.07278,-2.74011 1.24936,-9.82037 4.65615,-14.19675 12.38099,-24.796876 24.07727,-33.039144 7.6342,-5.379757 11.19223,-6.579966 19.48562,-6.572959 12.05621,0.01019 19.3969,3.725497 20.65962,10.456364 0.825,4.397655 -2.04257,15.789479 -5.70358,22.658239 -5.76606,10.81824 -18.31712,20.13479 -30.65448,22.75456 -6.65837,1.41387 -15.57015,1.32599 -20.44311,-0.20159 z m 24.82364,-2.70113 C 254.00077,126.011 264.63562,114.49318 268.64065,99.5 c 2.09151,-7.829759 1.76011,-11.826517 -1.22843,-14.815055 -5.78168,-5.781678 -19.08306,-6.938211 -28.63029,-2.489358 -9.66475,4.503617 -20.5217,16.295395 -27.13997,29.476823 -4.00314,7.97295 -4.76063,12.60332 -2.6339,16.10045 1.6673,2.74164 3.47563,3.55522 12.49194,5.62013 3.32703,0.76196 12.33597,-0.44428 18.08131,-2.42097 z M 399.66233,80.183239 c 0.36125,-1.381413 -0.0473,-2.147967 -1.31955,-2.476045 -1.06063,-0.2735 -0.46334,-0.524427 1.40722,-0.591193 3.7123,-0.132502 4.08875,0.814962 1.31955,3.321058 -1.84891,1.673239 -1.90835,1.662517 -1.40722,-0.25382 z"
         id="path8" />
    </g>
  </g>
</svg>
