<?xml version="1.0" encoding="UTF-8" standalone="no"?>
<!-- Created with Inkscape (http://www.inkscape.org/) -->

<svg
   version="1.1"
   id="svg55"
   width="705.42871"
   height="711.95959"
   viewBox="0 0 705.42871 711.95959"
   sodipodi:docname="logo.svg"
   inkscape:version="1.2.1 (9c6d41e, 2022-07-14)"
   xml:space="preserve"
   xmlns:inkscape="http://www.inkscape.org/namespaces/inkscape"
   xmlns:sodipodi="http://sodipodi.sourceforge.net/DTD/sodipodi-0.dtd"
   xmlns:xlink="http://www.w3.org/1999/xlink"
   xmlns="http://www.w3.org/2000/svg"
   xmlns:svg="http://www.w3.org/2000/svg"><defs
     id="defs59"><linearGradient
       id="linearGradient1"
       inkscape:collect="always"><stop
         style="stop-color:#7f00ff;stop-opacity:0.98823529;"
         offset="0"
         id="stop1" /><stop
         style="stop-color:#33ccff;stop-opacity:1;"
         offset="1"
         id="stop2" /></linearGradient><linearGradient
       inkscape:collect="always"
       id="linearGradient1276"><stop
         style="stop-color:#7f00ff;stop-opacity:0.99000001;"
         offset="0"
         id="stop1272" /><stop
         style="stop-color:#33ccff;stop-opacity:1;"
         offset="1"
         id="stop1274" /></linearGradient><clipPath
       clipPathUnits="userSpaceOnUse"
       id="clipPath586"><path
         id="path588"
         style="fill:#ff0000;fill-opacity:1;fill-rule:nonzero;stroke:none"
         d="M 0,81.027344 V 740 H 740 V 81.027344 Z M 155.86523,553.12109 c 4.91684,-0.17481 10.90419,0.99504 17.47071,3.96875 3.95989,1.79329 -4.23991,-1.95991 5.91211,3.17774 13.72981,6.94826 28.02679,13.06336 42.32226,18.71875 2.83748,1.12252 5.70621,2.16478 8.56055,3.24414 -4.37785,-8.62392 1.93229,-17.50535 14.51953,-17.49024 3.41636,0.004 7.29388,0.66448 11.54297,2.16211 15.83412,5.58097 32.20486,9.53568 48.49609,13.52344 30.47774,6.80479 60.93726,13.70649 91.47071,20.25977 10.06869,2.16022 20.19755,4.01845 30.30273,5.99609 28.29706,5.5379 22.70313,34.1228 -5.59375,28.58398 -10.27818,-2.01182 -20.58173,-3.9015 -30.82226,-6.10156 -21.04751,-4.51843 -42.04551,-9.2662 -63.05274,-13.9707 9.6512,2.86697 19.32967,5.64391 29.03516,8.32226 20.5446,5.66956 30.89143,8.16799 51.28906,13.31836 38.60416,9.33156 77.64544,16.70591 116.625,24.26563 6.10275,1.17993 15.47456,3.20696 22.01758,3.79101 1.87269,0.16717 6.74661,0.80186 7.57031,-1.0664 0.15892,-0.36045 -0.73669,-0.48376 -0.79687,-0.87305 -0.0963,-0.62223 0.25008,-1.23444 0.375,-1.85156 4.21981,-9.07007 7.07437,-18.72947 11.44921,-27.73242 1.19559,-2.46039 2.55568,-4.83741 3.83399,-7.25586 7.8485,-13.86564 18.29613,-25.90551 29.24219,-37.37695 5.6827,-5.52712 11.28211,-11.3741 18.08398,-15.56641 1.42882,-0.88066 2.93614,-1.62607 4.4043,-2.43945 8.37427,-3.90409 17.50119,-4.3281 26.53515,-3.11329 2.38606,0.32086 4.73211,0.89612 7.09766,1.34375 28.33112,5.36109 22.59297,34.47603 -5.63086,28.57618 -1.31193,-0.27425 -6.33072,-1.39752 -8.04102,-1.51758 -1.08906,-0.0765 -2.18168,0.079 -3.27343,0.084 -2.39616,0.01 -0.66644,-0.305 -3.08594,0.38282 -5.96912,2.68799 -10.30701,8.04151 -15.0332,12.37304 -9.14537,9.55452 -17.96378,19.51158 -24.625,31.01172 -0.93925,1.71996 -1.95567,3.40055 -2.81836,5.16016 -5.13869,10.48125 -8.00972,21.96821 -13.8418,32.13476 -5.90549,7.76547 -6.59896,10.70899 -16.15625,14.7461 -12.44766,5.25801 -30.28128,-0.0799 -42.85156,-2.2168 -39.51145,-7.66303 -79.08383,-15.14351 -118.21094,-24.61914 -20.74292,-5.23968 -31.24201,-7.77543 -52.14648,-13.54883 -38.17694,-10.54371 -75.98512,-22.43614 -113.0879,-36.31836 -21.43232,-8.13768 -24.14834,-8.86245 -43.8164,-17.36523 -5.08253,-2.19724 -10.12343,-4.49169 -15.14258,-6.83008 -5.76899,-2.68773 -11.92773,-5.56922 -17.39062,-8.98438 -1.67629,-1.04793 -3.24318,-2.26057 -4.86524,-3.39062 -17.7439,-12.36174 -12.62352,-24.99117 2.12695,-25.51563 z" /></clipPath><linearGradient
       inkscape:collect="always"
       xlink:href="#linearGradient1276"
       id="linearGradient6922"
       gradientUnits="userSpaceOnUse"
       x1="193.6774"
       y1="246.4472"
       x2="513.6875"
       y2="246.4472" /><linearGradient
       inkscape:collect="always"
       xlink:href="#linearGradient1"
       id="linearGradient2"
       x1="147.49762"
       y1="328.34918"
       x2="687.49707"
       y2="328.34918"
       gradientUnits="userSpaceOnUse"
       gradientTransform="matrix(0.41359154,0,0,0.41359154,195.7855,199.80571)" /></defs><sodipodi:namedview
     id="namedview57"
     pagecolor="#ffffff"
     bordercolor="#000000"
     borderopacity="0.25"
     inkscape:showpageshadow="2"
     inkscape:pageopacity="0.0"
     inkscape:pagecheckerboard="0"
     inkscape:deskcolor="#d1d1d1"
     showgrid="false"
     inkscape:zoom="0.77686188"
     inkscape:cx="338.54152"
     inkscape:cy="287.69593"
     inkscape:window-width="1920"
     inkscape:window-height="1016"
     inkscape:window-x="0"
     inkscape:window-y="27"
     inkscape:window-maximized="1"
     inkscape:current-layer="g223" /><g
     inkscape:groupmode="layer"
     inkscape:label="Image"
     id="g61"
     transform="translate(-18.060291,-15.983751)"><g
       id="g223"><path
         id="path235"
         clip-path="url(#clipPath586)"
         style="display:inline;mix-blend-mode:normal;fill:url(#linearGradient6922);fill-opacity:1;fill-rule:nonzero"
         inkscape:label="path235"
         transform="matrix(2.204395,0,0,2.204395,-443.73659,-162.63381)"
         d="m 371.21998,81.02805 c -1.25318,-0.01481 -4.96569,1.328424 -8.25,2.986328 l -5.97071,3.015625 -0.0156,21.734377 c -0.008,11.95451 -0.34598,22.23132 -0.75,22.83594 -0.40408,0.60462 -23.68459,12.69 -51.73438,26.85742 -28.04979,14.16747 -51.3511,26.08639 -51.78125,26.48437 -1.14343,1.0579 3.74427,23.13931 8.20508,37.06836 3.69947,11.55182 3.77748,12.07934 1.95508,13.05469 -1.09469,0.58586 -9.20106,0.98139 -19.13867,0.93359 -9.482,-0.0455 -17.80274,-0.0643 -18.49024,-0.041 -2.2167,0.0752 -1.36013,3.6078 4.29688,17.71289 14.60548,36.41742 35.12132,67.30684 63.33984,95.36719 20.15515,20.04218 40.68463,35.56493 64.68945,48.91406 5.98316,3.32724 11.23885,6.04883 11.67969,6.04883 1.98615,0 12.55784,-6.07048 13.11914,-7.53321 0.34421,-0.897 0.625,-11.63744 0.625,-23.86718 v -22.23438 l 11.91406,-9.21484 c 25.99699,-20.10835 46.46775,-43.80218 65.29688,-75.57422 l 2.71289,-4.57617 h 22.07227 22.07421 l 2.07422,-4.75 c 1.13997,-2.6125 4.23145,-11.27507 6.8711,-19.25 7.86444,-23.75963 12.96479,-49.78412 13.30664,-67.89649 l 0.17773,-9.39844 -78,-39.32617 C 408.59955,98.750431 372.47316,81.04286 371.21998,81.02805 Z m -29.35547,15.238281 c -0.84573,-0.845779 -17.69877,7.146089 -66.25,31.417969 -35.81334,17.90401 -65.43413,33.05924 -65.82422,33.67773 -1.89645,3.00685 5.66351,53.71056 8.7539,58.71094 0.68704,1.11158 25.13061,1.26151 25.8125,0.1582 0.26166,-0.42337 -0.56501,-5.07861 -1.83789,-10.34375 -3.11072,-12.86731 -5.92719,-30.38065 -5.19336,-32.29296 0.32719,-0.85267 23.95264,-13.23111 52.50196,-27.50782 29.03466,-14.51943 52.18778,-26.68301 52.54101,-27.60351 1.13417,-2.95559 0.71025,-25.002659 -0.5039,-26.216799 z m 42.63867,20.734379 c 1.89522,0 117.1065,57.55988 117.95312,58.92968 0.77837,1.25945 -2.82151,23.70336 -5.53515,34.51172 -4.6067,18.34789 -6.79254,24.29116 -9.16797,24.92774 -1.23955,0.33217 -11.12477,0.60918 -21.9668,0.61718 l -19.71289,0.0137 -5.12305,10.25 c -10.22914,20.46253 -25.91479,41.65414 -43.58984,58.89062 -11.22355,10.94505 -24.96366,21.85938 -27.51758,21.85938 -1.08026,0 -4.02585,-1.57501 -6.54687,-3.5 -2.5211,-1.925 -4.9705,-3.5 -5.44141,-3.5 -0.47091,0 -0.85547,10.32393 -0.85547,22.9414 0,13.13993 -0.39844,23.18684 -0.93359,23.51758 -1.07938,0.6671 -14.36337,-8.13879 -24.56641,-16.28516 -10.87019,-8.67903 -29.88897,-27.64111 -38.78906,-38.67382 -13.93752,-17.27716 -31.58053,-45.78915 -30.33789,-49.02735 0.47312,-1.23293 4.06133,-1.47265 22.0957,-1.47265 11.84219,0 21.53125,-0.20073 21.53125,-0.44532 0,-0.2446 -2.44308,-5.08216 -5.42969,-10.75 -2.98654,-5.6679 -7.23227,-14.8508 -9.43359,-20.40625 -3.90725,-9.86073 -9.13672,-26.5214 -9.13672,-29.10742 0,-0.71209 19.94823,-11.26487 44.32813,-23.45117 l 44.32617,-22.15625 5.41016,2.57031 c 2.97524,1.41402 5.75222,2.35897 6.17187,2.09961 0.41964,-0.25935 0.76367,-9.8947 0.76367,-21.41211 0,-17.96844 0.21392,-20.9414 1.50391,-20.9414 z m 13.99219,23 c -2.11815,0 -2.22428,26.15043 -0.11329,27.90234 0.76017,0.63089 14.14781,7.48505 29.75,15.23047 15.60225,7.74542 28.68657,14.5929 29.07618,15.2168 0.81899,1.31145 0.39604,3.36464 -2.79102,13.57617 -1.27482,4.08462 -2.08847,7.79713 -1.80859,8.25 0.27983,0.45287 6.053,0.82422 12.82812,0.82422 9.43656,0 12.59484,-0.33316 13.5,-1.42383 1.50357,-1.81168 6.90212,-23.3237 7.67383,-30.57617 l 0.58594,-5.5 -43.60156,-21.75 c -23.98067,-11.96243 -44.27628,-21.75 -45.09961,-21.75 z m -59.57422,54.56445 c -0.0592,0.006 -0.11865,0.009 -0.17774,0.0156 -0.2114,0.0246 -0.0953,0.0673 0.12891,0 0.0164,-0.005 0.0325,-0.0106 0.0488,-0.0156 z m 37.16015,45.89453 c 0.0317,0.0548 0.0638,0.10941 0.0957,0.16406 0.004,-0.002 0.007,-0.004 0.0117,-0.006 0.0155,0.034 0.0275,0.0695 0.043,0.10352 0.0308,0.0526 0.0608,0.10572 0.0918,0.1582 0.0632,-0.0672 -0.11885,-0.21759 -0.17383,-0.32031 -0.0189,-0.0354 -0.0885,-0.13441 -0.0684,-0.0996 z m -74.31836,35.54102 c -10.53661,0 -14.76367,0.33188 -14.76367,1.16015 0,0.63828 2.31477,4.57579 5.14453,8.75 10.44199,15.40304 25.12115,31.9373 39.72657,44.74805 4.60379,4.03811 8.7663,7.3418 9.25,7.3418 0.4837,0 0.8789,-7.22646 0.8789,-16.0586 v -16.05859 l -8.27148,-9.19141 c -4.54962,-5.05528 -10.28266,-11.77891 -12.73828,-14.9414 l -4.46485,-5.75 z m 169.54493,0 -5.13086,8.39843 c -15.05049,24.62924 -38.40848,50.67092 -60.92188,67.92383 -3.43385,2.63143 -6.69635,5.63151 -7.25,6.66602 -1.08555,2.02835 -1.40793,24.80281 -0.38867,27.45898 0.55196,1.43833 0.99275,1.39013 4.10352,-0.44531 6.79631,-4.00987 22.37041,-16.08707 33.99414,-26.36328 17.37251,-15.35841 34.88838,-35.5878 47.74609,-55.13867 6.6507,-10.11282 15.53906,-25.73005 15.53906,-27.30274 0,-0.87316 -3.75578,-1.19726 -13.8457,-1.19726 z" /><path
         style="fill:url(#linearGradient2);stroke-width:0.224779"
         d="m 256.78926,438.28188 c 0,-0.16754 2.77513,-4.96038 3.71261,-6.41197 0.27946,-0.43271 1.03942,-1.6971 1.68879,-2.80977 0.64938,-1.11265 1.40583,-2.37704 1.681,-2.80974 0.27516,-0.43269 1.0849,-1.79822 1.79941,-3.03452 0.7145,-1.23627 1.52325,-2.60181 1.79721,-3.0345 0.27396,-0.43271 1.03473,-1.6971 1.69055,-2.80975 0.65585,-1.11266 1.41557,-2.37704 1.68826,-2.80975 0.67946,-1.07812 10.30038,-17.25629 10.76069,-18.09474 0.3935,-0.71673 3.34976,-5.61307 3.73216,-6.18143 0.12476,-0.18543 0.8451,-1.39924 1.60072,-2.69734 0.75562,-1.29811 1.60284,-2.71422 1.88269,-3.14692 0.27987,-0.4327 1.03845,-1.69707 1.68575,-2.80975 0.64732,-1.11266 1.35326,-2.27898 1.56881,-2.59185 0.21551,-0.31286 0.61129,-0.97034 0.87951,-1.46106 0.81044,-1.48273 3.46393,-5.94454 6.41252,-10.78253 1.05487,-1.73079 2.37879,-3.95611 2.9421,-4.94515 0.56328,-0.98902 1.43556,-2.45572 1.93843,-3.25929 0.50287,-0.80358 1.00669,-1.66336 1.11963,-1.91062 0.11286,-0.24727 0.50347,-0.90474 0.86788,-1.46108 0.3644,-0.55631 0.92527,-1.46669 1.24637,-2.02301 0.32108,-0.55633 0.82647,-1.41611 1.12309,-1.9106 0.29663,-0.49453 0.79909,-1.35432 1.11657,-1.91064 0.31749,-0.55633 0.87369,-1.4667 1.23594,-2.02302 0.36227,-0.55633 0.81612,-1.31495 1.00854,-1.68584 0.19241,-0.37088 0.67666,-1.19991 1.0761,-1.84229 0.39943,-0.64237 1.12308,-1.85619 1.60812,-2.69735 0.485,-0.84118 1.05247,-1.78229 1.26101,-2.09135 0.20852,-0.30908 2.17793,-3.59646 4.37646,-7.30534 2.19852,-3.70885 4.22152,-7.09739 4.49556,-7.5301 0.27404,-0.4327 1.54922,-2.55555 2.83373,-4.71742 1.28452,-2.16188 2.43664,-4.09497 2.56026,-4.29578 0.12357,-0.2008 0.50708,-0.85962 0.85213,-1.464 0.34503,-0.60441 1.10366,-1.88282 1.68584,-2.84091 1.91349,-3.14905 2.99139,-4.95207 5.27434,-8.82266 1.23963,-2.10168 2.42437,-4.07411 2.63274,-4.38319 0.20839,-0.30909 0.7574,-1.21942 1.22001,-2.02301 1.09356,-1.89958 1.66064,-2.85508 2.26788,-3.82126 0.27195,-0.43269 1.53631,-2.55685 2.80971,-4.72036 1.2734,-2.1635 2.53937,-4.28767 2.81328,-4.72037 0.69768,-1.10222 1.79714,-2.96973 1.98499,-3.37168 0.0868,-0.18546 0.45455,-0.79235 0.81753,-1.34869 0.36297,-0.55633 1.12453,-1.82071 1.69238,-2.80975 0.56783,-0.98902 1.53805,-2.60743 2.15601,-3.59645 0.61795,-0.98904 1.37292,-2.25342 1.6777,-2.80977 0.30479,-0.55632 0.95781,-1.65383 1.45122,-2.43892 0.49337,-0.78509 0.89706,-1.45563 0.89706,-1.49002 0,-0.0535 0.66254,-1.15892 1.75409,-2.92681 1.33919,-2.16899 5.43825,-9.17578 5.43608,-9.29223 -0.003,-0.1498 -1.4656,-1.16001 -1.67971,-1.16001 -0.0635,0 -1.45568,-0.74165 -3.09386,-1.6481 -1.63821,-0.90647 -3.52253,-1.92029 -4.18741,-2.25297 -0.66486,-0.33268 -2.6538,-1.41173 -4.41988,-2.39792 -1.76605,-0.98619 -3.27088,-1.79307 -3.34405,-1.79307 -0.0732,0 -1.42217,-0.72317 -2.99783,-1.60707 -1.57564,-0.88388 -3.16827,-1.74517 -3.53916,-1.91397 -0.37088,-0.1688 -0.82605,-0.40018 -1.01149,-0.51417 -0.67175,-0.41292 -4.44347,-2.45007 -7.08056,-3.82429 -1.48355,-0.77309 -2.84546,-1.54627 -3.02649,-1.71819 -0.28119,-0.26707 2.79715,-0.31268 21.12927,-0.31318 27.97181,-8.3e-4 93.0513,-0.22914 93.55357,-0.3283 0.49438,-0.0975 0.6906,0.63364 1.17389,4.37489 0.19959,1.54537 0.51252,3.61897 0.69534,4.60798 0.18283,0.98904 0.54171,3.21436 0.79755,4.94516 0.25584,1.73081 0.71007,4.71474 1.00936,6.63099 0.29932,1.91626 0.73756,4.8496 0.97389,6.51859 0.23629,1.669 0.49118,3.28741 0.56636,3.59648 0.0753,0.30908 0.39392,2.2815 0.70829,4.3832 0.31436,2.10169 0.81812,5.38908 1.11948,7.30532 0.30132,1.91625 0.74123,4.84963 0.97755,6.51861 0.23632,1.66899 0.49117,3.2874 0.56638,3.59647 0.0753,0.30907 0.39392,2.2815 0.70828,4.3832 0.31437,2.10169 0.81761,5.38908 1.1183,7.30532 0.30069,1.91626 0.69974,4.59675 0.88675,5.95665 0.18705,1.35993 0.44112,2.97833 0.56463,3.59647 0.23721,1.18712 1.16959,7.23201 1.69887,11.01419 0.17299,1.23629 0.46714,3.10758 0.65366,4.15842 0.1865,1.05085 0.54995,3.32675 0.80767,5.05754 0.2577,1.73081 0.71398,4.71474 1.01397,6.63099 0.30001,1.91625 0.69201,4.54616 0.87114,5.84426 0.17914,1.29812 0.48363,3.21996 0.67664,4.27082 0.34299,1.86752 0.83738,5.12732 1.70446,11.23896 0.23679,1.66899 0.53249,3.48971 0.65712,4.04602 0.12463,0.55634 0.43615,2.47819 0.69226,4.27083 0.2561,1.7926 0.71668,4.8777 1.02348,6.85575 0.58976,3.80209 1.26319,8.16764 2.20188,14.2735 0.58202,3.78591 1.26009,8.16133 2.27293,14.66685 0.31278,2.00898 0.81624,5.27109 1.11881,7.24913 0.5462,3.57085 1.20088,7.81238 2.23778,14.49828 0.7159,4.61629 1.56186,10.11623 2.20412,14.32967 l 0.5225,3.42789 h -19.94351 -19.94348 l -0.24099,-1.1801 c -0.13257,-0.64904 -0.43841,-2.3433 -0.67967,-3.76503 -0.97923,-5.77011 -2.08463,-10.18848 -4.35831,-17.4204 -1.06973,-3.40257 -2.32717,-6.75239 -4.3875,-11.68853 -1.98595,-4.75794 -6.27343,-13.39426 -7.82544,-15.76294 -0.19734,-0.30118 -0.31233,-0.59406 -0.25557,-0.65085 0.0568,-0.0568 0.85441,0.14043 1.7725,0.43824 0.91809,0.2978 2.52902,0.79834 3.57987,1.11226 1.05086,0.31392 2.75035,0.82794 3.77666,1.14224 1.02632,0.3143 2.01507,0.57145 2.1972,0.57145 0.18216,0 0.90563,0.20189 1.60771,0.44867 0.7021,0.24677 1.35984,0.36535 1.46169,0.2635 0.20535,-0.20535 -3.33455,-3.75259 -5.78396,-5.79597 -0.8654,-0.72198 -1.6746,-1.42478 -1.79824,-1.56186 -0.77003,-0.85367 -6.69948,-5.30243 -10.00268,-7.50483 l -2.13541,-1.42375 1.34869,0.14647 c 4.82414,0.524 12.25047,0.75791 12.25047,0.38588 0,-0.11352 -0.37787,-0.44228 -0.83974,-0.73053 -5.84368,-3.64703 -14.38809,-7.7869 -20.3457,-9.85774 -0.8345,-0.29006 -1.51726,-0.59338 -1.51726,-0.67403 0,-0.0807 1.34024,-0.27284 2.97832,-0.4271 7.04512,-0.66345 12.88869,-1.42366 13.17964,-1.71463 0.21989,-0.21989 -0.61964,-0.73059 -1.86174,-1.13256 -0.63065,-0.20407 -1.45011,-0.50467 -1.82098,-0.66798 -3.31282,-1.45876 -12.94793,-4.07924 -18.5443,-5.04355 -4.78475,-0.82446 -4.65151,-0.76934 -2.58495,-1.06933 7.61758,-1.1058 18.69009,-3.2784 25.962,-5.0942 3.91703,-0.97808 4.23694,-1.08102 4.13787,-1.33162 -0.18635,-0.47144 -12.50741,-3.35233 -17.01618,-3.97868 -1.0146,-0.14093 -2.19875,-0.34353 -2.63145,-0.4502 -0.68399,-0.16859 -4.38493,-0.6117 -11.23896,-1.34562 -1.05085,-0.11248 -3.35348,-0.27347 -5.11695,-0.35765 -1.76349,-0.0842 -3.14675,-0.21354 -3.07389,-0.28742 0.0729,-0.0738 1.21224,-0.30019 2.53199,-0.50289 7.14586,-1.09761 10.07653,-1.56526 10.37919,-1.65628 0.18545,-0.0557 1.65215,-0.30218 3.25931,-0.54757 1.60717,-0.24539 4.54055,-0.70795 6.5186,-1.02792 1.97807,-0.31994 4.7532,-0.75923 6.16701,-0.97618 4.14015,-0.63537 3.71169,-0.85405 -3.80682,-1.9429 -5.47275,-0.79257 -10.9451,-1.07584 -18.41925,-0.95343 l -6.39357,0.10468 0.6617,-0.54427 c 0.97983,-0.80597 3.8863,-3.05161 4.44602,-3.43514 0.26754,-0.18333 1.09337,-0.79243 1.83514,-1.35354 0.74177,-0.5611 1.60154,-1.19107 1.91062,-1.3999 0.30907,-0.20882 1.27,-0.8873 2.13541,-1.50769 0.86539,-0.6204 2.53437,-1.78578 3.70885,-2.58972 1.17447,-0.80394 2.9952,-2.07452 4.04604,-2.82347 1.05084,-0.74898 2.08764,-1.42007 2.30398,-1.49134 0.21634,-0.0713 0.39338,-0.2695 0.39338,-0.44051 0,-0.23221 -0.3558,-0.3095 -1.40488,-0.30516 -1.8199,0.008 -5.61955,0.37354 -6.91197,0.66586 -0.55634,0.12581 -1.97243,0.42336 -3.14692,0.66116 -3.06728,0.62108 -6.83127,1.67877 -11.23896,3.15818 -3.21637,1.07958 -5.39471,1.76166 -5.39471,1.68921 0,-0.0356 0.98622,-0.72049 2.19159,-1.52188 4.94979,-3.29083 10.72547,-6.52879 18.82529,-10.55377 3.21435,-1.59728 6.00989,-2.99158 6.21233,-3.09845 0.20245,-0.10679 2.52889,-1.16623 5.16993,-2.35415 2.64103,-1.18794 5.00417,-2.25091 5.25141,-2.36219 0.24725,-0.11128 1.12809,-0.5111 1.95744,-0.88854 0.82934,-0.37743 1.55969,-0.68623 1.623,-0.68623 0.0635,0 0.66794,-0.25288 1.34364,-0.56195 0.6757,-0.30907 1.2826,-0.56193 1.34868,-0.56193 0.066,0 0.65416,-0.24102 1.30688,-0.53559 0.6527,-0.29457 1.43962,-0.60854 1.74872,-0.69775 0.30906,-0.0892 0.76423,-0.28802 1.01149,-0.44184 0.24724,-0.15382 0.85415,-0.40923 1.34868,-0.56754 0.4945,-0.15832 1.152,-0.42391 1.46106,-0.59019 0.30908,-0.1663 1.52289,-0.66598 2.69735,-1.1104 1.17448,-0.44442 2.79289,-1.05651 3.59647,-1.36021 0.80359,-0.30372 1.76451,-0.70129 2.13541,-0.88352 0.37088,-0.18222 1.23065,-0.49341 1.91061,-0.69155 0.67998,-0.19813 1.33745,-0.4377 1.46106,-0.53233 0.12359,-0.0947 0.78112,-0.35062 1.46107,-0.56875 0.67997,-0.21817 1.33745,-0.46873 1.46109,-0.55682 0.12358,-0.0881 0.7033,-0.28962 1.28819,-0.44783 0.5849,-0.15822 1.18707,-0.43666 1.33821,-0.61872 0.29733,-0.35829 -0.13624,-0.34865 -8.35828,0.18611 -3.22209,0.20954 -13.90682,1.42919 -14.55893,1.66187 -0.15698,0.056 -1.26964,0.25883 -2.47256,0.45072 -3.67002,0.58536 -8.96173,1.81405 -14.88719,3.45663 -0.92721,0.25704 -3.30424,1.03138 -5.28231,1.72074 -4.50181,1.56894 -4.66797,1.61506 -3.89423,1.08097 0.33075,-0.22828 2.13915,-1.52775 4.01867,-2.88765 3.67851,-2.66158 5.52682,-3.97865 7.56984,-5.39413 1.33703,-0.92633 3.13817,-2.22097 3.55885,-2.55806 0.13136,-0.10535 0.45227,-0.30562 0.713,-0.44516 0.26074,-0.13954 0.60839,-0.38087 0.77258,-0.53629 0.16417,-0.15542 1.04119,-0.78827 1.94892,-1.40635 2.19206,-1.49255 2.23457,-1.5221 5.17373,-3.59634 1.40142,-0.98902 2.86693,-2.02146 3.25666,-2.29428 0.38972,-0.27282 1.26491,-0.9027 1.94487,-1.39973 0.67997,-0.49702 2.14666,-1.51428 3.25931,-2.26056 1.11266,-0.7463 2.12416,-1.43139 2.2478,-1.5224 0.12357,-0.091 0.47766,-0.29665 0.78674,-0.4569 2.66691,-1.38291 4.81057,-3.08362 3.34558,-2.65429 -0.86106,0.25234 -6.52094,1.73142 -7.50402,1.96101 -1.31348,0.30672 -8.4465,2.49202 -9.44073,2.89228 -0.24726,0.0995 -1.41048,0.5082 -2.58495,0.90818 -3.71763,1.26603 -11.04066,4.16903 -12.70241,5.03551 -0.36959,0.1927 -0.74194,0.35099 -0.82744,0.35174 -0.72965,0.006 -15.01611,7.24995 -19.06317,9.66533 -0.18543,0.11063 -2.15788,1.28251 -4.3832,2.60406 -2.22531,1.32158 -5.15869,3.13236 -6.5186,4.02398 -3.07888,2.01864 -3.2231,2.10201 -2.90134,1.67733 0.13505,-0.17827 0.63122,-0.93102 1.10259,-1.67279 0.47138,-0.74178 1.41338,-2.20846 2.09338,-3.2593 4.84922,-7.494 5.00435,-7.74936 4.75764,-7.83158 -0.35493,-0.11828 -5.37995,2.72969 -8.29782,4.70293 -4.45035,3.00956 -9.68236,7.68325 -13.81927,12.34459 -0.71319,0.80358 -1.23674,1.27598 -1.16347,1.04974 0.59572,-1.83922 0.63469,-7.79595 0.0509,-7.79094 -0.14001,8.3e-4 -0.49578,0.73453 -0.79063,1.62966 -0.70795,2.14937 -2.59049,5.91303 -4.19906,8.39501 -1.18984,1.83581 -4.2218,5.70725 -5.52635,7.05639 -0.29886,0.30908 -0.99369,1.11827 -1.54407,1.79823 -0.55038,0.67996 -1.05265,1.28688 -1.11618,1.34867 -0.66988,0.65197 -2.98761,4.01743 -6.61044,9.59865 -0.67549,1.04062 -0.80012,0.52077 -0.46903,-1.95616 0.51943,-3.88589 0.52955,-4.04609 0.25541,-4.04458 -0.14277,8e-4 -0.42387,0.27892 -0.62468,0.61811 -4.60145,7.77241 -6.13854,11.22516 -6.92687,15.55969 -0.75516,4.15227 -0.75529,4.01433 0.004,4.09407 l 0.65938,0.0692 -1.32421,1.76522 c -0.72832,0.97087 -1.53923,2.03295 -1.80203,2.36019 -1.09229,1.36006 -2.43953,3.11556 -2.92811,3.81537 -0.62275,0.89201 -0.81503,0.76714 -1.37767,-0.89484 -0.64159,-1.89523 -0.65579,-1.884 -2.21893,1.75814 -0.38032,0.88612 -0.69148,1.66702 -0.69148,1.73537 0,0.0683 -0.23897,0.65828 -0.53101,1.311 -0.29207,0.65272 -0.87367,2.01888 -1.29248,3.03596 -0.67662,1.6431 -0.8474,1.87825 -1.53252,2.11 -1.64588,0.55675 -3.32837,1.74487 -3.9338,2.77795 -1.95133,3.32971 -3.19346,10.81297 -2.63145,15.85318 0.39055,3.50241 0.90435,6.53908 1.36916,8.09203 0.24049,0.8036 0.54746,1.89098 0.68212,2.4164 0.13464,0.52541 0.37093,0.95532 0.52506,0.95532 0.15417,0 0.60753,-0.66364 1.00749,-1.47475 0.55836,-1.13228 0.8175,-1.44825 1.11595,-1.36067 0.21381,0.0627 0.79334,0.18255 1.28784,0.26624 0.49452,0.0837 1.10143,0.31848 1.34868,0.5218 1.37204,1.12809 3.27467,2.17258 5.41905,2.9749 1.66784,0.62403 3.75648,1.10597 3.95325,0.91225 0.0859,-0.0845 -0.35191,-0.91258 -0.97314,-1.83977 l -1.12952,-1.68586 3.44573,-0.15209 c 5.98175,-0.26408 10.76312,-1.34635 11.07399,-2.50662 0.0388,-0.14487 0.18303,-0.97147 0.32044,-1.83687 0.48345,-3.0444 2.28803,-5.7073 5.87523,-8.6696 2.15592,-1.78038 4.44262,-3.07014 6.99741,-3.94682 1.70813,-0.58611 2.1608,-0.64556 4.91589,-0.64556 2.3745,0 3.2433,0.0855 3.99438,0.39336 1.57372,0.64491 1.62409,0.6068 1.63295,-1.23628 0.0107,-2.14466 0.49305,-4.70786 1.17151,-6.22039 l 0.54682,-1.21904 1.59873,1.89337 c 1.78267,2.11124 3.28693,4.32278 4.2434,6.23864 0.34987,0.70081 0.69385,1.32481 0.76438,1.38663 0.54996,0.48197 2.54342,6.56931 3.12843,9.55312 0.90475,4.61462 1.10117,11.16489 0.46318,15.44694 -1.1842,7.94822 -2.63193,13.19086 -5.57276,20.18058 -1.27802,3.03755 -4.3833,9.35489 -4.80633,9.77791 -0.26556,0.26551 0.0211,-0.54751 0.55465,-1.57345 2.50998,-4.82597 5.04227,-13.1389 6.36787,-20.90449 0.58271,-3.41355 0.6145,-3.97947 0.62488,-11.12658 0.0107,-7.2652 -0.0119,-7.66057 -0.62428,-11.23896 -0.78676,-4.59341 -1.96773,-9.47114 -2.898,-11.96951 -0.36578,-0.98234 -0.63192,-0.71781 -0.45231,0.44957 0.0903,0.58723 0.15674,2.93898 0.14748,5.22612 -0.0179,4.44427 -0.31529,6.47542 -1.59591,10.90178 -1.10143,3.80705 -3.67426,9.65483 -5.66264,12.87059 -4.034,6.5241 -7.54399,11.09894 -12.7463,16.61339 -3.22122,3.41449 -8.34699,8.2321 -11.37063,10.68707 -5.03625,4.08904 -9.31023,7.3698 -9.60098,7.3698 -0.14559,0 -0.0279,-0.10813 2.2184,-2.03688 1.80283,-1.54802 2.89551,-2.51768 5.05029,-4.4817 1.61732,-1.47412 6.78048,-6.62686 8.22424,-8.20761 1.77433,-1.94269 5.15196,-6.39288 5.96875,-7.86414 0.13727,-0.24725 0.66845,-1.17979 1.18039,-2.07231 1.33193,-2.32207 1.23017,-2.71856 -0.31638,-1.23285 -2.6341,2.53043 -9.63285,7.63205 -13.66771,9.96281 -2.8878,1.66816 -7.58278,4.10129 -10.148,5.25909 -0.74178,0.33479 -1.75329,0.79263 -2.24781,1.0174 -0.49449,0.22476 -1.86004,0.77209 -3.0345,1.21628 -1.1745,0.44421 -2.43887,0.94294 -2.80976,1.10829 -0.37088,0.16533 -1.28123,0.47604 -2.02301,0.69045 -0.74177,0.21441 -1.44983,0.46573 -1.57346,0.55849 -0.12355,0.0927 -0.73053,0.29964 -1.34866,0.45976 -0.61815,0.16011 -1.42736,0.41683 -1.79823,0.57046 -0.3709,0.15361 -1.38241,0.45731 -2.2478,0.67486 -0.86541,0.21758 -1.67461,0.45576 -1.79824,0.52931 -0.454,0.27019 -7.15538,1.90031 -11.68854,2.84326 -6.02212,1.2527 -13.70883,2.419 -20.79208,3.15479 -3.48149,0.36165 -20.45493,0.72754 -20.45493,0.44095 z m 82.26925,-90.69496 c 0,-0.35632 2.24639,-4.83268 2.99391,-5.96594 2.54828,-3.86332 6.02817,-8.10914 8.55274,-10.43523 l 0.59143,-0.54492 v 1.48398 c 0,7.58205 -3.27411,13.23255 -8.68549,14.98952 -1.8215,0.59141 -3.45259,0.81467 -3.45259,0.47259 z"
         id="path2" /></g></g></svg>
