<?xml version="1.0" standalone="no"?>
<!DOCTYPE svg PUBLIC "-//W3C//DTD SVG 20010904//EN"
 "http://www.w3.org/TR/2001/REC-SVG-20010904/DTD/svg10.dtd">
<svg version="1.0" xmlns="http://www.w3.org/2000/svg"
 width="700.000000pt" height="700.000000pt" viewBox="0 0 700.000000 700.000000"
 preserveAspectRatio="xMidYMid meet">
<metadata>
Created by potrace 1.14, written by Peter Selinger 2001-2017
</metadata>
<g transform="translate(0.000000,700.000000) scale(0.100000,-0.100000)"
fill="#000000" stroke="none">
<path d="M3475 6831 c-42 -15 -212 -96 -224 -107 -1 -1 -5 -191 -7 -421 -4
-484 -5 -502 -30 -517 -50 -30 -122 -69 -259 -141 -82 -43 -156 -82 -162 -88
-7 -5 -13 -6 -13 -2 0 4 -6 3 -13 -3 -14 -12 -135 -74 -682 -352 -530 -269
-901 -459 -960 -491 -49 -27 -50 -28 -50 -76 1 -47 6 -82 24 -165 6 -24 12
-54 14 -68 13 -71 92 -365 137 -510 28 -91 53 -179 56 -196 6 -40 -16 -64 -59
-65 -18 -1 -48 -3 -67 -5 -19 -2 -183 -4 -363 -5 -282 -2 -329 -4 -336 -17
-13 -23 42 -202 113 -366 7 -17 30 -71 51 -121 152 -357 356 -725 578 -1041
82 -117 228 -309 290 -381 423 -492 815 -849 1282 -1166 211 -142 451 -286
634 -378 87 -43 88 -43 221 33 136 78 130 67 135 253 2 88 4 304 5 480 l1 320
181 140 c531 409 892 800 1265 1367 68 103 123 190 123 192 0 2 22 40 49 83
l48 78 459 0 459 0 32 73 c32 73 102 268 163 452 81 248 165 582 210 835 5 33
12 69 14 80 2 11 7 47 11 80 4 33 9 71 11 85 4 30 13 124 19 200 8 114 8 301
-1 309 -17 17 -2344 1186 -2864 1440 -273 133 -424 202 -439 200 -3 0 -28 -8
-56 -18z m530 -816 c270 -126 2190 -1090 2254 -1132 23 -15 23 -19 17 -92 -3
-42 -8 -85 -10 -96 -2 -11 -7 -42 -10 -70 -4 -27 -21 -121 -37 -210 -76 -406
-185 -763 -239 -780 -34 -11 -148 -14 -520 -17 l-355 -2 -95 -185 c-115 -223
-153 -290 -272 -469 -223 -336 -523 -683 -807 -932 -40 -36 -79 -70 -85 -75
-6 -6 -54 -45 -106 -87 -109 -87 -202 -148 -225 -148 -23 0 -65 24 -155 86
-84 58 -100 64 -101 37 0 -10 -2 -45 -4 -78 -2 -33 -6 -217 -10 -410 -6 -373
-8 -442 -18 -452 -12 -11 -72 21 -207 112 -263 176 -435 322 -720 605 -182
181 -303 312 -386 415 -27 33 -51 62 -54 65 -16 14 -206 283 -295 420 -207
316 -320 534 -287 554 23 14 99 17 481 21 228 3 416 7 419 9 2 3 -50 112 -115
243 -145 289 -192 399 -276 653 -72 215 -88 269 -101 350 -2 11 72 70 88 70 2
0 39 20 82 43 182 101 1659 847 1676 847 3 0 40 -16 81 -35 71 -33 156 -67
158 -62 7 21 11 89 14 332 8 464 11 537 26 545 12 8 34 0 194 -75z"/>
<path d="M4103 5607 c-30 -48 -33 -436 -4 -543 8 -30 9 -31 611 -335 449 -226
599 -304 619 -324 24 -24 21 -47 -39 -250 -23 -77 -42 -156 -43 -175 -2 -33 0
-34 38 -41 62 -11 422 -8 463 3 45 13 46 14 77 113 69 227 127 505 129 625 l1
35 -525 262 c-789 393 -1220 604 -1297 634 -15 5 -25 4 -30 -4z"/>
<path d="M3248 4812 c-38 -95 -136 -354 -282 -742 -70 -184 -133 -348 -140
-365 -16 -34 -326 -851 -326 -857 0 -3 65 -5 144 -6 l143 0 88 251 c48 139 92
256 97 262 6 6 175 10 463 10 l454 0 46 -130 c58 -162 86 -242 117 -325 l24
-65 142 -2 c78 0 142 0 142 2 0 4 -69 186 -80 210 -5 11 -43 110 -84 220 -41
110 -108 288 -149 395 -41 107 -143 375 -227 595 -84 220 -171 448 -194 507
l-41 107 -155 0 -155 -1 -27 -66z m282 -477 c50 -137 132 -358 181 -489 49
-132 89 -242 89 -246 0 -3 -167 -6 -370 -6 -368 0 -370 0 -364 20 23 82 360
983 365 978 4 -4 48 -119 99 -257z"/>
<path d="M2007 2783 c-1 0 -42 -2 -92 -4 -103 -3 -125 -7 -125 -22 0 -15 75
-139 134 -222 58 -82 154 -211 178 -240 161 -194 262 -304 423 -463 163 -159
381 -349 391 -339 10 9 16 153 18 399 l2 267 -44 48 c-24 26 -60 66 -81 88
-77 85 -280 324 -343 404 l-66 84 -197 1 c-108 1 -197 0 -198 -1z"/>
<path d="M2855 6509 c-153 -62 -1948 -950 -2400 -1187 -60 -32 -147 -77 -193
-101 -95 -49 -97 -54 -88 -169 8 -116 40 -382 62 -517 11 -66 13 -82 19 -120
3 -23 7 -50 9 -61 59 -306 77 -377 103 -404 11 -13 54 -15 263 -15 175 0 252
3 261 12 8 8 7 31 -6 95 -21 101 -21 101 -35 163 -6 28 -14 61 -16 75 -3 14
-14 66 -24 115 -10 50 -24 124 -31 165 -6 41 -13 84 -15 95 -2 11 -7 55 -10
98 -6 69 -5 79 12 92 35 27 378 208 739 391 794 402 993 503 1150 587 305 163
290 152 295 214 9 139 0 459 -15 483 -9 14 -23 12 -80 -11z"/>
<path d="M5589 2715 c-42 -69 -90 -145 -162 -256 -174 -269 -433 -579 -721
-864 -149 -148 -215 -209 -325 -300 -13 -11 -29 -25 -35 -30 -6 -6 -42 -34
-81 -64 -38 -30 -93 -77 -121 -105 -60 -60 -57 -46 -58 -366 -1 -223 4 -270
29 -270 50 0 404 262 714 528 252 216 525 502 778 816 212 263 618 915 594
954 -11 19 -67 23 -328 25 l-241 2 -43 -70z"/>
</g>
</svg>
