<?xml version="1.0" encoding="UTF-8" standalone="no"?>
<!-- Created with Inkscape (http://www.inkscape.org/) -->

<svg
   version="1.1"
   id="svg1"
   width="64"
   height="64"
   viewBox="0 0 64 64"
   sodipodi:docname="images.png"
   xmlns:inkscape="http://www.inkscape.org/namespaces/inkscape"
   xmlns:sodipodi="http://sodipodi.sourceforge.net/DTD/sodipodi-0.dtd"
   xmlns="http://www.w3.org/2000/svg"
   xmlns:svg="http://www.w3.org/2000/svg">
  <defs
     id="defs1" />
  <sodipodi:namedview
     id="namedview1"
     pagecolor="#ffffff"
     bordercolor="#000000"
     borderopacity="0.25"
     inkscape:showpageshadow="2"
     inkscape:pageopacity="0.0"
     inkscape:pagecheckerboard="0"
     inkscape:deskcolor="#d1d1d1" />
  <g
     inkscape:groupmode="layer"
     inkscape:label="Image"
     id="g1">
    <g
       id="g2"
       transform="translate(6.9166158,3.2513386)">
      <path
         style="fill:#007beb;fill-opacity:1;stroke-width:0.267761"
         d="m 22.59338,57.424321 c 0,-0.13734 -0.249303,-0.32884 -0.554003,-0.42555 -0.757405,-0.24039 -1.585876,-1.67919 -1.58709,-2.75629 -0.0012,-0.98789 0.332775,-1.76246 1.143614,-2.65302 0.676345,-0.74284 0.524259,-0.80325 -2.380809,-0.94571 -2.58946,-0.12698 -4.250779,-0.93941 -5.365528,-2.62391 -0.817081,-1.2347 -1.201869,-1.31212 -1.821477,-0.36647 -0.394801,0.60254 -0.409705,0.85465 -0.117854,1.99339 1.060142,4.13646 -3.9044361,7.14907 -6.8791121,4.17439 -1.707864,-1.70786 -1.72512,-4.29632 -0.03987,-5.98157 0.732628,-0.73263 1.207462,-0.95021 2.438172,-1.11721 0.840597,-0.11407 1.660301,-0.33935 1.821566,-0.50062 0.463813,-0.46381 0.06513,-1.0656 -0.837266,-1.2638 -1.820948,-0.39994 -3.314492,-2.41395 -3.646573,-4.9173 -0.202433,-1.52601 -0.422686,-1.64145 -1.800565,-0.94372 -1.321474,0.66917 -1.772216,1.16806 -2.07658895,2.29842 -0.848689,3.15179 -5.99771605,2.42336 -5.99771605,-0.84849 0,-0.84809 0.185592,-1.25487 0.916664,-2.00914 0.806023,-0.83161 1.076599,-0.94577 2.241734,-0.94577 1.09642005,0 1.80351805,-0.25662 4.097771,-1.48725 1.524986,-0.81799 2.772702,-1.60924 2.772702,-1.758314 0,-0.149082 -0.301579,-0.666444 -0.670176,-1.149703 -0.368596,-0.483252 -0.950465,-1.40868 -1.29304,-2.056497 -0.596144,-1.127327 -0.677259,-1.179328 -1.890845,-1.212046 -4.149228,-0.111893 -3.935415,-5.991999 0.217881,-5.991999 0.912125,0 0.972259,-0.06473 1.874682,-2.017906 0.629281,-1.361993 1.459196,-2.566583 2.553226,-3.705902 1.551917,-1.61616 1.599998,-1.706906 1.129843,-2.132391 -0.606218,-0.54862 -1.051253,-0.556957 -2.281913,-0.04276 -0.528695,0.220903 -1.288569,0.401641 -1.688608,0.401641 -1.003788,0 -2.80149195,-0.936431 -3.40968595,-1.776119 -0.55867005,-0.771316 -0.85962605,-2.638367 -0.59514705,-3.692138 0.27589505,-1.0992557 1.71431805,-2.5290467 2.852701,-2.8355817 2.170687,-0.584505 4.795333,0.86627 5.222222,2.8865877 0.085,0.402287 0.202182,0.972417 0.260398,1.266954 0.116264,0.58823 2.9302351,2.27597 3.7947261,2.27597 0.378183,0 0.688575,-0.408598 1.142691,-1.504236 0.379444,-0.915477 1.248589,-2.172488 2.220605,-3.2115757 1.776809,-1.899415 1.822926,-2.310405 0.329278,-2.934491 -3.087366,-1.289985 -2.266326,-5.737752 1.059167,-5.737752 2.141468,0 3.451895,1.746034 2.875949,3.831955 -0.407839,1.477071 -0.153561,1.624449 2.262539,1.311327 1.951743,-0.252943 4.266523,-0.116181 5.692174,0.336306 0.43481,0.138003 0.632107,0.02241 0.87622,-0.513346 0.266197,-0.58424 0.220198,-0.881358 -0.296654,-1.916241 -0.840454,-1.682861 -0.634616,-2.895466 0.6882,-4.05410496 1.219237,-1.067924 2.258352,-1.12639 3.478522,-0.19572 1.654288,1.26178396 1.693986,3.75797396 0.07988,5.02120896 -0.673307,0.526943 -0.833715,0.878343 -0.960151,2.103377 -0.144559,1.40066 -0.111769,1.504425 0.688229,2.177573 0.813134,0.68421 0.875228,0.694408 1.940198,0.318664 1.38817,-0.489775 3.53132,-0.49705 5.12509,-0.0174 1.4543,0.4376787 1.70611,0.316792 3.24036,-1.555553 0.91566,-1.11745 1.00363,-1.371124 1.05061,-3.029702 0.0393,-1.387626 0.19066,-2.005558 0.64846,-2.647352 1.21337,-1.70104296 3.64245,-2.18377096 5.53344,-1.099651 2.61443,1.498874 2.71844,5.396218 0.1891,7.085927 -0.70417,0.470416 -1.28904,0.607801 -2.5875,0.607801 h -1.67768 l -1.35874,1.6261127 c -1.30643,1.563492 -1.34425,1.654155 -0.9822,2.354282 0.51268,0.991427 1.01115,3.872538 0.80919,4.677175 -0.2457,0.978987 0.30869,1.122864 1.74125,0.451887 0.97038,-0.454499 1.38127,-0.843939 1.73403,-1.643487 0.53843,-1.220365 1.68071,-1.916012 3.14617,-1.916012 2.8614,0 4.18178,3.463557 2.11012,5.535218 -0.69631,0.696308 -1.02607,0.824488 -2.095,0.814362 -0.69775,-0.0066 -1.6301,-0.10361 -2.07191,-0.215544 -0.56138,-0.142232 -0.96455,-0.08212 -1.33881,0.199631 -0.51277,0.386027 -0.51615,0.435075 -0.0796,1.154614 1.29982,2.142364 1.90015,3.541176 2.25957,5.264975 0.44602,2.1391 0.32207,3.744596 -0.47428,6.143555 -0.28358,0.85426 -0.44791,1.662721 -0.36517,1.796581 0.0827,0.13386 0.80556,0.4499 1.6063,0.70231 1.17219,0.3695 1.59028,0.39769 2.14556,0.14469 1.29234,-0.58883 2.4622,-0.39166 3.54076,0.59676 0.84421,0.77367 0.99409,1.08039 0.99409,2.03437 0,0.95398 -0.14988,1.26069 -0.99409,2.03436 -0.82883,0.75957 -1.19846,0.91101 -2.22354,0.91101 -1.25382,0 -1.45647,-0.13837 -3.14537,-2.14763 -0.22394,-0.26644 -1.2584,-0.75858 -2.29877,-1.09366 l -1.89158,-0.60922 -1.77785,0.92669 c -1.71084,0.89174 -1.79549,0.98364 -2.24536,2.43765 -0.25713,0.83103 -0.72475,1.92719 -1.03916,2.43592 -0.73705,1.19256 -0.72042,1.67448 0.0856,2.48048 0.48619,0.48619 0.9458,0.65723 1.76607,0.65723 2.01472,0 3.53786,1.42669 3.87235,3.62714 0.19424,1.27785 -0.65708,3.13297 -1.83029,3.98838 -1.05944,0.77246 -3.59485,0.77198 -4.63,-5.7e-4 -1.6927,-1.26378 -2.21222,-2.99939 -1.60495,-5.36178 0.15686,-0.61026 0.10259,-0.93624 -0.20754,-1.24637 -0.38144,-0.38144 -0.61088,-0.32321 -2.50149,0.63486 -2.377865,1.20498 -4.456292,1.55653 -7.430974,1.25689 -1.331874,-0.13416 -1.926698,-0.0968 -2.071046,0.13028 -0.377354,0.59348 -0.213241,1.70589 0.323317,2.19146 0.747443,0.67643 1.085318,2.07472 0.773874,3.20268 -0.360776,1.30655 -1.945777,2.55547 -3.243234,2.55547 -0.555514,0 -1.01003,-0.11237 -1.01003,-0.24971 z m -0.105744,-9.16918 c 0.396821,-0.39683 0.381425,-0.49923 -0.191586,-1.27428 -0.486206,-0.65761 -0.559801,-0.94326 -0.334999,-1.30024 0.477236,-0.75784 1.049033,-0.66745 2.110502,0.33365 1.235617,1.16534 3.086239,1.7526 5.522853,1.7526 4.298136,0 7.986776,-2.55902 9.648926,-6.69402 0.4518,-1.12397 0.59537,-2.04331 0.6063,-3.88254 l 0.0143,-2.40984 0.72162,-0.0833 c 0.63971,-0.07385 0.7545,0.0388 1.01138,0.9928 0.37654,1.39836 0.63079,1.52137 1.73455,0.8392 2.10284,-1.29963 3.49317,-4.556426 3.30394,-7.739418 -0.18754,-3.154563 -1.55556,-5.52226 -4.6294,-8.012312 l -1.07104,-0.867626 0.0872,-2.253534 c 0.10379,-2.682184 -0.44236,-4.235131 -1.86277,-5.296701 -3.02713,-2.262395 -6.943989,-1.326842 -8.68422,2.074259 -0.572784,1.119446 -0.997412,1.629231 -1.406936,1.68908 -1.142906,0.167026 -1.091598,-1.80698 0.09232,-3.551575 0.364276,-0.536792 0.662323,-1.130371 0.662323,-1.319062 0,-0.510122 -1.020204,-1.3526927 -2.677613,-2.2113947 -1.330116,-0.689134 -1.732296,-0.763277 -4.154411,-0.765879 -2.488721,-0.0027 -2.809441,0.05994 -4.456188,0.869935 -2.132679,1.0490207 -3.477483,2.4660247 -4.603837,4.8510107 -0.693236,1.467887 -0.84697,2.142596 -0.892175,3.915572 -0.03004,1.178149 -0.06139,2.232457 -0.06967,2.342909 -0.02418,0.322603 -1.216601,0.230974 -1.568069,-0.120493 -0.176722,-0.176724 -0.321313,-0.704183 -0.321313,-1.172138 0,-1.383912 -0.541849,-1.59342 -2.0909071,-0.808453 -4.026295,2.040275 -6.111138,7.979174 -4.237653,12.071403 0.594282,1.298084 2.601247,3.618553 3.12967,3.618553 0.588023,0 0.465641,1.122444 -0.276133,2.532574 -1.374678,2.61331 -1.003255,5.44941 0.848221,6.47682 0.85705,0.4756 2.9432891,0.44555 4.2082761,-0.0606 0.581233,-0.23257 1.33675,-0.38318 1.678925,-0.3347 0.583183,0.0826 0.617011,0.18906 0.540269,1.6999 -0.101536,1.99896 0.577471,3.17717 2.359995,4.09504 0.986509,0.50797 1.527588,0.6027 3.009298,0.52681 1.204394,-0.0617 1.950352,-0.23633 2.238027,-0.52401 z m -3.116549,-9.34149 c -0.219538,-0.41021 -0.213519,-0.65174 0.02337,-0.93717 0.481168,-0.57977 1.525692,-0.48086 1.730315,0.16385 0.366518,1.15478 -1.183682,1.83837 -1.753682,0.77332 z m 10.184074,-0.78617 c -0.294531,-0.29453 -0.535515,-0.83676 -0.535515,-1.20492 0,-0.36818 0.240984,-0.91039 0.535515,-1.20493 0.294539,-0.29454 0.836764,-0.53552 1.204928,-0.53552 0.368178,0 0.910389,0.24098 1.204927,0.53552 0.294531,0.29454 0.535523,0.83675 0.535523,1.20493 0,0.36816 -0.240992,0.91039 -0.535523,1.20492 -0.294538,0.29453 -0.836749,0.53552 -1.204927,0.53552 -0.368164,0 -0.910389,-0.24099 -1.204928,-0.53552 z M 11.316219,33.336364 c -0.885093,-0.716702 -0.885093,-2.553598 0,-3.2703 0.676258,-0.5476 1.917453,-0.662695 2.689683,-0.249415 0.264657,0.141643 0.632831,0.623611 0.818164,1.071045 0.394377,0.952107 -0.0027,2.261671 -0.818164,2.698085 -0.77223,0.413273 -2.013425,0.298185 -2.689683,-0.249415 z m 8.426332,-2.150951 c -1.556508,-0.949102 -1.805698,-3.267251 -0.502379,-4.673561 1.893986,-2.043639 5.227529,-0.667873 5.227529,2.157428 0,1.020379 -0.1434,1.354556 -0.910389,2.121545 -1.078378,1.078382 -2.459127,1.221206 -3.814761,0.394588 z m 16.414261,-2.115959 c -0.90633,-1.001482 -0.39583,-2.544255 0.94913,-2.868331 1.03299,-0.248912 2.21464,0.932735 1.96573,1.965732 -0.32927,1.366531 -2.02094,1.89037 -2.91486,0.902599 z m -7.806571,-3.302011 c -0.977472,-0.537542 -1.460578,-1.390043 -1.466734,-2.588242 -0.0124,-2.408135 2.643028,-3.614691 4.505757,-2.047313 1.009629,0.849545 1.26296,1.922899 0.745904,3.160372 -0.61763,1.478203 -2.468019,2.199397 -3.784927,1.475183 z m -8.969998,-6.651002 c -0.297512,-0.297512 -0.535521,-0.892537 -0.535521,-1.338805 0,-0.446269 0.238009,-1.041294 0.535521,-1.338807 1.140397,-1.140395 3.213137,-0.306864 3.213137,1.292132 0,1.599234 -2.095721,2.502894 -3.213137,1.38548 z"
         id="path3" />
    </g>
  </g>
</svg>
