<?xml version="1.0" encoding="UTF-8" standalone="no"?>
<!-- Created with Inkscape (http://www.inkscape.org/) -->

<svg
   version="1.1"
   id="svg232"
   width="64"
   height="64"
   viewBox="0 0 64 64"
   sodipodi:docname="facial-recognition.svg"
   xml:space="preserve"
   inkscape:version="1.2.1 (9c6d41e, 2022-07-14)"
   inkscape:export-filename="projects/super-mario.svg"
   inkscape:export-xdpi="96"
   inkscape:export-ydpi="96"
   xmlns:inkscape="http://www.inkscape.org/namespaces/inkscape"
   xmlns:sodipodi="http://sodipodi.sourceforge.net/DTD/sodipodi-0.dtd"
   xmlns="http://www.w3.org/2000/svg"
   xmlns:svg="http://www.w3.org/2000/svg"><defs
     id="defs236" /><sodipodi:namedview
     id="namedview234"
     pagecolor="#ffffff"
     bordercolor="#000000"
     borderopacity="0.25"
     inkscape:showpageshadow="2"
     inkscape:pageopacity="0.0"
     inkscape:pagecheckerboard="0"
     inkscape:deskcolor="#d1d1d1"
     showgrid="false"
     inkscape:zoom="8.9824658"
     inkscape:cx="17.311505"
     inkscape:cy="21.764625"
     inkscape:window-width="1920"
     inkscape:window-height="1016"
     inkscape:window-x="0"
     inkscape:window-y="27"
     inkscape:window-maximized="1"
     inkscape:current-layer="g238" /><g
     inkscape:groupmode="layer"
     inkscape:label="Image"
     id="g238"><g
       id="g28"
       transform="matrix(1.5596198,0,0,1.5596198,-26.560749,-11.31407)"><path
         style="fill:#007beb;fill-opacity:1"
         d="m 21.52996,46.202881 c -0.339493,-0.339493 -0.344008,-8.270072 -0.0049,-8.609178 0.359182,-0.359183 5.756829,-0.328085 6.058082,0.0349 0.157446,0.189711 0.209409,1.544709 0.172173,4.489617 l -0.05333,4.2179 -2.965153,0.05424 c -2.139211,0.03913 -3.032483,-0.01309 -3.206869,-0.187479 z m 4.889275,-4.30704 V 38.738308 H 24.54445 22.669664 v 3.157533 3.157533 h 1.874786 1.874785 z m 4.675453,4.412326 c -0.07508,-0.07507 -0.1365,-4.019645 -0.1365,-8.765711 0,-7.686662 0.0341,-8.642295 0.312159,-8.748997 0.463228,-0.177757 5.46922,-0.139341 5.758326,0.04419 0.19527,0.123961 0.237719,2.022908 0.197346,8.828203 l -0.05144,8.67027 -2.971696,0.05427 c -1.634433,0.02985 -3.033121,-0.0072 -3.108197,-0.08223 z m 4.994491,-8.753933 v -7.499141 h -1.973458 -1.973458 v 7.499141 7.49914 h 1.973458 1.973458 z m 4.473172,8.748997 c -0.07236,-0.07236 -0.131564,-3.162795 -0.131564,-6.867634 0,-4.976038 0.06188,-6.797947 0.236815,-6.972885 0.330001,-0.330001 5.708782,-0.330001 6.038782,0 0.339157,0.339156 0.339157,13.396111 0,13.735268 -0.254858,0.254858 -5.897759,0.351525 -6.144033,0.105251 z m 4.999427,-6.972885 v -5.723029 h -1.874785 -1.874785 v 5.723029 5.723028 h 1.874785 1.874785 z m 4.583324,6.872535 c -0.316962,-0.316962 -0.352966,-23.267658 -0.03743,-23.857249 0.187397,-0.350154 0.438331,-0.381717 3.034696,-0.381717 2.147641,0 2.884215,0.06483 3.053468,0.268772 0.161682,0.194814 0.209059,3.548065 0.172174,12.186103 l -0.05089,11.917332 -2.965154,0.05424 c -2.139211,0.03913 -3.032483,-0.01309 -3.206869,-0.187479 z m 4.889275,-12.003526 v -10.85402 h -1.874785 -1.874785 v 10.85402 10.854019 h 1.874785 1.874785 z M 23.459048,33.073752 c -0.560616,-0.203994 -1.372768,-1.11173 -1.593755,-1.781326 -0.482151,-1.460933 0.498867,-3.204381 2.035965,-3.618278 0.651873,-0.175532 0.961714,-0.154211 1.665616,0.114611 l 0.864768,0.330258 0.733843,-0.555091 c 2.622623,-1.983794 4.349768,-3.398398 4.259476,-3.488691 -0.231284,-0.231283 -0.08526,-1.90808 0.217073,-2.492737 0.950265,-1.83761 3.986982,-1.857196 4.930929,-0.0318 0.16808,0.32503 0.3056,0.730781 0.3056,0.901667 0,0.384583 0.451043,0.560378 2.52102,0.982574 l 1.626326,0.331708 0.487826,-0.579749 c 0.636927,-0.756945 1.487459,-1.094732 2.413634,-0.958569 0.410494,0.06035 0.933395,0.136551 1.162001,0.169339 0.296827,0.04257 1.154435,-0.602655 3.000001,-2.257068 2.560519,-2.295315 2.582427,-2.322206 2.375497,-2.915807 -0.606639,-1.740205 0.83929,-3.551155 2.832933,-3.5481 1.556094,0.0024 2.719728,1.191535 2.722005,2.781693 0.0018,1.224276 -0.622072,2.126399 -1.811215,2.619227 -0.843079,0.349405 -0.984716,0.356273 -1.801571,0.08735 l -0.886556,-0.291866 -2.656762,2.361153 -2.656762,2.361153 0.196976,0.641805 c 0.297341,0.968828 0.02157,1.980833 -0.750043,2.752446 -1.559609,1.559609 -3.989368,0.940983 -4.726573,-1.203403 L 40.668074,25.032215 38.7442,24.632802 36.820327,24.23339 l -0.72068,0.723678 c -0.904391,0.908155 -1.881715,1.131302 -3.011355,0.687566 -0.441436,-0.173401 -0.908527,-0.251048 -1.037979,-0.172549 -0.129453,0.0785 -1.263698,0.941977 -2.520547,1.918838 l -2.285178,1.776113 0.104535,0.906649 c 0.205474,1.782102 -0.993882,3.154626 -2.729294,3.12336 -0.47562,-0.0086 -0.997971,-0.06405 -1.160781,-0.123293 z m 2.22014,-1.584527 c 0.553855,-0.499127 0.458021,-1.711554 -0.174623,-2.209192 -0.689774,-0.542577 -1.363838,-0.516597 -1.955815,0.07538 -1.458112,1.458112 0.596604,3.516083 2.130438,2.133812 z m 19.031151,-5.415449 c 0.577321,-0.542364 0.602407,-1.510941 0.05437,-2.099192 -0.52266,-0.56101 -1.620433,-0.579894 -2.163116,-0.03721 -0.542683,0.542683 -0.523798,1.640456 0.03721,2.163116 0.565424,0.526773 1.49514,0.514784 2.071536,-0.02671 z m -9.630346,-1.889721 c 1.076357,-0.893656 0.433551,-2.680614 -0.964272,-2.680614 -0.90966,0 -1.663158,0.868382 -1.497728,1.726082 0.145513,0.754432 0.773986,1.299887 1.497728,1.299887 0.301572,0 0.735494,-0.15541 0.964272,-0.345355 z m 19.088214,-6.629188 c 1.365508,-1.174561 -0.07196,-3.240929 -1.677114,-2.410869 -0.955501,0.494109 -1.108053,1.607754 -0.3272,2.388606 0.609197,0.609197 1.312875,0.617013 2.004314,0.02226 z M 24.697921,22.506616 C 24.59294,22.37094 24.452722,22.10733 24.386325,21.920814 c -0.187316,-0.526192 -1.513461,-1.00965 -2.071752,-0.755275 -0.528297,0.240708 -0.902998,0.08523 -1.60612,-0.66646 -0.403803,-0.431694 -0.450417,-0.601098 -0.290076,-1.054186 0.287995,-0.813806 -0.228783,-2.098502 -0.954296,-2.372353 -0.536624,-0.202553 -0.56245,-0.266823 -0.505417,-1.257808 0.05012,-0.870799 0.138022,-1.083024 0.528984,-1.277079 0.683087,-0.339051 1.194459,-1.598169 0.931745,-2.294177 -0.185764,-0.492145 -0.134168,-0.617349 0.526785,-1.278301 0.660952,-0.660952 0.786156,-0.712549 1.278301,-0.526785 0.696008,0.262714 1.955126,-0.248657 2.294177,-0.9317445 0.194055,-0.3909626 0.40628,-0.4788695 1.277078,-0.5289847 0.990986,-0.057032 1.055256,-0.031207 1.257809,0.5054176 0.275536,0.7299776 1.558222,1.2423956 2.381098,0.9512206 0.488929,-0.173008 0.62636,-0.11634 1.263828,0.521128 0.672428,0.672428 0.700691,0.750378 0.472129,1.302176 -0.207287,0.500433 -0.188443,0.693499 0.127861,1.310039 0.204037,0.397709 0.58837,0.830892 0.854073,0.962629 0.845348,0.419128 0.77876,2.393506 -0.08806,2.611064 -0.627621,0.157523 -1.165892,1.482569 -0.893403,2.199267 0.36001,0.9469 -0.902564,2.209473 -1.849463,1.849463 -0.590686,-0.224579 -2.112987,0.273264 -2.112987,0.691016 0,0.750352 -2.023937,1.254611 -2.510697,0.625535 z m 1.447498,-1.540801 c 0.248105,-0.556025 2.367429,-1.410893 3.106087,-1.252897 0.533629,0.114141 0.556556,0.09122 0.442415,-0.442415 -0.157996,-0.738658 0.696872,-2.857982 1.252897,-3.106087 0.518269,-0.231258 0.517271,-0.487147 -0.0026,-0.679478 -0.543836,-0.201178 -1.418221,-2.301067 -1.276177,-3.064816 0.102133,-0.549154 0.08659,-0.561104 -0.569761,-0.437973 -0.371117,0.06962 -0.727131,0.04185 -0.791142,-0.06173 -0.06401,-0.103572 -0.555209,-0.334067 -1.091552,-0.512212 -0.606217,-0.201352 -1.021029,-0.46839 -1.09638,-0.705799 -0.162615,-0.512354 -0.379037,-0.48091 -0.767176,0.111464 -0.177796,0.271351 -0.457964,0.493365 -0.622596,0.493365 -0.164632,0 -0.663906,0.185992 -1.109499,0.413316 -0.631558,0.322197 -0.908278,0.368615 -1.255196,0.210548 -0.564933,-0.257401 -0.709982,-0.112352 -0.452581,0.452581 0.158066,0.346918 0.111649,0.623639 -0.210548,1.255197 -0.227324,0.445592 -0.413316,0.944866 -0.413316,1.109498 0,0.164632 -0.222014,0.444801 -0.493365,0.622596 -0.592374,0.388139 -0.623819,0.604561 -0.111464,0.767176 0.237409,0.07535 0.504446,0.490163 0.705799,1.09638 0.178145,0.536343 0.40864,1.027541 0.512211,1.091552 0.103572,0.06401 0.131349,0.420025 0.06173,0.791142 -0.123132,0.656348 -0.111181,0.671894 0.437973,0.569761 0.763749,-0.142044 2.863637,0.732341 3.064815,1.276177 0.192332,0.519921 0.448221,0.520919 0.679479,0.0026 z m -1.977107,-2.212016 c -2.23676,-1.279042 -2.376699,-4.160582 -0.278144,-5.727379 1.027228,-0.766937 2.845426,-0.765272 3.882497,0.0036 0.286745,0.212578 0.719707,0.733378 0.962137,1.157334 1.650835,2.886945 -1.679545,6.217325 -4.56649,4.56649 z m 3.055486,-1.511003 c 1.599816,-1.599816 -0.352087,-4.321783 -2.356015,-3.285512 -0.336969,0.174254 -0.755242,0.592527 -0.929496,0.929496 -1.036271,2.003928 1.685696,3.955831 3.285511,2.356016 z"
         id="path34" /><path
         style="fill:#007beb;fill-opacity:1"
         d="m 21.492533,46.053077 c -0.120782,-0.225682 -0.204289,-1.954314 -0.204289,-4.228839 0,-3.234255 0.0494,-3.896523 0.310114,-4.157235 0.250102,-0.250102 0.806368,-0.310115 2.874489,-0.310115 1.410405,0 2.736146,0.09193 2.946091,0.204289 0.358579,0.191906 0.381717,0.45269 0.381717,4.302139 0,2.924088 -0.06783,4.165681 -0.236815,4.334664 -0.162054,0.162054 -1.12552,0.236815 -3.051916,0.236815 -2.581234,0 -2.832074,-0.03171 -3.019391,-0.381718 z m 4.926702,-4.058563 V 38.738308 H 24.54445 22.669664 v 3.256206 3.256206 h 1.874786 1.874785 z m 4.675453,4.313653 c -0.07508,-0.07507 -0.1365,-3.966982 -0.1365,-8.648682 0,-6.357459 0.05995,-8.572129 0.236815,-8.748998 0.356727,-0.356727 5.559769,-0.327742 5.858858,0.03264 0.160812,0.193767 0.209173,2.674337 0.172173,8.831225 l -0.05145,8.561772 -2.971696,0.05427 c -1.634433,0.02985 -3.033121,-0.0072 -3.108197,-0.08223 z m 4.994491,-8.655261 v -7.597813 h -1.973458 -1.973458 v 7.597813 7.597814 h 1.973458 1.973458 z m 4.578423,8.545074 c -0.339157,-0.339157 -0.339157,-13.396112 0,-13.735268 0.162054,-0.162055 1.125521,-0.236815 3.051917,-0.236815 2.581234,0 2.832073,0.03171 3.019391,0.381718 0.307369,0.574325 0.276959,13.28088 -0.03253,13.590365 -0.161796,0.161796 -1.118293,0.236815 -3.019391,0.236815 -1.901098,0 -2.857595,-0.07502 -3.019391,-0.236815 z m 4.894176,-6.768961 v -5.821702 h -1.874785 -1.874785 v 5.821702 5.821701 h 1.874785 1.874785 z m 4.670518,6.874212 c -0.07236,-0.07236 -0.131564,-5.524404 -0.131564,-12.115653 0,-10.745873 0.03225,-11.996467 0.312159,-12.103877 0.604445,-0.231947 5.516817,-0.132246 5.766092,0.117029 0.342027,0.342026 0.342027,23.655223 0,23.99725 -0.254701,0.254701 -5.700845,0.351093 -5.946687,0.105251 z m 4.951761,-12.05454 0.05101,-10.903356 h -1.975129 -1.975129 v 10.959839 10.959839 l 1.924121,-0.05648 1.924122,-0.05648 z M 23.124415,32.826618 c -1.69325,-1.03244 -1.8547,-3.205357 -0.337162,-4.537773 0.577738,-0.507261 0.848209,-0.601902 1.720153,-0.601902 0.577389,0 1.212544,0.12462 1.437219,0.281988 0.374307,0.262175 0.581892,0.142988 2.954387,-1.6963 l 2.551792,-1.978289 -0.06648,-1.154077 c -0.06406,-1.112016 -0.03759,-1.18505 0.726259,-2.003933 0.758806,-0.81348 0.841914,-0.849857 1.941638,-0.849857 0.841988,0 1.289425,0.105436 1.674945,0.394692 0.635498,0.476815 1.151395,1.299497 1.151395,1.836088 0,0.328325 0.237788,0.446053 1.430757,0.708356 2.817606,0.61952 2.673494,0.618508 3.142653,0.02207 0.774491,-0.984605 2.302494,-1.357711 3.341012,-0.815803 0.494822,0.258202 0.572189,0.215915 2.078346,-1.135955 0.860416,-0.772277 2.067798,-1.850621 2.683071,-2.39632 l 1.118678,-0.99218 -0.206121,-0.812052 c -0.270516,-1.065749 0.291624,-2.430522 1.248451,-3.031011 0.903875,-0.567257 2.515267,-0.458144 3.240562,0.21943 2.064338,1.928514 0.85581,5.111393 -1.850022,4.87237 -0.513198,-0.04533 -1.07362,-0.146372 -1.245381,-0.224529 -0.441151,-0.200737 -5.772613,4.550667 -5.601642,4.992189 0.547894,1.414905 -0.02393,2.905512 -1.363355,3.553915 -1.028911,0.498087 -1.374945,0.501554 -2.426068,0.02431 -0.824741,-0.374462 -1.163133,-0.783352 -1.561847,-1.887228 -0.202264,-0.559984 -0.322147,-0.614684 -2.214306,-1.010331 l -2.000465,-0.418293 -0.318498,0.486089 c -0.175174,0.267349 -0.72883,0.667599 -1.230347,0.889444 -0.887268,0.392481 -0.939264,0.394036 -1.92878,0.05769 l -1.016931,-0.345665 -2.445519,1.914546 -2.44552,1.914546 0.05744,1.018829 c 0.04257,0.755001 -0.04639,1.185381 -0.343551,1.662006 -0.843366,1.352717 -2.612272,1.826154 -3.896769,1.042946 z m 2.276636,-1.114001 c 1.245645,-0.872483 0.710207,-2.817192 -0.780651,-2.835323 -1.395209,-0.01697 -2.071784,1.666729 -1.07165,2.666863 0.559628,0.559628 1.209455,0.618727 1.852301,0.16846 z m 19.371344,-5.60444 c 0.42153,-0.421531 0.520644,-1.36937 0.204888,-1.959366 -0.104392,-0.195059 -0.45298,-0.463663 -0.77464,-0.596899 -1.209591,-0.501029 -2.488305,0.775079 -1.987699,1.983648 0.132583,0.320083 0.384824,0.66597 0.560536,0.768638 0.554696,0.324106 1.577154,0.22374 1.996915,-0.196021 z m -9.562301,-2.063161 c 1.184258,-1.184259 -0.124965,-3.122565 -1.675359,-2.480371 -0.572653,0.237201 -0.99778,0.919599 -0.99778,1.6016 0,0.60845 0.874083,1.363165 1.578766,1.363165 0.384503,0 0.789032,-0.179053 1.094373,-0.484394 z m 18.73004,-6.150605 c 0.359752,-0.13805 0.896897,-1.072462 0.896897,-1.560232 0,-0.511672 -1.091373,-1.474714 -1.671229,-1.474714 -0.286333,0 -0.733902,0.216387 -1.001909,0.484395 -1.227781,1.22778 0.132648,3.181256 1.776241,2.550551 z m -29.020786,4.707856 c -0.119426,-0.07974 -0.322442,-0.344947 -0.451146,-0.589342 -0.340539,-0.646647 -1.531327,-1.098705 -2.241771,-0.851043 -0.500226,0.17438 -0.646335,0.121062 -1.293499,-0.47202 -0.688052,-0.630553 -0.716459,-0.703352 -0.499126,-1.279134 0.31892,-0.844916 -0.198507,-2.09419 -0.981553,-2.369857 -0.523218,-0.184196 -0.549993,-0.251091 -0.493364,-1.232627 0.05076,-0.879824 0.135003,-1.075132 0.553242,-1.282627 0.687475,-0.341067 1.183725,-1.567588 0.930908,-2.300813 -0.173314,-0.502652 -0.119758,-0.636733 0.503139,-1.259629 0.622896,-0.622897 0.756977,-0.676453 1.259629,-0.503138 0.733225,0.252816 1.959746,-0.243434 2.300813,-0.9309085 0.207495,-0.4182389 0.402803,-0.5024823 1.282627,-0.5532427 0.981536,-0.056629 1.048431,-0.029854 1.232627,0.4933645 0.275667,0.7830457 1.524941,1.3004737 2.369857,0.9815537 0.575782,-0.217334 0.648581,-0.188927 1.279134,0.499125 0.593082,0.647165 0.646399,0.793273 0.47202,1.293499 -0.247663,0.710444 0.204396,1.901232 0.851043,2.241772 0.614365,0.323538 0.733865,0.553269 0.737351,1.41751 0.0025,0.624602 -0.09409,0.804957 -0.580789,1.084286 -0.812098,0.46608 -1.331334,1.65129 -1.021415,2.331488 0.212909,0.467283 0.167151,0.575715 -0.542361,1.285227 -0.709512,0.709512 -0.817944,0.75527 -1.285228,0.542361 -0.680197,-0.309918 -1.865407,0.209317 -2.331487,1.021415 -0.279329,0.486703 -0.459684,0.583308 -1.084287,0.580789 -0.412074,-0.0017 -0.846938,-0.06827 -0.966364,-0.148009 z m 1.226071,-1.636452 c 0.248105,-0.556025 2.367429,-1.410893 3.106087,-1.252897 0.533629,0.114141 0.556556,0.09122 0.442415,-0.442415 -0.157996,-0.738658 0.696872,-2.857982 1.252897,-3.106087 0.530226,-0.236594 0.512175,-0.400646 -0.0873,-0.793439 -0.27135,-0.177795 -0.493364,-0.435649 -0.493364,-0.573007 0,-0.137358 -0.177978,-0.598835 -0.395506,-1.025504 -0.275208,-0.539804 -0.358566,-0.972674 -0.274056,-1.423148 0.130861,-0.697553 0.06006,-0.757544 -0.524681,-0.444598 -0.286891,0.153539 -0.569393,0.105613 -1.16324,-0.197346 -0.431379,-0.220073 -0.925203,-0.400133 -1.097386,-0.400133 -0.172182,0 -0.464338,-0.265856 -0.649235,-0.59079 -0.410822,-0.7219699 -0.585463,-0.7418951 -0.831464,-0.09486 -0.104225,0.274132 -0.346242,0.546568 -0.537817,0.605415 -0.191574,0.05885 -0.724535,0.276844 -1.184358,0.484441 -0.613175,0.276831 -0.962863,0.32923 -1.311792,0.196567 -0.601477,-0.22868 -0.736283,-0.09388 -0.507602,0.507602 0.132663,0.348929 0.08026,0.698617 -0.196567,1.311792 -0.207597,0.459823 -0.425595,0.992784 -0.484442,1.184359 -0.05885,0.191574 -0.331283,0.433591 -0.605415,0.537816 -0.647031,0.246001 -0.627106,0.420642 0.09486,0.831464 0.324934,0.184897 0.59079,0.477053 0.59079,0.649236 0,0.172182 0.18006,0.666006 0.400133,1.097386 0.302958,0.593847 0.350885,0.876348 0.197346,1.163239 -0.312946,0.584745 -0.252955,0.655543 0.444598,0.524681 0.450474,-0.08451 0.883344,-0.0012 1.423148,0.274056 0.426669,0.217528 0.888146,0.395506 1.025504,0.395506 0.137358,0 0.395211,0.222014 0.573007,0.493365 0.392793,0.599477 0.556845,0.617528 0.793439,0.0873 z M 24.230134,18.74224 c -3.028084,-1.597438 -1.925213,-6.258651 1.478238,-6.247678 2.834042,0.0091 4.474504,3.140637 2.756935,5.26275 -1.177492,1.45483 -2.681438,1.804587 -4.235173,0.984928 z m 2.748285,-1.254505 c 0.70194,-0.443285 1.044984,-1.434317 0.801602,-2.315776 -0.589936,-2.136571 -3.778103,-1.823708 -4.05006,0.397442 -0.227126,1.855006 1.620759,2.94625 3.248458,1.918334 z"
         id="path33" /><path
         style="fill:#007beb;fill-opacity:1"
         d="m 21.617153,46.303231 c -0.07236,-0.07236 -0.131564,-2.060129 -0.131564,-4.417264 0,-4.277608 8.39e-4,-4.285925 0.444029,-4.404695 0.747889,-0.200426 5.083438,-0.137316 5.48932,0.07991 0.358579,0.191906 0.381717,0.45269 0.381717,4.302139 0,2.924088 -0.06783,4.165681 -0.236815,4.334664 -0.254701,0.254701 -5.700845,0.351093 -5.946687,0.105251 z m 4.95498,-4.358053 0.05422,-3.20687 h -1.978347 -1.978347 v 3.263353 3.263352 l 1.924122,-0.05648 1.924122,-0.05648 z m 4.630614,4.325627 C 31.007503,46.14686 30.965019,44.26761 31.005401,37.541274 l 0.05146,-8.571583 h 3.05886 3.05886 l 0.05146,8.571583 c 0.04038,6.726336 -0.0021,8.605586 -0.197345,8.729531 -0.136844,0.08687 -1.447682,0.157946 -2.912975,0.157946 -1.465292,0 -2.776131,-0.07108 -2.912974,-0.157946 z m 4.886432,-8.617899 v -7.597813 h -1.973458 -1.973458 v 7.597813 7.597814 h 1.973458 1.973458 z m 4.578423,8.545074 c -0.339157,-0.339157 -0.339157,-13.396112 0,-13.735268 0.289061,-0.289061 5.431929,-0.327376 5.880905,-0.04381 0.251439,0.158803 0.304602,1.168636 0.353012,6.705404 0.03824,4.373497 -0.01275,6.64876 -0.154953,6.914468 -0.196977,0.368055 -0.410764,0.396024 -3.027047,0.396024 -1.926396,0 -2.889863,-0.07476 -3.051917,-0.236815 z m 4.894176,-6.87478 v -5.927521 l -1.924121,0.05648 -1.924122,0.05648 -0.05249,5.621825 c -0.02887,3.092004 -0.0095,5.733971 0.04314,5.871038 0.06777,0.1766 0.64369,0.249213 1.976611,0.249213 h 1.880979 z m 4.670518,6.980031 c -0.07236,-0.07236 -0.131564,-5.524404 -0.131564,-12.115653 0,-10.745873 0.03225,-11.996467 0.312159,-12.103877 0.604445,-0.231947 5.516817,-0.132246 5.766092,0.117029 0.342027,0.342026 0.342027,23.655223 0,23.99725 -0.254701,0.254701 -5.700845,0.351093 -5.946687,0.105251 z M 55.231723,34.298028 V 23.345335 H 53.258265 51.284807 V 34.298028 45.25072 h 1.973458 1.973458 z M 23.100267,32.811933 c -1.271675,-0.775315 -1.697374,-2.63313 -0.893873,-3.901 0.691969,-1.09188 2.488001,-1.555157 3.659537,-0.943959 0.519272,0.270907 0.592543,0.23049 3.039778,-1.676767 l 2.50768,-1.954366 0.01908,-1.26889 c 0.02066,-1.373511 0.395256,-2.006941 1.538712,-2.601881 1.425225,-0.741544 3.534346,0.262989 3.82695,1.822702 0.135849,0.72414 0.100646,0.707606 2.493081,1.170896 l 1.721941,0.333451 0.573714,-0.614163 c 0.940613,-1.006929 2.107644,-1.278071 3.159598,-0.734085 0.542704,0.280643 0.564969,0.266161 3.19707,-2.079518 l 2.650559,-2.36213 -0.05847,-1.226023 c -0.06993,-1.46641 0.333429,-2.266515 1.397077,-2.771249 1.396019,-0.662455 2.891956,-0.217333 3.694774,1.099393 0.726959,1.192309 0.416483,2.557515 -0.817834,3.596123 -0.546433,0.459794 -0.771387,0.522317 -1.635191,0.454479 -0.550876,-0.04326 -1.148035,-0.145447 -1.32702,-0.227078 -0.243012,-0.110832 -1.005176,0.460903 -3.009523,2.257588 -1.476254,1.323304 -2.684097,2.426182 -2.684097,2.45084 0,0.02466 0.09452,0.315982 0.21005,0.647386 0.480294,1.37777 -0.702109,3.19249 -2.271999,3.487003 -1.053274,0.197596 -2.367809,-0.477461 -2.878297,-1.4781 -0.21345,-0.418397 -0.388091,-0.876657 -0.388091,-1.018355 0,-0.167399 -0.708472,-0.407292 -2.022795,-0.684931 L 36.77989,24.162002 36.41405,24.64725 c -0.750204,0.995066 -2.211867,1.337131 -3.587722,0.839615 -0.611745,-0.22121 -0.686322,-0.180313 -3.124248,1.713293 l -2.497544,1.939913 0.110781,0.901539 c 0.285798,2.325822 -2.230985,3.979966 -4.21505,2.770323 z m 2.544765,-1.360239 c 0.650364,-0.650364 0.702989,-0.974944 0.288137,-1.777178 -0.316538,-0.612117 -0.659876,-0.803498 -1.441477,-0.803498 -1.330693,0 -1.963734,1.917572 -0.907358,2.748518 0.720553,0.566786 1.379761,0.513094 2.060698,-0.167842 z m 19.127363,-5.343517 c 0.928112,-0.928112 0.237308,-2.644434 -1.064361,-2.644434 -0.964012,0 -1.580073,0.616061 -1.580073,1.580072 0,1.301669 1.716322,1.992474 2.644434,1.064362 z m -9.486922,-2.098745 c 1.120096,-1.423972 -0.317031,-3.190701 -1.920816,-2.361352 -0.935836,0.48394 -1.112356,1.479495 -0.418687,2.361352 0.577809,0.734565 1.761694,0.734565 2.339503,0 z m 18.893061,-6.283848 c 0.879824,-0.616253 0.729094,-2.196073 -0.252183,-2.643173 -0.748693,-0.341128 -1.231504,-0.269506 -1.762458,0.261449 -1.369645,1.369645 0.427052,3.493714 2.014641,2.381724 z m -29.648128,4.351308 c -0.16059,-0.639841 -1.408202,-1.145178 -2.425628,-0.982485 -0.6678,0.106786 -0.804883,0.05227 -1.27573,-0.507296 -0.58017,-0.689493 -0.618706,-0.846936 -0.336404,-1.374422 0.285397,-0.533269 -0.289278,-1.822257 -0.992311,-2.225743 -0.508804,-0.292013 -0.580239,-0.443993 -0.580239,-1.234477 0,-0.777527 0.07001,-0.933362 0.509193,-1.133469 0.280057,-0.127603 0.686437,-0.57943 0.903067,-1.00406 0.33819,-0.662906 0.359552,-0.854918 0.151101,-1.358163 -0.227877,-0.550142 -0.199484,-0.629396 0.462723,-1.291602 0.662206,-0.662206 0.74146,-0.6906 1.291602,-0.462723 0.503245,0.208451 0.695257,0.187089 1.358162,-0.1511 0.424631,-0.216631 0.876458,-0.6230111 1.00406,-0.9030675 0.200107,-0.439187 0.355942,-0.5091934 1.13347,-0.5091934 0.790484,0 0.942464,0.071435 1.234477,0.5802386 0.403486,0.7030343 1.692474,1.2777083 2.225743,0.9923113 0.527486,-0.282302 0.684929,-0.243766 1.374422,0.336404 0.55957,0.470847 0.614081,0.60793 0.507296,1.27573 -0.162693,1.017426 0.342644,2.265038 0.982484,2.425628 0.434573,0.109071 0.479061,0.221075 0.479061,1.206109 0,0.974233 -0.05207,1.109597 -0.506441,1.316623 -0.657498,0.299576 -1.103197,1.370386 -0.956659,2.298414 0.09765,0.618424 0.03055,0.797625 -0.481409,1.285694 -0.500201,0.476859 -0.701877,0.547039 -1.267237,0.440977 -0.8772,-0.164564 -1.972333,0.294438 -2.272071,0.952291 -0.207026,0.454373 -0.34239,0.506441 -1.316623,0.506441 -0.985034,0 -1.097039,-0.04449 -1.206109,-0.47906 z m 1.691483,-1.198379 c 0.103167,-0.271351 0.326521,-0.493365 0.496342,-0.493365 0.169821,0 0.667645,-0.183087 1.106276,-0.40686 0.558465,-0.284907 0.976199,-0.367613 1.393652,-0.275925 0.579112,0.127194 0.592401,0.113905 0.465207,-0.465207 -0.09169,-0.417453 -0.009,-0.835187 0.275925,-1.393652 0.223773,-0.438631 0.40686,-0.936455 0.40686,-1.106276 0,-0.169821 0.222014,-0.393175 0.493364,-0.496342 0.591596,-0.224924 0.647892,-0.70294 0.09967,-0.846303 -0.216532,-0.05663 -0.449247,-0.266795 -0.517144,-0.467045 -0.0679,-0.20025 -0.301543,-0.748254 -0.519214,-1.217786 -0.315679,-0.680942 -0.352308,-0.949075 -0.181008,-1.325037 0.256238,-0.562382 0.04171,-0.747522 -0.590853,-0.509907 -0.332809,0.125016 -0.667287,0.06986 -1.194438,-0.196963 -0.402702,-0.203832 -0.873062,-0.370604 -1.045245,-0.370604 -0.172182,0 -0.464338,-0.265856 -0.649235,-0.59079 -0.409186,-0.7190936 -0.574135,-0.7392865 -0.862848,-0.105629 -0.134099,0.294315 -0.50407,0.576881 -0.933162,0.712704 -0.391034,0.123777 -0.911688,0.351 -1.15701,0.504941 -0.343647,0.21564 -0.541046,0.229045 -0.859906,0.0584 -0.559445,-0.299406 -0.880661,0.02181 -0.581255,0.581255 0.170649,0.31886 0.157244,0.516259 -0.0584,0.859906 -0.15394,0.245322 -0.381163,0.765976 -0.50494,1.15701 -0.135823,0.429093 -0.418389,0.799063 -0.712704,0.933162 -0.633658,0.288714 -0.613465,0.453663 0.105629,0.862848 0.324934,0.184897 0.59079,0.477053 0.59079,0.649236 0,0.172182 0.166771,0.642542 0.370604,1.045244 0.266824,0.527152 0.321979,0.861629 0.196963,1.194438 -0.237616,0.632562 -0.05248,0.847092 0.509907,0.590853 0.375962,-0.1713 0.644095,-0.134671 1.325037,0.181008 0.469532,0.217671 1.017535,0.451317 1.217786,0.519214 0.20025,0.0679 0.41042,0.300612 0.467044,0.517144 0.143364,0.548223 0.62138,0.491927 0.846304,-0.09967 z m -1.480094,-1.895075 c -1.845474,-0.567442 -2.799994,-2.847667 -1.945686,-4.647988 0.77359,-1.630221 2.982226,-2.340509 4.545596,-1.461846 1.498121,0.841991 2.169057,2.593303 1.5558,4.061033 -0.428023,1.024404 -0.838259,1.459361 -1.78756,1.895282 -0.8606,0.395189 -1.456533,0.433821 -2.36815,0.153519 z m 2.499432,-1.688391 c 1.428343,-1.368439 0.419982,-3.619656 -1.62131,-3.619656 -0.86166,0 -1.963524,1.101863 -1.963524,1.963523 0,2.01852 2.163385,3.017967 3.584834,1.656133 z"
         id="path32" /><path
         style="fill:#007beb;fill-opacity:1"
         d="m 21.57393,46.183013 c -0.05314,-0.13848 -0.07255,-2.114405 -0.04314,-4.390944 l 0.05347,-4.139163 2.945159,-0.05481 c 2.223869,-0.04139 2.984347,0.0069 3.105174,0.197346 0.268516,0.423127 0.203634,8.128147 -0.07076,8.402536 -0.345416,0.345417 -5.856902,0.331645 -5.98991,-0.01497 z m 5.042651,-4.188499 v -3.256206 h -1.973459 -1.973458 v 3.256206 3.256206 h 1.973458 1.973459 z m 4.560978,4.170801 c -0.160776,-0.193724 -0.209178,-2.648646 -0.172173,-8.732553 l 0.05147,-8.463071 h 3.05886 3.05886 l 0.05148,8.463071 c 0.03701,6.083907 -0.0114,8.538829 -0.172173,8.732553 -0.169175,0.203843 -0.884825,0.26948 -2.938163,0.26948 -2.053338,0 -2.768987,-0.06564 -2.938162,-0.26948 z m 4.91162,-8.512409 v -7.597813 h -1.973458 -1.973458 v 7.597813 7.597814 h 1.973458 1.973458 z m 4.583444,8.550095 c -0.18118,-0.18118 -0.241836,-1.886555 -0.241836,-6.799355 0,-5.698254 0.04064,-6.598156 0.310115,-6.867634 0.250889,-0.250889 0.806807,-0.309538 2.910851,-0.307093 1.430404,0.0017 2.712912,0.07423 2.850016,0.161262 0.194683,0.123582 0.237906,1.668144 0.197346,7.05209 l -0.05194,6.893851 -2.86636,0.05436 c -2.062265,0.03911 -2.934203,-0.01348 -3.108197,-0.187478 z M 45.561778,39.3232 v -5.927521 l -1.924121,0.05648 -1.924122,0.05648 -0.05227,5.871038 -0.05227,5.871038 h 1.976395 1.976394 z m 4.785636,6.980897 c -0.193523,-0.07809 -0.246682,-2.667396 -0.246682,-12.015571 0,-11.579058 0.0108,-11.92181 0.381718,-12.120322 0.496474,-0.265705 5.055156,-0.265705 5.55163,0 0.370856,0.198476 0.381718,0.539885 0.381718,11.998625 0,8.910245 -0.05791,11.852245 -0.236815,12.031151 -0.235741,0.23574 -5.282725,0.32758 -5.831569,0.106117 z M 55.184043,34.248691 55.13305,23.246662 53.208928,23.19018 51.284807,23.133697 V 34.192209 45.25072 h 1.975115 1.975115 z M 23.285678,32.886195 c -1.855228,-0.944595 -1.881269,-3.94279 -0.0425,-4.893652 0.745212,-0.385364 1.845157,-0.391664 2.574042,-0.01474 0.558399,0.28876 0.581018,0.276498 3.13578,-1.699857 l 2.573324,-1.990715 -0.110031,-0.929034 c -0.244317,-2.062874 1.6224,-3.621584 3.568167,-2.979422 0.815941,0.269284 1.670211,1.205711 1.830343,2.006369 0.123763,0.618818 0.402539,0.733602 2.865389,1.179798 l 1.321531,0.239422 0.565241,-0.605093 c 0.817643,-0.875289 1.99201,-1.186927 2.992217,-0.794035 l 0.777272,0.305321 2.628824,-2.344162 2.628823,-2.344162 -0.06886,-1.181149 c -0.08258,-1.416565 0.388595,-2.352644 1.433876,-2.848662 2.921296,-1.386246 5.423056,2.268613 3.0857,4.507943 -0.676716,0.648335 -2.051432,0.884108 -2.960181,0.507692 -0.58105,-0.240679 -0.620309,-0.214661 -3.259572,2.160108 -2.35865,2.122278 -2.657183,2.460517 -2.549688,2.888811 0.299459,1.193137 0.135464,1.99203 -0.565587,2.755243 -1.484667,1.616309 -4.081075,1.001364 -4.71572,-1.116892 l -0.217294,-0.725261 -1.998442,-0.405987 -1.998442,-0.405987 -0.493365,0.560446 c -0.27135,0.308246 -0.687339,0.65821 -0.924419,0.777698 -0.585828,0.295258 -2.028523,0.261955 -2.610014,-0.06025 -0.450323,-0.249524 -0.610249,-0.158442 -3.012197,1.715517 l -2.536624,1.979032 0.111414,0.906308 c 0.273281,2.223031 -2.042512,3.860784 -4.029007,2.849354 z m 2.163929,-1.110603 c 1.298311,-0.996811 0.702798,-2.915132 -0.899732,-2.898298 -1.565447,0.01645 -2.148515,1.934232 -0.862027,2.835323 0.531736,0.372443 1.321901,0.400688 1.761759,0.06297 z m 18.9101,-5.36209 c 0.715996,-0.370257 1.089945,-1.239562 0.828747,-1.926563 -0.238659,-0.627722 -0.941127,-1.141604 -1.560552,-1.141604 -0.599923,0 -1.618348,1.018425 -1.618348,1.618348 0,0.583454 0.503596,1.317448 1.057181,1.540847 0.589658,0.237956 0.667365,0.232485 1.292972,-0.09103 z m -9.121966,-2.313184 c 0.987699,-0.927895 0.247258,-2.728441 -1.12202,-2.728441 -1.347352,0 -2.07689,1.71381 -1.149674,2.700786 0.566035,0.602517 1.645789,0.615662 2.271694,0.02766 z m 19.114896,-6.567714 c 1.426778,-1.426778 -0.560739,-3.516722 -2.15316,-2.264124 -0.390323,0.307028 -0.519979,0.586802 -0.519979,1.12202 0,1.487696 1.630789,2.184454 2.673139,1.142104 z m -29.670045,4.786533 c -0.130249,-0.130248 -0.236815,-0.35107 -0.236815,-0.490716 0,-0.40579 -1.383185,-0.88563 -2.169815,-0.75273 -0.606184,0.102414 -0.777606,0.03213 -1.342096,-0.550277 -0.561367,-0.579184 -0.621374,-0.735483 -0.452695,-1.179142 0.271956,-0.715299 -0.233107,-1.930187 -0.980838,-2.359326 -0.510686,-0.293093 -0.580239,-0.442617 -0.580239,-1.247388 0,-0.819987 0.05698,-0.935883 0.551935,-1.122709 0.733073,-0.276704 1.361329,-1.697864 1.026859,-2.322828 -0.435455,-0.813655 0.962481,-2.211591 1.776136,-1.776136 0.624964,0.33447 2.046123,-0.293786 2.322828,-1.0268592 0.186826,-0.4949591 0.302722,-0.5519347 1.122709,-0.5519347 0.804771,0 0.954295,0.069553 1.247388,0.5802386 0.429139,0.7477313 1.644027,1.2527953 2.359326,0.9808383 0.443659,-0.168678 0.599958,-0.108672 1.179142,0.452695 0.582754,0.564827 0.652728,0.735694 0.550086,1.343227 -0.148434,0.878574 0.27553,1.925174 0.906796,2.238521 0.39676,0.196944 0.484812,0.405764 0.534666,1.267993 0.05477,0.947282 0.01869,1.047806 -0.438454,1.221612 -0.651674,0.247766 -1.135255,1.39892 -0.985656,2.346333 0.09765,0.618424 0.03055,0.797625 -0.481409,1.285694 -0.500201,0.476859 -0.701877,0.547039 -1.267237,0.440977 -0.888859,-0.166751 -2.072101,0.32929 -2.316056,0.970942 -0.161888,0.425796 -0.306468,0.48779 -1.137602,0.48779 -0.523679,0 -1.058711,-0.106567 -1.188959,-0.236815 z m 1.619822,-1.440624 c 0.177796,-0.271351 0.435649,-0.493365 0.573007,-0.493365 0.137359,0 0.600612,-0.178883 1.029451,-0.397518 0.598061,-0.304909 0.902714,-0.354638 1.307699,-0.21346 0.664037,0.231484 0.774086,0.121435 0.542602,-0.542602 -0.141179,-0.404985 -0.09145,-0.709637 0.21346,-1.307698 0.218635,-0.42884 0.397518,-0.892093 0.397518,-1.029451 0,-0.137359 0.222014,-0.395212 0.493364,-0.573007 0.601505,-0.394121 0.628135,-0.71262 0.0812,-0.971122 -0.581485,-0.27483 -1.432617,-2.423536 -1.183308,-2.987295 0.246273,-0.556895 0.119284,-0.652893 -0.689952,-0.521572 -0.369279,0.05992 -0.783175,0.02023 -0.919769,-0.08822 -0.136594,-0.108447 -0.587308,-0.306402 -1.001587,-0.439898 -0.455637,-0.146824 -0.838508,-0.429879 -0.969069,-0.716429 -0.273937,-0.6012265 -0.498116,-0.59995 -0.773478,0.0044 -0.254438,0.558431 -1.648261,1.140711 -2.827978,1.181408 -0.773878,0.0267 -0.785183,0.038 -0.81188,0.81188 -0.0407,1.179717 -0.622977,2.57354 -1.181408,2.827978 -0.604354,0.275363 -0.605631,0.499541 -0.0044,0.773478 0.286549,0.130561 0.569605,0.513432 0.716429,0.96907 0.133496,0.414278 0.331451,0.864992 0.439898,1.001586 0.108448,0.136594 0.148147,0.55049 0.08822,0.919769 -0.13132,0.809236 -0.03532,0.936226 0.521573,0.689952 0.563759,-0.249309 2.712465,0.601823 2.987295,1.183308 0.258502,0.54694 0.577,0.520311 0.971121,-0.08119 z m -1.560619,-1.914986 c -1.944304,-0.677792 -2.828345,-3.007167 -1.81818,-4.79075 1.431277,-2.527109 5.2706,-2.038083 6.057243,0.77153 0.471731,1.684858 -0.590489,3.570342 -2.274865,4.037978 -0.925036,0.25682 -1.180683,0.254378 -1.964198,-0.01876 z m 1.977721,-1.257797 c 0.639722,-0.303568 1.278485,-1.277086 1.278485,-1.948497 0,-0.500232 -0.54032,-1.4312 -1.029512,-1.773844 -0.241852,-0.169399 -0.784073,-0.307998 -1.204937,-0.307998 -1.065903,0 -2.107159,1.020606 -2.107159,2.06537 0,0.93125 0.268628,1.415749 1.048661,1.891368 0.763151,0.465327 1.15852,0.479772 2.014462,0.0736 z"
         id="path31" /><path
         style="fill:#007beb;fill-opacity:1"
         d="M 21.728245,46.269628 C 21.535486,46.147286 21.48987,45.133029 21.530899,41.881706 l 0.05336,-4.2288 3.009524,-0.05448 3.009524,-0.05448 v 4.325634 c 0,3.762363 -0.04065,4.341233 -0.31216,4.445421 -0.464608,0.178287 -5.272295,0.139068 -5.562905,-0.04538 z m 4.843771,-4.32445 -0.05411,-3.305542 H 24.54445 22.570991 l -0.0547,3.050574 c -0.03008,1.677815 -0.01067,3.165309 0.04314,3.305542 0.07099,0.185003 0.642381,0.254968 2.082264,0.254968 h 1.984424 z m 4.605543,4.220137 c -0.160776,-0.193724 -0.209178,-2.648646 -0.172173,-8.732553 l 0.05147,-8.463071 h 3.05886 3.05886 l 0.05148,8.463071 c 0.03701,6.083907 -0.0114,8.538829 -0.172173,8.732553 -0.169175,0.203843 -0.884825,0.26948 -2.938163,0.26948 -2.053338,0 -2.768987,-0.06564 -2.938162,-0.26948 z m 4.91162,-8.611081 v -7.696487 h -1.973458 -1.973458 v 7.696487 7.696486 h 1.973458 1.973458 z m 4.785636,8.749863 C 40.68408,46.227133 40.628133,44.641776 40.628133,39.3139 v -6.890658 h 3.05886 3.05886 v 6.88599 c 0,6.097072 -0.03576,6.899713 -0.312159,7.005776 -0.370734,0.142264 -5.202776,0.132779 -5.558879,-0.01091 z m 4.837909,-6.924415 -0.05227,-5.871038 -2.022794,-0.05624 -2.022795,-0.05624 v 5.927278 5.927278 H 43.689933 45.765 Z m 4.633135,6.891474 c -0.19587,-0.124349 -0.237501,-2.673642 -0.197346,-12.084409 l 0.05089,-11.926814 2.945158,-0.05481 c 2.22387,-0.04139 2.984348,0.0069 3.105175,0.197345 0.274379,0.432368 0.205731,23.519023 -0.07075,23.79551 -0.27127,0.27127 -5.419368,0.335852 -5.833124,0.07318 z M 55.231723,34.199355 V 23.147989 H 53.258265 51.284807 V 34.199355 45.25072 h 1.973458 1.973458 z M 23.301224,32.859973 c -1.385769,-0.762577 -1.856021,-2.582212 -1.021192,-3.951494 0.674713,-1.106663 2.353513,-1.542779 3.552365,-0.922828 l 0.577637,0.298707 2.568047,-2.003547 2.568046,-2.003547 -0.118609,-0.74174 c -0.334766,-2.093512 1.581199,-3.808805 3.534377,-3.164198 0.849509,0.280363 1.482196,0.946897 1.813458,1.910474 l 0.257837,0.749998 2.044154,0.43704 c 1.748381,0.373803 2.067233,0.396049 2.203662,0.153743 0.619304,-1.09992 2.049312,-1.616258 3.29124,-1.188379 l 0.81453,0.280628 2.595818,-2.325511 2.595818,-2.325512 0.0078,-1.39173 c 0.0071,-1.263147 0.06099,-1.447219 0.583095,-1.992301 1.096414,-1.144669 2.693703,-1.268997 3.846046,-0.299364 2.069034,1.740977 0.544358,5.121252 -2.135188,4.733807 -0.49758,-0.07195 -1.047329,-0.148441 -1.221665,-0.169988 -0.174336,-0.02155 -1.470133,0.994526 -2.87955,2.257939 l -2.562574,2.297116 0.08913,1.074819 c 0.158487,1.911145 -0.905173,3.11063 -2.759699,3.1121 -0.759215,6.02e-4 -1.058444,-0.111576 -1.625351,-0.609326 -0.405666,-0.35618 -0.778231,-0.919813 -0.895244,-1.354364 l -0.200419,-0.7443 -2.00799,-0.42757 -2.00799,-0.427571 -0.546976,0.598863 c -0.91301,0.999617 -2.278657,1.280263 -3.395452,0.697778 -0.554298,-0.289105 -0.578289,-0.275986 -3.128296,1.710693 l -2.569714,2.002031 0.122937,0.768807 c 0.153061,0.957191 -0.410904,2.340003 -1.152528,2.825933 -0.763709,0.500401 -2.059392,0.561037 -2.837604,0.132794 z m 2.436271,-1.315816 c 1.281628,-1.281629 -0.220727,-3.223187 -1.973587,-2.550552 -0.34955,0.134135 -0.896898,1.067791 -0.896898,1.529911 0,0.159872 0.229908,0.563908 0.510907,0.897856 0.660261,0.784676 1.646373,0.83599 2.359578,0.122785 z M 44.81625,26.152031 c 0.187684,-0.187684 0.398194,-0.625996 0.4678,-0.974026 0.106385,-0.531926 0.03093,-0.728404 -0.473388,-1.232726 -0.772308,-0.772308 -1.467811,-0.779527 -2.224251,-0.02309 -0.75644,0.75644 -0.749221,1.451944 0.02309,2.224252 0.504322,0.504322 0.700799,0.579773 1.232726,0.473387 0.34803,-0.06961 0.786342,-0.280116 0.974026,-0.4678 z m -9.56579,-2.074395 c 0.980152,-0.897113 0.221644,-2.705759 -1.134739,-2.705759 -1.355903,0 -2.115932,1.81064 -1.134738,2.703323 0.816206,0.742578 1.46007,0.74327 2.269477,0.0024 z M 54.428016,17.49702 c 0.553609,-0.7038 0.523847,-1.553934 -0.07538,-2.15316 -1.19856,-1.19856 -3.24367,0.06201 -2.658717,1.638787 0.276317,0.744828 0.720738,1.034351 1.58774,1.034351 0.561509,0 0.834878,-0.123998 1.146356,-0.519978 z m -29.842841,4.54763 c -0.37953,-0.72436 -1.650225,-1.25617 -2.360696,-0.987997 -0.490681,0.185211 -0.616955,0.134561 -1.254849,-0.503332 -0.630708,-0.630708 -0.683076,-0.758203 -0.472808,-1.151094 0.341083,-0.637319 -0.201998,-1.968434 -0.984118,-2.412116 -0.502815,-0.285237 -0.59261,-0.455042 -0.59261,-1.120642 0,-0.787157 0.384821,-1.404695 0.875341,-1.404695 0.435183,0 0.945908,-1.6317 0.707223,-2.259488 -0.182824,-0.480864 -0.132126,-0.61184 0.469832,-1.213798 0.601959,-0.601959 0.732935,-0.652657 1.213799,-0.469833 0.627788,0.238685 2.259488,-0.27204 2.259488,-0.7072226 0,-0.4905201 0.617538,-0.8753413 1.404695,-0.8753413 0.6656,0 0.835405,0.089795 1.120642,0.5926105 0.443682,0.7821194 1.774797,1.3252004 2.412116,0.9841184 0.392891,-0.210269 0.520385,-0.157901 1.151094,0.472807 0.637893,0.637894 0.688543,0.764168 0.503331,1.254849 -0.268173,0.710472 0.263638,1.981166 0.987998,2.360697 0.446694,0.234046 0.511302,0.393081 0.511302,1.25859 0,0.91224 -0.04463,1.006251 -0.563616,1.18717 -0.664048,0.231488 -1.119462,1.424306 -0.909235,2.381464 0.10682,0.486347 0.02796,0.702385 -0.431425,1.181879 -0.470767,0.491375 -0.666083,0.567246 -1.201622,0.466779 -1.017556,-0.190895 -2.167988,0.246382 -2.400122,0.912281 -0.180918,0.518984 -0.274929,0.563616 -1.187169,0.563616 -0.865509,0 -1.024544,-0.06461 -1.258591,-0.511302 z m 1.636714,-0.984897 c 0.39798,-0.684006 2.462388,-1.533056 3.012144,-1.238836 0.521279,0.27898 0.846867,-0.04661 0.567887,-0.567887 -0.29422,-0.549756 0.55483,-2.614163 1.238835,-3.012144 0.653137,-0.380019 0.640675,-0.514053 -0.08257,-0.888056 -0.32562,-0.168385 -0.592037,-0.44062 -0.592037,-0.604967 0,-0.164347 -0.177123,-0.646002 -0.393606,-1.070344 -0.30359,-0.595086 -0.349839,-0.886645 -0.20223,-1.274886 0.20837,-0.548055 0.218323,-0.540386 -0.785585,-0.605266 -1.161001,-0.07503 -2.577187,-0.692529 -2.773706,-1.209415 -0.224086,-0.5893895 -0.700277,-0.601001 -0.8513,-0.02076 -0.155373,0.596953 -2.240509,1.418838 -3.113287,1.227144 -0.589175,-0.129405 -0.600501,-0.118079 -0.471096,0.471096 0.191694,0.872778 -0.630191,2.957915 -1.227144,3.113287 -0.580243,0.151023 -0.568632,0.627214 0.02076,0.8513 0.516886,0.196519 1.134383,1.612705 1.209415,2.773706 0.06488,1.003909 0.05721,0.993955 0.605266,0.785585 0.388241,-0.147609 0.6798,-0.10136 1.274886,0.20223 0.424342,0.216484 0.905997,0.393606 1.070344,0.393606 0.164347,0 0.436582,0.266417 0.604967,0.592038 0.374003,0.723241 0.508036,0.735703 0.888056,0.08257 z m -1.449468,-2.146859 c -2.038071,-0.72581 -2.845753,-2.762163 -1.845667,-4.653355 1.075663,-2.034109 3.852605,-2.348231 5.321953,-0.602009 2.143739,2.547688 -0.377332,6.358982 -3.476286,5.255364 z m 2.155905,-1.267985 c 1.248116,-0.7611 1.379409,-2.521024 0.25844,-3.464258 -1.008999,-0.849016 -2.682167,-0.586344 -3.249154,0.510089 -1.061169,2.052075 1.050104,4.137551 2.990714,2.954169 z"
         id="path30" /><path
         style="fill:#007beb;fill-opacity:1"
         d="m 21.827138,46.298026 c -0.322543,-0.08405 -0.34511,-0.417042 -0.296018,-4.368051 l 0.05314,-4.277069 h 2.960188 2.960187 l 0.05336,4.2288 c 0.04103,3.251323 -0.0046,4.26558 -0.197346,4.387922 -0.259893,0.164952 -4.917737,0.188857 -5.533516,0.0284 z m 4.789443,-4.409088 v -3.361783 l -2.022795,0.05624 -2.022795,0.05624 -0.05411,3.305542 -0.05411,3.305542 h 2.076903 2.076903 z m 4.686962,4.332704 C 30.98319,46.035053 30.958407,45.41759 30.96121,37.692437 c 0.0017,-4.58043 0.07503,-8.441524 0.163038,-8.580209 0.120827,-0.1904 0.881305,-0.238731 3.105175,-0.197346 l 2.945158,0.05481 0.05187,8.48587 c 0.04769,7.80243 0.02479,8.505737 -0.284401,8.732552 -0.415158,0.304551 -5.125106,0.332558 -5.638509,0.03353 z m 4.785636,-8.667408 v -7.696487 h -1.973458 -1.973458 v 7.696487 7.696486 h 1.973458 1.973458 z m 4.785636,8.749863 c -0.19074,-0.07697 -0.246682,-1.663349 -0.246682,-6.995337 v -6.895798 l 3.009524,0.05448 3.009523,0.05448 0.05197,6.795157 c 0.04057,5.304976 -0.0027,6.829863 -0.197346,6.953418 -0.267554,0.169839 -5.216125,0.199394 -5.626989,0.03361 z m 4.884309,-6.973751 v -5.920374 h -2.072131 -2.072131 v 5.920374 5.920374 h 2.072131 2.072131 z m 4.673244,6.857767 C 50.12161,45.959853 50.10037,45.057136 50.147967,34.100682 l 0.05144,-11.840749 2.945158,-0.05481 c 2.22387,-0.04139 2.984348,0.0069 3.105175,0.197345 0.08801,0.138685 0.161376,5.463141 0.163038,11.832125 0.0027,10.26675 -0.03215,11.615139 -0.307093,11.890085 -0.402795,0.402795 -5.139203,0.455752 -5.673315,0.06343 z M 55.231723,34.192451 V 23.134182 l -2.022795,0.05624 -2.022794,0.05624 -0.05127,10.755347 c -0.0282,5.915441 -0.0088,10.866354 0.04314,11.002029 0.06686,0.174677 0.672266,0.246682 2.074068,0.246682 h 1.979652 z M 23.55772,32.934044 c -2.121971,-0.943118 -2.252876,-3.962442 -0.213746,-4.930072 0.831279,-0.394468 1.504799,-0.401312 2.406745,-0.02445 l 0.700228,0.292574 2.549384,-1.986193 2.549385,-1.986194 -0.120404,-0.75296 c -0.327831,-2.050143 1.468616,-3.702073 3.446703,-3.169429 0.908512,0.244637 1.512529,0.855735 1.869464,1.891382 l 0.269041,0.78062 2.00524,0.419723 2.00524,0.419723 0.765078,-0.765078 c 0.751671,-0.751671 1.132242,-0.873763 2.39028,-0.766833 0.27135,0.02306 0.649144,0.125023 0.839541,0.226574 0.281612,0.150201 0.842006,-0.261806 3.004605,-2.209013 l 2.658426,-2.393652 -0.112865,-1.11662 c -0.09695,-0.959144 -0.04699,-1.21403 0.354209,-1.80733 1.317538,-1.948382 3.977469,-1.689997 4.800992,0.466367 0.424545,1.111654 0.153627,2.246288 -0.709826,2.972836 -0.747935,0.629346 -1.368789,0.794066 -2.310589,0.613028 -0.401134,-0.07711 -0.875649,-0.154549 -1.054478,-0.172092 -0.178829,-0.01754 -1.482211,0.989369 -2.896405,2.237581 l -2.571261,2.269477 0.108466,1.097667 c 0.182227,1.84413 -0.877011,3.14287 -2.564644,3.14453 -1.330781,0.0013 -2.703704,-1.066525 -2.703704,-2.102891 0,-0.556111 -0.224863,-0.654994 -2.593268,-1.140387 l -1.705211,-0.349475 -0.669717,0.730788 c -0.817915,0.8925 -2.084171,1.141033 -3.137144,0.615741 -0.637863,-0.318208 -0.649902,-0.315165 -1.547762,0.391132 -0.497695,0.391508 -1.674619,1.302254 -2.615388,2.023879 -1.523267,1.168435 -1.696832,1.366046 -1.585721,1.805409 0.32818,1.297725 -0.211582,2.582078 -1.338338,3.184551 -0.803227,0.429483 -1.449671,0.454825 -2.272556,0.08909 z m 2.179775,-1.389887 c 1.391338,-1.391339 -0.490581,-3.50207 -2.151896,-2.413534 -0.641493,0.420322 -0.83139,1.317975 -0.439239,2.076311 0.347841,0.67265 0.549601,0.784313 1.456396,0.806037 0.441783,0.01058 0.805687,-0.139763 1.134739,-0.468814 z m 19.05008,-5.4208 c 0.347757,-0.347757 0.576857,-0.784856 0.576857,-1.100582 0,-0.315727 -0.2291,-0.752826 -0.576857,-1.100583 -0.743076,-0.743076 -1.551004,-0.763324 -2.257746,-0.05658 -0.706742,0.706742 -0.686495,1.51467 0.05658,2.257746 0.748531,0.748531 1.452633,0.748531 2.201164,0 z M 34.89099,24.438036 c 0.638703,-0.330286 0.803498,-0.655956 0.803498,-1.587882 0,-0.784638 -0.740791,-1.478277 -1.578767,-1.478277 -1.700334,0 -2.207761,2.297235 -0.69071,3.126997 0.532287,0.291139 0.807411,0.279721 1.465979,-0.06084 z m 19.502013,-6.941355 c 0.943167,-1.037462 0.211054,-2.637216 -1.206898,-2.637216 -0.519443,0 -0.803993,0.144817 -1.193045,0.607179 -0.280999,0.333949 -0.510907,0.729395 -0.510907,0.878771 0,0.589635 0.513708,1.346362 1.080618,1.591824 0.736389,0.318844 1.252878,0.194518 1.830232,-0.440558 z m -29.797961,4.539191 c -0.327809,-0.719462 -1.624821,-1.260705 -2.357961,-0.983976 -0.478386,0.18057 -0.619182,0.134512 -1.157326,-0.378593 -0.530158,-0.505491 -0.597398,-0.680959 -0.499215,-1.302754 0.145074,-0.918763 -0.334835,-2.098891 -0.948396,-2.332166 -0.514965,-0.19579 -0.713509,-0.575594 -0.709028,-1.356338 0.0038,-0.659478 0.179566,-0.93137 0.708794,-1.096338 0.556026,-0.173322 1.070281,-1.509906 0.925117,-2.404445 -0.08974,-0.553 -0.01757,-0.793596 0.358777,-1.196073 0.390095,-0.417182 0.599326,-0.48682 1.216669,-0.404945 0.951985,0.126258 2.260969,-0.373483 2.434237,-0.9293373 0.164967,-0.5292274 0.43686,-0.705009 1.096337,-0.7087937 0.780745,-0.00448 1.160549,0.1940629 1.356339,0.7090285 0.233275,0.6135615 1.413403,1.0934705 2.332166,0.9483955 0.621795,-0.09818 0.797262,-0.03094 1.302754,0.499215 0.510863,0.535793 0.55865,0.680299 0.380794,1.151494 -0.265522,0.703449 0.270183,1.976487 0.990553,2.353927 0.442993,0.232107 0.511302,0.395681 0.511302,1.224382 0,0.856951 -0.05647,0.98006 -0.542701,1.183041 -0.767746,0.320503 -1.281632,1.576204 -0.976201,2.385384 0.207126,0.548738 0.174199,0.647842 -0.409015,1.231055 -0.583213,0.583214 -0.682317,0.616141 -1.231055,0.409015 -0.80918,-0.305431 -2.064881,0.208455 -2.385385,0.976201 -0.203461,0.487379 -0.325132,0.542701 -1.193574,0.542701 -0.853223,0 -0.994902,-0.0612 -1.203982,-0.52008 z m 1.62877,-0.965071 c 0.104224,-0.274132 0.346242,-0.546568 0.537816,-0.605415 0.191574,-0.05885 0.729932,-0.279466 1.196349,-0.490267 0.665122,-0.300605 0.935724,-0.336342 1.254598,-0.165686 0.549764,0.294225 0.872086,-0.0281 0.577861,-0.57786 -0.170656,-0.318875 -0.13492,-0.589477 0.165686,-1.254599 0.210801,-0.466417 0.431421,-1.004774 0.490267,-1.196349 0.05885,-0.191574 0.331283,-0.433591 0.605415,-0.537816 0.631137,-0.239958 0.635056,-0.540167 0.01077,-0.824613 C 30.772105,15.285851 30.480706,14.908513 30.341937,14.485034 30.2138,14.094 29.982905,13.580206 29.828838,13.343269 c -0.215427,-0.331301 -0.229197,-0.525948 -0.05962,-0.842798 0.299289,-0.559227 0.07542,-0.844721 -0.556589,-0.709806 -0.719356,0.15356 -2.826102,-0.723356 -3.024171,-1.258787 -0.19158,-0.517892 -0.678158,-0.530151 -0.811449,-0.02045 -0.153538,0.587129 -2.190203,1.428702 -3.061833,1.265183 l -0.686306,-0.128752 0.128752,0.686306 c 0.163519,0.87163 -0.678054,2.908296 -1.265183,3.061833 -0.509706,0.133291 -0.497446,0.619869 0.02045,0.811449 0.535431,0.198069 1.412347,2.304815 1.258786,3.024171 -0.134915,0.63201 0.15058,0.855878 0.709807,0.556589 0.31685,-0.169573 0.511497,-0.155803 0.842798,0.05962 0.236937,0.154067 0.750731,0.384962 1.141765,0.513099 0.423479,0.138769 0.800817,0.430168 0.933162,0.720633 0.284446,0.62429 0.584655,0.620371 0.824613,-0.01077 z m -2.192879,-2.512695 c -0.778135,-0.517111 -1.558615,-1.929913 -1.558615,-2.821361 0,-1.018938 0.797441,-2.277631 1.768223,-2.790993 1.080886,-0.571586 1.857785,-0.574305 2.974005,-0.01041 1.319947,0.666816 1.822186,1.54225 1.73139,3.017919 -0.08579,1.394283 -0.58761,2.24247 -1.615247,2.730116 -0.99619,0.472723 -2.484959,0.416203 -3.299756,-0.125273 z m 2.897393,-0.913197 c 1.248116,-0.7611 1.379409,-2.521024 0.25844,-3.464258 -1.417423,-1.192682 -3.530373,-0.261744 -3.530373,1.555437 0,1.81203 1.753291,2.834887 3.271933,1.908821 z"
         id="path29" /><path
         style="fill:#007beb;fill-opacity:1"
         d="m 21.573842,45.985439 c -0.05319,-0.138606 -0.0726,-2.070128 -0.04314,-4.292272 l 0.05356,-4.040261 h 2.960188 2.960187 l 0.05319,4.292272 0.05318,4.292271 h -2.97023 c -2.227627,0 -2.994407,-0.06301 -3.066935,-0.25201 z m 5.042739,-4.089598 V 38.540963 H 24.54445 22.472318 v 3.354878 3.354879 h 2.072132 2.072131 z m 4.461394,4.029449 c -0.06588,-0.171687 -0.119787,-3.972568 -0.119787,-8.446401 0,-6.063504 0.06029,-8.194527 0.236815,-8.371056 0.329418,-0.329418 5.512018,-0.329418 5.841436,0 0.176529,0.176529 0.236815,2.307552 0.236815,8.371056 0,4.473833 -0.0539,8.274714 -0.119786,8.446401 -0.101757,0.265173 -0.558999,0.312159 -3.037747,0.312159 -2.478748,0 -2.93599,-0.04699 -3.037746,-0.312159 z m 5.011204,-8.371056 v -7.696487 h -1.973458 -1.973458 v 7.696487 7.696486 h 1.973458 1.973458 z m 4.585727,1.830602 0.0519,-6.862921 h 2.960187 2.960187 v 6.808431 6.80843 l -3.012086,0.05449 -3.012087,0.05449 z m 5.084218,-0.05449 v -5.920374 h -2.072131 -2.072131 v 5.920374 5.920374 h 2.072131 2.072131 z m 4.432224,6.660421 c -0.05189,-0.135675 -0.0713,-5.530616 -0.04314,-11.988758 l 0.0512,-11.742076 h 2.960187 2.960187 l 0.05087,11.988758 0.05086,11.988758 H 53.2536 c -2.192448,0 -2.99256,-0.06445 -3.062252,-0.246682 z M 55.231723,34.199355 V 23.147989 H 53.159592 51.087461 V 34.199355 45.25072 h 2.072131 2.072131 z M 23.783198,33.009714 c -2.403726,-0.720332 -2.524149,-4.054413 -0.18248,-5.052186 0.828632,-0.353075 1.326875,-0.341406 2.152576,0.05042 l 0.676457,0.320999 1.228153,-0.956383 c 4.330838,-3.372496 4.028352,-3.073682 3.824377,-3.777944 -0.139886,-0.482987 -0.100495,-0.860069 0.161517,-1.546137 0.422368,-1.105956 1.23521,-1.661551 2.432387,-1.662592 1.448233,-0.0013 2.386839,0.727385 2.684861,2.084269 0.128179,0.583599 0.185146,0.610251 2.198316,1.028491 l 2.066728,0.429368 0.673756,-0.735368 c 0.63793,-0.696263 0.734912,-0.734035 1.823816,-0.710316 0.632533,0.01378 1.338308,0.05818 1.568388,0.09867 0.52948,0.09318 5.735377,-4.482444 5.63401,-4.951908 -0.358285,-1.659331 -0.170359,-2.453153 0.767585,-3.242381 0.831111,-0.699334 1.818918,-0.815781 2.817892,-0.332185 1.017512,0.492568 1.512459,1.2831 1.511486,2.414152 -9.31e-4,1.082294 -0.534515,1.97479 -1.436546,2.402832 -0.845035,0.400995 -1.334424,0.413609 -2.189281,0.05643 l -0.6537,-0.273134 -2.78386,2.474949 c -2.333617,2.074666 -2.753504,2.531669 -2.596167,2.825655 0.543504,1.015547 0.01016,2.609953 -1.12294,3.356993 -1.522777,1.003948 -4.017704,-0.21781 -4.017704,-1.967457 0,-0.405938 -0.101558,-0.439342 -3.108836,-1.02252 -1.224388,-0.237437 -1.237272,-0.235215 -1.645528,0.283798 -0.837927,1.065253 -2.209953,1.393965 -3.35241,0.803177 -0.323418,-0.167246 -0.696432,-0.238343 -0.82892,-0.157993 -0.132488,0.08035 -1.306227,0.983278 -2.608309,2.006509 l -2.367423,1.86042 0.06479,1.12472 c 0.05718,0.992712 2.73e-4,1.201391 -0.484878,1.77796 -0.528969,0.628645 -1.563926,1.209994 -2.091185,1.174646 -0.139161,-0.0093 -0.506778,-0.09301 -0.816926,-0.185949 z m 2.029676,-1.501141 c 0.913842,-1.161763 0.17016,-2.716493 -1.299395,-2.716493 -0.87381,0 -1.646469,0.787305 -1.646469,1.677679 0,1.422953 2.069623,2.152773 2.945864,1.038814 z m 18.974701,-5.385216 c 0.642874,-0.642873 0.716358,-1.146438 0.288138,-1.974524 -0.756987,-1.463851 -3.066159,-0.840834 -3.066159,0.827253 0,1.56174 1.672741,2.252552 2.778021,1.147271 z M 34.784132,24.537888 c 0.621775,-0.236398 1.173953,-1.258058 0.996515,-1.84379 -0.521546,-1.721651 -2.711056,-1.773085 -3.310997,-0.07778 -0.183275,0.517894 0.370189,1.692169 0.897256,1.903698 0.598732,0.240289 0.824727,0.243139 1.417226,0.01787 z m 19.128481,-6.553125 c 0.649412,-0.345879 0.911194,-0.783201 0.918142,-1.533812 0.01791,-1.934893 -2.788546,-2.217296 -3.262652,-0.328308 -0.158366,0.630981 0.278501,1.521581 0.900779,1.836334 0.615649,0.311402 0.897999,0.316445 1.443731,0.02579 z m -29.279907,4.039562 c -0.269394,-0.765236 -1.536125,-1.303982 -2.376874,-1.010896 -0.536,0.186851 -0.663145,0.148781 -1.194309,-0.357593 -0.511525,-0.487653 -0.57862,-0.666946 -0.480983,-1.285287 0.14571,-0.922786 -0.330793,-2.085066 -0.97519,-2.378673 -0.421578,-0.192083 -0.48791,-0.352722 -0.48791,-1.181589 0,-0.838332 0.06385,-0.988377 0.506441,-1.190033 0.65772,-0.299678 1.126674,-1.420554 0.973544,-2.326926 -0.100268,-0.593478 -0.03226,-0.778423 0.45949,-1.249548 0.480789,-0.460626 0.688363,-0.532281 1.242972,-0.42908 0.871635,0.162194 2.002203,-0.315223 2.30137,-0.971822 0.201655,-0.4425865 0.351701,-0.5064411 1.190032,-0.5064411 0.828867,0 0.989506,0.066332 1.18159,0.48791 0.293607,0.6443971 1.455887,1.1209001 2.378673,0.9751901 0.61834,-0.09764 0.797634,-0.03054 1.285286,0.480983 0.507611,0.53246 0.544755,0.657419 0.356199,1.198311 -0.162401,0.465863 -0.145615,0.728263 0.07345,1.14822 0.156178,0.299397 0.284506,0.646678 0.285175,0.771735 6.69e-4,0.125057 0.272616,0.321988 0.604328,0.437623 0.572299,0.199504 0.600025,0.258224 0.542701,1.149338 -0.04875,0.757802 -0.150525,0.983803 -0.527205,1.170692 -0.6931,0.343881 -1.260133,1.722757 -0.970161,2.359177 0.204168,0.448099 0.155698,0.568098 -0.490456,1.214252 -0.646154,0.646155 -0.766153,0.694624 -1.214252,0.490456 -0.63642,-0.289972 -2.015296,0.277061 -2.359177,0.970161 -0.186889,0.37668 -0.41289,0.478456 -1.170692,0.527205 -0.874052,0.05623 -0.952595,0.02206 -1.134044,-0.493365 z m 1.581828,-0.929123 c 0.115349,-0.30339 0.451018,-0.561279 0.932509,-0.716429 0.413757,-0.133324 0.85913,-0.32706 0.989719,-0.430524 0.130589,-0.103463 0.574617,-0.158494 0.986729,-0.12229 l 0.749295,0.06583 -0.06583,-0.749296 c -0.0362,-0.412112 0.01883,-0.85614 0.122291,-0.986729 0.103464,-0.130588 0.297199,-0.575962 0.430524,-0.989719 0.15515,-0.481491 0.413038,-0.817159 0.716429,-0.932508 0.607899,-0.231123 0.610557,-0.704973 0.0048,-0.857007 -0.581413,-0.145925 -1.175701,-1.603146 -1.164655,-2.855788 0.0075,-0.850693 0.0021,-0.857535 -0.586797,-0.739761 -0.815799,0.16316 -2.820418,-0.623738 -3.092103,-1.213782 -0.269339,-0.5849493 -0.687107,-0.563621 -0.966389,0.04934 -0.123636,0.271351 -0.341127,0.493365 -0.483315,0.493365 -0.142187,0 -0.607615,0.177978 -1.034284,0.395506 -0.553485,0.282183 -0.969003,0.359254 -1.450183,0.268984 l -0.67442,-0.126522 0.126522,0.67442 c 0.09027,0.48118 0.0132,0.896698 -0.268984,1.450183 -0.217528,0.426669 -0.395506,0.892097 -0.395506,1.034285 0,0.142187 -0.222014,0.359678 -0.493365,0.483314 -0.612957,0.279282 -0.634285,0.69705 -0.04934,0.966389 0.590043,0.271685 1.376941,2.276304 1.213782,3.092103 -0.117774,0.588871 -0.110932,0.594298 0.739761,0.586797 1.252642,-0.01105 2.709863,0.583242 2.855788,1.164655 0.152034,0.60575 0.625884,0.603092 0.857006,-0.0048 z m -1.92495,-2.420599 c -2.665578,-1.313744 -2.160233,-5.228331 0.775823,-6.009804 0.79095,-0.210523 1.040014,-0.196218 1.828844,0.105039 1.278614,0.488307 1.947415,1.418942 2.047411,2.848969 0.06482,0.926968 -7.73e-4,1.231359 -0.388191,1.801458 -1.015022,1.493641 -2.745467,2.002699 -4.263887,1.254338 z m 3.037441,-1.32858 c 0.772955,-0.772955 0.896796,-1.747359 0.341544,-2.687326 -1.114589,-1.886848 -4.008104,-1.123695 -4.070387,1.073549 -0.03779,1.333049 0.906687,2.269884 2.298086,2.279501 0.604789,0.0042 0.896658,-0.131625 1.430757,-0.665724 z"
         id="path28" /></g></g></svg>
