<?xml version="1.0" encoding="UTF-8" standalone="no"?>
<!-- Created with Inkscape (http://www.inkscape.org/) -->

<svg
   version="1.1"
   id="svg232"
   width="64"
   height="64"
   viewBox="0 0 64 64"
   sodipodi:docname="facial-recognition.svg"
   xml:space="preserve"
   inkscape:version="1.2.1 (9c6d41e, 2022-07-14)"
   inkscape:export-filename="iot.svg"
   inkscape:export-xdpi="96"
   inkscape:export-ydpi="96"
   xmlns:inkscape="http://www.inkscape.org/namespaces/inkscape"
   xmlns:sodipodi="http://sodipodi.sourceforge.net/DTD/sodipodi-0.dtd"
   xmlns="http://www.w3.org/2000/svg"
   xmlns:svg="http://www.w3.org/2000/svg"><defs
     id="defs236" /><sodipodi:namedview
     id="namedview234"
     pagecolor="#ffffff"
     bordercolor="#000000"
     borderopacity="0.25"
     inkscape:showpageshadow="2"
     inkscape:pageopacity="0.0"
     inkscape:pagecheckerboard="0"
     inkscape:deskcolor="#d1d1d1"
     showgrid="false"
     inkscape:zoom="8.9824658"
     inkscape:cx="17.311505"
     inkscape:cy="21.764625"
     inkscape:window-width="1920"
     inkscape:window-height="1016"
     inkscape:window-x="0"
     inkscape:window-y="27"
     inkscape:window-maximized="1"
     inkscape:current-layer="g238" /><g
     inkscape:groupmode="layer"
     inkscape:label="Image"
     id="g238"><path
       style="line-height:normal;-inkscape-font-specification:Sans;text-indent:0;text-align:start;text-transform:none;fill:#007beb;fill-opacity:1;stroke-width:1.3187"
       d="m 32.845044,1.6238842 c -16.386171,0 -24.9728872,18.2214718 -24.9728872,24.5195848 0,2.956159 0.5771675,5.026218 1.1538628,6.428664 -0.8472781,0.284378 -1.5384393,0.938854 -2.0192599,1.772003 -0.641094,1.110867 -0.9890252,2.577271 -0.9890252,4.368198 0,2.778699 0.9977761,5.509306 2.348935,7.623736 1.3511601,2.114417 3.0116145,3.832473 5.1923825,3.832473 0.02918,0 0.05354,5.41e-4 0.08242,0 1.490186,5.146597 5.819283,7.061456 8.365504,8.200668 0.443084,0.197805 0.864079,0.402863 1.195073,0.576931 0.614514,0.320444 1.162104,0.630009 1.689584,0.947816 2.032117,1.22771 3.933354,2.390144 8.03583,2.390144 4.102477,0 6.003713,-1.163753 8.03583,-2.390144 0.527481,-0.317807 1.075071,-0.627372 1.689585,-0.947816 0.330994,-0.174068 0.751989,-0.379126 1.195072,-0.576931 2.546222,-1.139212 6.875319,-3.054466 8.365506,-8.200668 0.02888,5.41e-4 0.05324,0 0.08242,0 2.180768,0 3.841223,-1.718056 5.192383,-3.832473 1.35116,-2.11443 2.348935,-4.845037 2.348935,-7.623736 0,-1.790927 -0.347931,-3.257331 -0.989025,-4.368198 -0.470668,-0.815556 -1.154507,-1.43646 -1.978051,-1.730794 0.581842,-1.401839 1.153863,-3.487449 1.153863,-6.469873 0,-6.298113 -8.586717,-24.5195848 -24.972887,-24.5195848 -0.03692,0 -0.04681,-0.00132 -0.08242,0 -0.03692,-0.00132 -0.08671,0 -0.123628,0 z m -2.513773,3.3379602 2.596191,2.6374007 v 0.082419 l 0.04121,-0.041209 v -0.041209 l 2.596191,-2.6374007 3.585217,7.0468056 -2.225307,1.483538 -1.772004,-5.686896 -2.142888,2.67861 -0.04121,-0.04121 v -0.04121 h -0.04121 v 0.04121 l -0.04121,0.04121 -2.142888,-2.67861 -1.772004,5.686896 -2.225306,-1.483538 z m 2.637401,9.8490436 c 16.618261,0.01187 21.057996,10.459931 21.057996,11.868303 0,2.762677 -1.252766,3.874341 -1.318701,3.956101 h -2.596191 c 0.0053,-0.0053 1.153533,-2.307726 1.277491,-3.956101 -0.300664,-1.407053 -4.770728,-9.208485 -18.420595,-9.230902 -0.0092,0 -0.03198,0 -0.04121,0 -13.649867,0.02242 -18.119931,7.823849 -18.420594,9.230902 0.123957,1.648375 1.313425,3.950826 1.3187,3.956101 0.520818,-0.403635 1.43715,-0.980181 2.596191,-1.607166 a 1.3297612,1.3297612 0 0 0 2.184097,1.030234 c 0,0 1.740474,-1.359909 3.37917,-1.359909 2.543855,0 3.791263,2.513772 3.791263,2.513772 a 1.3270449,1.3270449 0 0 0 2.390145,-1.153863 c 0,0 -1.440288,-2.962085 -4.533033,-3.791263 2.192823,-0.540869 4.638107,-0.904174 7.335271,-0.906607 2.671913,0.0024 5.075237,0.37403 7.252852,0.906607 -3.092746,0.829178 -4.533033,3.791263 -4.533033,3.791263 a 1.3270449,1.3270449 0 0 0 2.390145,1.153863 c 0,0 1.247408,-2.513772 3.791263,-2.513772 1.638696,0 3.37917,1.359909 3.37917,1.359909 a 1.3297612,1.3297612 0 0 0 2.184097,-1.071444 c 1.194305,0.641478 2.106153,1.236659 2.637401,1.648376 -0.540668,1.434746 -1.318701,3.606975 -1.318701,5.151173 0,0.898035 0.267037,2.50883 0.576932,4.368197 0.362642,2.170581 0.782978,4.636551 0.782978,6.098989 0,6.451082 -4.237643,8.339461 -7.335271,9.725415 -0.49715,0.222861 -0.946826,0.422973 -1.3187,0.618141 -0.665944,0.348137 -1.282106,0.684735 -1.854422,1.030235 -1.85673,1.118258 -3.306641,2.01926 -6.675921,2.01926 -3.369279,0 -4.81919,-0.899684 -6.67592,-2.01926 -0.572316,-0.3455 -1.188479,-0.682098 -1.854422,-1.030235 -0.371874,-0.193849 -0.821551,-0.39528 -1.318701,-0.618141 -3.098945,-1.385954 -7.33527,-3.274333 -7.33527,-9.725415 0,-1.462438 0.420336,-3.929727 0.782978,-6.098989 0.309895,-1.858048 0.576932,-3.470162 0.576932,-4.368197 0,-1.504871 -0.739389,-3.593484 -1.277491,-5.027545 v -0.123628 h -0.04121 -2.596191 c -0.06593,-0.08176 -1.318701,-1.193424 -1.318701,-3.956101 0,-1.408372 4.479625,-11.856435 21.099206,-11.868303 z m -7.294061,18.461804 c -1.092447,0 -1.978051,1.447178 -1.978051,3.255542 0,1.479782 0.587018,2.726336 1.401119,3.131916 -0.867623,1.197393 -1.401119,2.612306 -1.401119,4.162148 0,0.324281 0.03938,0.635653 0.08242,0.947816 -4.526577,-1.140492 -5.027546,-2.967076 -5.027546,-2.967076 0,0 -0.906607,0.666603 -0.906607,3.708844 0,3.584228 2.925867,3.750054 2.925867,3.750054 0,0 0.328026,3.502798 3.420379,3.502798 1.335843,0 2.082557,-0.569349 2.184097,-0.618141 0.174069,0.176706 1.588375,2.225307 3.708845,2.225307 1.648375,0 2.802238,-0.989025 2.802238,-0.989025 0,0 1.291667,0.947816 3.049495,0.947816 1.993874,0 3.544007,-2.142888 3.544007,-2.142888 0,0 0.755285,0.576931 2.266516,0.576931 1.51123,0 3.040593,-1.083312 3.420379,-3.544007 1.229028,0 2.843447,-1.546506 2.843447,-3.585216 0,-3.056748 -0.906606,-3.791264 -0.906606,-3.791264 -1.011025,1.429682 -2.649311,2.32864 -5.027545,2.925867 0.04304,-0.312163 0.08242,-0.623535 0.08242,-0.947816 0,-1.549842 -0.533496,-2.964755 -1.401119,-4.162148 0.814101,-0.40558 1.401119,-1.652134 1.401119,-3.131916 0,-1.808364 -0.885604,-3.255542 -1.978051,-3.255542 -1.092447,0 -1.97805,1.447178 -1.97805,3.255542 0,0.301391 0.03636,0.588222 0.08242,0.8654 -1.528174,-0.931678 -3.385364,-1.483541 -5.35722,-1.483541 -1.971855,0 -3.829045,0.551863 -5.35722,1.483541 0.04606,-0.277178 0.08242,-0.564009 0.08242,-0.8654 0,-1.808364 -0.885603,-3.255542 -1.97805,-3.255542 z M 9.9326261,35.044696 c 1.1083489,0 2.9721649,0.391638 4.4094039,1.813216 -0.101527,0.808046 -0.233746,1.78039 -0.412094,2.843447 -0.379785,2.272121 -0.824187,4.870949 -0.824187,6.552292 0,0.408336 0.05448,0.772877 0.08242,1.153863 C 12.575216,47.14177 11.485706,46.333538 10.591976,44.934951 9.4920022,43.213599 8.6551351,40.84578 8.6551351,38.712334 c 0,-1.441208 0.2883418,-2.478032 0.6181408,-3.049497 0.3297991,-0.571466 0.5890912,-0.618141 0.6593502,-0.618141 z m 45.9896729,0 c 0.07026,0 0.329551,0.04668 0.65935,0.618141 0.3298,0.571465 0.618141,1.608289 0.618141,3.049497 0,2.133446 -0.836867,4.501265 -1.936841,6.222617 -0.893729,1.398587 -1.983238,2.206819 -2.596191,2.472563 0.02794,-0.380933 0.08242,-0.745593 0.08242,-1.153863 0,-1.681343 -0.444402,-4.28149 -0.824188,-6.552292 -0.178348,-1.063057 -0.310565,-2.035401 -0.412094,-2.843447 1.437241,-1.421578 3.301055,-1.813216 4.409404,-1.813216 z m -22.994837,3.5028 c 3.775889,0 6.593502,2.48852 6.593502,5.274802 0,2.786268 -2.817613,5.274801 -6.593502,5.274801 -3.775888,0 -6.593501,-2.488533 -6.593501,-5.274801 0,-2.786282 2.817613,-5.274802 6.593501,-5.274802 z"
       overflow="visible"
       font-family="Sans"
       id="path1" /></g></svg>
